<?xml version="1.0" encoding="utf-8" standalone="no"?>
<!DOCTYPE svg PUBLIC "-//W3C//DTD SVG 1.1//EN"
  "http://www.w3.org/Graphics/SVG/1.1/DTD/svg11.dtd">
<svg xmlns:xlink="http://www.w3.org/1999/xlink" width="460.8pt" height="345.6pt" viewBox="0 0 460.8 345.6" xmlns="http://www.w3.org/2000/svg" version="1.1">
 <metadata>
  <rdf:RDF xmlns:dc="http://purl.org/dc/elements/1.1/" xmlns:cc="http://creativecommons.org/ns#" xmlns:rdf="http://www.w3.org/1999/02/22-rdf-syntax-ns#">
   <cc:Work>
    <dc:type rdf:resource="http://purl.org/dc/dcmitype/StillImage"/>
    <dc:date>2023-04-26T19:49:05.821438</dc:date>
    <dc:format>image/svg+xml</dc:format>
    <dc:creator>
     <cc:Agent>
      <dc:title>Matplotlib v3.7.1, https://matplotlib.org/</dc:title>
     </cc:Agent>
    </dc:creator>
   </cc:Work>
  </rdf:RDF>
 </metadata>
 <defs>
  <style type="text/css">*{stroke-linejoin: round; stroke-linecap: butt}</style>
 </defs>
 <g id="figure_1">
  <g id="patch_1">
   <path d="M 0 345.6 
L 460.8 345.6 
L 460.8 0 
L 0 0 
z
" style="fill: #ffffff"/>
  </g>
  <g id="axes_1">
   <g id="patch_2">
    <path d="M 101.376 279.936 
L 414.72 279.936 
L 414.72 41.472 
L 101.376 41.472 
z
" style="fill: #eaeaf2"/>
   </g>
   <g id="matplotlib.axis_1">
    <g id="xtick_1">
     <g id="line2d_1">
      <path d="M 163.176988 279.936 
L 163.176988 41.472 
" clip-path="url(#p74075416c3)" style="fill: none; stroke: #ffffff; stroke-linecap: round"/>
     </g>
     <g id="text_1">
      <!-- $\mathdefault{0.2}$ -->
      <g style="fill: #262626" transform="translate(152.89362 300.851505) scale(0.165 -0.165)">
       <defs>
        <path id="CMR17-30" d="M 2688 2025 
C 2688 2416 2682 3080 2413 3591 
C 2176 4039 1798 4198 1466 4198 
C 1158 4198 768 4058 525 3597 
C 269 3118 243 2524 243 2025 
C 243 1661 250 1106 448 619 
C 723 -39 1216 -128 1466 -128 
C 1760 -128 2208 -7 2470 600 
C 2662 1042 2688 1559 2688 2025 
z
M 1466 -26 
C 1056 -26 813 325 723 812 
C 653 1188 653 1738 653 2096 
C 653 2588 653 2997 736 3387 
C 858 3929 1216 4096 1466 4096 
C 1728 4096 2067 3923 2189 3400 
C 2272 3036 2278 2607 2278 2096 
C 2278 1680 2278 1169 2202 792 
C 2067 95 1690 -26 1466 -26 
z
" transform="scale(0.015625)"/>
        <path id="CMMI12-3a" d="M 1178 307 
C 1178 492 1024 619 870 619 
C 685 619 557 466 557 313 
C 557 128 710 0 864 0 
C 1050 0 1178 153 1178 307 
z
" transform="scale(0.015625)"/>
        <path id="CMR17-32" d="M 2669 989 
L 2554 989 
C 2490 536 2438 459 2413 420 
C 2381 369 1920 369 1830 369 
L 602 369 
C 832 619 1280 1072 1824 1597 
C 2214 1967 2669 2402 2669 3035 
C 2669 3790 2067 4224 1395 4224 
C 691 4224 262 3604 262 3030 
C 262 2780 448 2748 525 2748 
C 589 2748 781 2787 781 3010 
C 781 3207 614 3264 525 3264 
C 486 3264 448 3258 422 3245 
C 544 3790 915 4058 1306 4058 
C 1862 4058 2227 3617 2227 3035 
C 2227 2479 1901 2000 1536 1584 
L 262 146 
L 262 0 
L 2515 0 
L 2669 989 
z
" transform="scale(0.015625)"/>
       </defs>
       <use xlink:href="#CMR17-30" transform="scale(0.996264)"/>
       <use xlink:href="#CMMI12-3a" transform="translate(45.690477 0) scale(0.996264)"/>
       <use xlink:href="#CMR17-32" transform="translate(72.787654 0) scale(0.996264)"/>
      </g>
     </g>
    </g>
    <g id="xtick_2">
     <g id="line2d_2">
      <path d="M 261.234882 279.936 
L 261.234882 41.472 
" clip-path="url(#p74075416c3)" style="fill: none; stroke: #ffffff; stroke-linecap: round"/>
     </g>
     <g id="text_2">
      <!-- $\mathdefault{0.4}$ -->
      <g style="fill: #262626" transform="translate(250.951514 300.851505) scale(0.165 -0.165)">
       <defs>
        <path id="CMR17-34" d="M 2150 4122 
C 2150 4256 2144 4256 2029 4256 
L 128 1254 
L 128 1088 
L 1779 1088 
L 1779 457 
C 1779 224 1766 160 1318 160 
L 1197 160 
L 1197 0 
C 1402 0 1747 0 1965 0 
C 2182 0 2528 0 2733 0 
L 2733 160 
L 2611 160 
C 2163 160 2150 224 2150 457 
L 2150 1088 
L 2803 1088 
L 2803 1254 
L 2150 1254 
L 2150 4122 
z
M 1798 3703 
L 1798 1254 
L 256 1254 
L 1798 3703 
z
" transform="scale(0.015625)"/>
       </defs>
       <use xlink:href="#CMR17-30" transform="scale(0.996264)"/>
       <use xlink:href="#CMMI12-3a" transform="translate(45.690477 0) scale(0.996264)"/>
       <use xlink:href="#CMR17-34" transform="translate(72.787654 0) scale(0.996264)"/>
      </g>
     </g>
    </g>
    <g id="xtick_3">
     <g id="line2d_3">
      <path d="M 359.292775 279.936 
L 359.292775 41.472 
" clip-path="url(#p74075416c3)" style="fill: none; stroke: #ffffff; stroke-linecap: round"/>
     </g>
     <g id="text_3">
      <!-- $\mathdefault{0.6}$ -->
      <g style="fill: #262626" transform="translate(349.009408 300.851505) scale(0.165 -0.165)">
       <defs>
        <path id="CMR17-36" d="M 678 2176 
C 678 3690 1395 4032 1811 4032 
C 1946 4032 2272 4009 2400 3776 
C 2298 3776 2106 3776 2106 3553 
C 2106 3381 2246 3323 2336 3323 
C 2394 3323 2566 3348 2566 3560 
C 2566 3954 2246 4179 1805 4179 
C 1043 4179 243 3390 243 1984 
C 243 253 966 -128 1478 -128 
C 2099 -128 2688 427 2688 1283 
C 2688 2081 2170 2662 1517 2662 
C 1126 2662 838 2407 678 1960 
L 678 2176 
z
M 1478 25 
C 691 25 691 1200 691 1436 
C 691 1896 909 2560 1504 2560 
C 1613 2560 1926 2560 2138 2120 
C 2253 1870 2253 1609 2253 1289 
C 2253 944 2253 690 2118 434 
C 1978 171 1773 25 1478 25 
z
" transform="scale(0.015625)"/>
       </defs>
       <use xlink:href="#CMR17-30" transform="scale(0.996264)"/>
       <use xlink:href="#CMMI12-3a" transform="translate(45.690477 0) scale(0.996264)"/>
       <use xlink:href="#CMR17-36" transform="translate(72.787654 0) scale(0.996264)"/>
      </g>
     </g>
    </g>
    <g id="text_4">
     <!-- danceability -->
     <g style="fill: #262626" transform="translate(216.782344 320.501132) scale(0.18 -0.18)">
      <defs>
       <path id="CMSS17-64" d="M 2611 4416 
L 2138 4416 
L 2138 2438 
C 1939 2603 1613 2756 1254 2756 
C 672 2756 211 2131 211 1347 
C 211 562 666 -64 1235 -64 
C 1677 -64 1971 172 2125 306 
L 2125 -13 
L 2611 -13 
L 2611 4416 
z
M 2125 836 
C 2125 747 2125 653 1926 482 
C 1798 375 1645 325 1498 325 
C 1152 325 698 576 698 1340 
C 698 2134 1210 2368 1562 2368 
C 1798 2368 1990 2254 2125 2065 
L 2125 836 
z
" transform="scale(0.015625)"/>
       <path id="CMSS17-61" d="M 2406 1791 
C 2406 2392 1978 2808 1402 2808 
C 1120 2808 813 2757 461 2553 
L 499 2135 
C 659 2248 934 2432 1395 2432 
C 1722 2432 1920 2180 1920 1782 
L 1920 1536 
C 896 1536 256 1238 256 726 
C 256 461 416 -64 947 -64 
C 1043 -64 1562 -64 1933 217 
L 1933 -19 
L 2406 -19 
L 2406 1791 
z
M 1920 816 
C 1920 701 1920 548 1728 434 
C 1562 325 1350 325 1261 325 
C 941 325 723 511 723 744 
C 723 1211 1722 1211 1920 1211 
L 1920 816 
z
" transform="scale(0.015625)"/>
       <path id="CMSS17-6e" d="M 2618 1877 
C 2618 2283 2522 2816 1798 2816 
C 1389 2816 1120 2606 941 2389 
L 941 2758 
L 474 2758 
L 474 0 
L 960 0 
L 960 1559 
C 960 1964 1114 2428 1549 2428 
C 2112 2428 2131 2048 2131 1829 
L 2131 0 
L 2618 0 
L 2618 1877 
z
" transform="scale(0.015625)"/>
       <path id="CMSS17-63" d="M 2464 2541 
C 2464 2585 2170 2714 2093 2739 
C 1882 2816 1613 2816 1542 2816 
C 710 2816 211 2093 211 1363 
C 211 595 768 -64 1517 -64 
C 1946 -64 2253 76 2502 242 
L 2464 664 
C 2189 453 1869 337 1523 337 
C 1024 337 698 774 698 1369 
C 698 1831 909 2414 1549 2414 
C 1901 2414 2099 2343 2394 2145 
L 2464 2541 
z
" transform="scale(0.015625)"/>
       <path id="CMSS17-65" d="M 2502 1377 
C 2502 1590 2490 2003 2285 2345 
C 2061 2713 1696 2816 1421 2816 
C 755 2816 192 2188 192 1375 
C 192 582 774 -64 1510 -64 
C 1798 -64 2150 19 2470 248 
C 2470 274 2458 414 2451 420 
C 2451 433 2432 630 2432 656 
C 2125 407 1773 325 1517 325 
C 1107 325 666 667 646 1377 
L 2502 1377 
z
M 698 1728 
C 781 2084 1062 2421 1421 2421 
C 1517 2421 1965 2421 2080 1728 
L 698 1728 
z
" transform="scale(0.015625)"/>
       <path id="CMSS17-62" d="M 954 4416 
L 480 4416 
L 480 -13 
L 966 -13 
L 966 274 
C 1210 38 1504 -64 1766 -64 
C 2381 -64 2880 549 2880 1352 
C 2880 2086 2496 2756 1926 2756 
C 1523 2756 1165 2591 954 2419 
L 954 4416 
z
M 966 2046 
C 1107 2222 1306 2368 1587 2368 
C 1965 2368 2394 2097 2394 1352 
C 2394 558 1882 325 1530 325 
C 1402 325 1267 356 1139 464 
C 966 615 966 709 966 797 
L 966 2046 
z
" transform="scale(0.015625)"/>
       <path id="CMSS17-69" d="M 979 4183 
L 442 4183 
L 442 3648 
L 979 3648 
L 979 4183 
z
M 947 2739 
L 474 2739 
L 474 0 
L 947 0 
L 947 2739 
z
" transform="scale(0.015625)"/>
       <path id="CMSS17-6c" d="M 947 4416 
L 474 4416 
L 474 0 
L 947 0 
L 947 4416 
z
" transform="scale(0.015625)"/>
       <path id="CMSS17-74" d="M 1069 2368 
L 1901 2368 
L 1901 2737 
L 1069 2737 
L 1069 3520 
L 614 3520 
L 614 2737 
L 109 2737 
L 109 2368 
L 602 2368 
L 602 749 
C 602 384 685 -64 1107 -64 
C 1427 -64 1722 25 2003 172 
L 1901 548 
C 1747 414 1562 337 1363 337 
C 1082 337 1069 696 1069 856 
L 1069 2368 
z
" transform="scale(0.015625)"/>
       <path id="CMSS17-79" d="M 2675 2752 
L 2176 2752 
C 1632 1294 1446 702 1434 383 
L 1427 383 
C 1408 696 1126 1460 902 2007 
L 602 2752 
L 83 2752 
L 1216 13 
C 1146 -178 1043 -465 1011 -529 
C 870 -885 774 -885 672 -885 
C 646 -885 442 -885 211 -809 
L 250 -1229 
C 410 -1261 570 -1280 685 -1280 
C 845 -1280 1165 -1280 1459 -497 
L 2675 2752 
z
" transform="scale(0.015625)"/>
      </defs>
      <use xlink:href="#CMSS17-64" transform="scale(0.996264)"/>
      <use xlink:href="#CMSS17-61" transform="translate(48.204943 0) scale(0.996264)"/>
      <use xlink:href="#CMSS17-6e" transform="translate(93.126864 0) scale(0.996264)"/>
      <use xlink:href="#CMSS17-63" transform="translate(141.331807 0) scale(0.996264)"/>
      <use xlink:href="#CMSS17-65" transform="translate(182.970629 0) scale(0.996264)"/>
      <use xlink:href="#CMSS17-61" transform="translate(224.609451 0) scale(0.996264)"/>
      <use xlink:href="#CMSS17-62" transform="translate(269.531372 0) scale(0.996264)"/>
      <use xlink:href="#CMSS17-69" transform="translate(317.736315 0) scale(0.996264)"/>
      <use xlink:href="#CMSS17-6c" transform="translate(339.917038 0) scale(0.996264)"/>
      <use xlink:href="#CMSS17-69" transform="translate(362.097761 0) scale(0.996264)"/>
      <use xlink:href="#CMSS17-74" transform="translate(384.278484 0) scale(0.996264)"/>
      <use xlink:href="#CMSS17-79" transform="translate(415.507597 0) scale(0.996264)"/>
     </g>
    </g>
   </g>
   <g id="matplotlib.axis_2">
    <g id="ytick_1">
     <g id="line2d_4">
      <path d="M 101.376 274.757241 
L 414.72 274.757241 
" clip-path="url(#p74075416c3)" style="fill: none; stroke: #ffffff; stroke-linecap: round"/>
     </g>
     <g id="text_5">
      <!-- $\mathdefault{0.6}$ -->
      <g style="fill: #262626" transform="translate(71.309265 280.464994) scale(0.165 -0.165)">
       <use xlink:href="#CMR17-30" transform="scale(0.996264)"/>
       <use xlink:href="#CMMI12-3a" transform="translate(45.690477 0) scale(0.996264)"/>
       <use xlink:href="#CMR17-36" transform="translate(72.787654 0) scale(0.996264)"/>
      </g>
     </g>
    </g>
    <g id="ytick_2">
     <g id="line2d_5">
      <path d="M 101.376 231.214826 
L 414.72 231.214826 
" clip-path="url(#p74075416c3)" style="fill: none; stroke: #ffffff; stroke-linecap: round"/>
     </g>
     <g id="text_6">
      <!-- $\mathdefault{0.7}$ -->
      <g style="fill: #262626" transform="translate(71.309265 236.922578) scale(0.165 -0.165)">
       <defs>
        <path id="CMR17-37" d="M 2886 3941 
L 2886 4081 
L 1382 4081 
C 634 4081 621 4165 595 4288 
L 480 4288 
L 294 3094 
L 410 3094 
C 429 3215 474 3540 550 3661 
C 589 3712 1062 3712 1171 3712 
L 2579 3712 
L 1869 2661 
C 1395 1954 1069 999 1069 165 
C 1069 89 1069 -128 1299 -128 
C 1530 -128 1530 89 1530 171 
L 1530 465 
C 1530 1508 1709 2196 2003 2636 
L 2886 3941 
z
" transform="scale(0.015625)"/>
       </defs>
       <use xlink:href="#CMR17-30" transform="scale(0.996264)"/>
       <use xlink:href="#CMMI12-3a" transform="translate(45.690477 0) scale(0.996264)"/>
       <use xlink:href="#CMR17-37" transform="translate(72.787654 0) scale(0.996264)"/>
      </g>
     </g>
    </g>
    <g id="ytick_3">
     <g id="line2d_6">
      <path d="M 101.376 187.67241 
L 414.72 187.67241 
" clip-path="url(#p74075416c3)" style="fill: none; stroke: #ffffff; stroke-linecap: round"/>
     </g>
     <g id="text_7">
      <!-- $\mathdefault{0.8}$ -->
      <g style="fill: #262626" transform="translate(71.309265 193.380163) scale(0.165 -0.165)">
       <defs>
        <path id="CMR17-38" d="M 1741 2264 
C 2144 2467 2554 2773 2554 3263 
C 2554 3841 1990 4179 1472 4179 
C 890 4179 378 3759 378 3180 
C 378 3021 416 2747 666 2505 
C 730 2442 998 2251 1171 2130 
C 883 1983 211 1634 211 934 
C 211 279 838 -128 1459 -128 
C 2144 -128 2720 362 2720 1010 
C 2720 1590 2330 1857 2074 2029 
L 1741 2264 
z
M 902 2822 
C 851 2854 595 3051 595 3351 
C 595 3739 998 4032 1459 4032 
C 1965 4032 2336 3676 2336 3262 
C 2336 2669 1670 2331 1638 2331 
C 1632 2331 1626 2331 1574 2370 
L 902 2822 
z
M 2080 1519 
C 2176 1449 2483 1240 2483 851 
C 2483 381 2010 25 1472 25 
C 890 25 448 438 448 940 
C 448 1443 838 1862 1280 2060 
L 2080 1519 
z
" transform="scale(0.015625)"/>
       </defs>
       <use xlink:href="#CMR17-30" transform="scale(0.996264)"/>
       <use xlink:href="#CMMI12-3a" transform="translate(45.690477 0) scale(0.996264)"/>
       <use xlink:href="#CMR17-38" transform="translate(72.787654 0) scale(0.996264)"/>
      </g>
     </g>
    </g>
    <g id="ytick_4">
     <g id="line2d_7">
      <path d="M 101.376 144.129995 
L 414.72 144.129995 
" clip-path="url(#p74075416c3)" style="fill: none; stroke: #ffffff; stroke-linecap: round"/>
     </g>
     <g id="text_8">
      <!-- $\mathdefault{0.9}$ -->
      <g style="fill: #262626" transform="translate(71.309265 149.837747) scale(0.165 -0.165)">
       <defs>
        <path id="CMR17-39" d="M 2253 1864 
C 2253 464 1670 31 1190 31 
C 1043 31 685 31 538 294 
C 704 268 826 357 826 518 
C 826 692 685 749 595 749 
C 538 749 365 723 365 506 
C 365 71 742 -128 1203 -128 
C 1939 -128 2688 674 2688 2073 
C 2688 3817 1971 4179 1485 4179 
C 851 4179 243 3628 243 2778 
C 243 1991 762 1408 1414 1408 
C 1952 1408 2189 1903 2253 2112 
L 2253 1864 
z
M 1427 1510 
C 1254 1510 1011 1542 813 1922 
C 678 2169 678 2461 678 2771 
C 678 3146 678 3405 858 3684 
C 947 3817 1114 4032 1485 4032 
C 2240 4032 2240 2885 2240 2632 
C 2240 2182 2035 1510 1427 1510 
z
" transform="scale(0.015625)"/>
       </defs>
       <use xlink:href="#CMR17-30" transform="scale(0.996264)"/>
       <use xlink:href="#CMMI12-3a" transform="translate(45.690477 0) scale(0.996264)"/>
       <use xlink:href="#CMR17-39" transform="translate(72.787654 0) scale(0.996264)"/>
      </g>
     </g>
    </g>
    <g id="ytick_5">
     <g id="line2d_8">
      <path d="M 101.376 100.587579 
L 414.72 100.587579 
" clip-path="url(#p74075416c3)" style="fill: none; stroke: #ffffff; stroke-linecap: round"/>
     </g>
     <g id="text_9">
      <!-- $\mathdefault{1.0}$ -->
      <g style="fill: #262626" transform="translate(71.309265 106.295331) scale(0.165 -0.165)">
       <defs>
        <path id="CMR17-31" d="M 1702 4058 
C 1702 4192 1696 4192 1606 4192 
C 1357 3916 979 3827 621 3827 
C 602 3827 570 3827 563 3808 
C 557 3795 557 3782 557 3648 
C 755 3648 1088 3686 1344 3839 
L 1344 461 
C 1344 236 1331 160 781 160 
L 589 160 
L 589 0 
C 896 0 1216 0 1523 0 
C 1830 0 2150 0 2458 0 
L 2458 160 
L 2266 160 
C 1715 160 1702 230 1702 458 
L 1702 4058 
z
" transform="scale(0.015625)"/>
       </defs>
       <use xlink:href="#CMR17-31" transform="scale(0.996264)"/>
       <use xlink:href="#CMMI12-3a" transform="translate(45.690477 0) scale(0.996264)"/>
       <use xlink:href="#CMR17-30" transform="translate(72.787654 0) scale(0.996264)"/>
      </g>
     </g>
    </g>
    <g id="ytick_6">
     <g id="line2d_9">
      <path d="M 101.376 57.045163 
L 414.72 57.045163 
" clip-path="url(#p74075416c3)" style="fill: none; stroke: #ffffff; stroke-linecap: round"/>
     </g>
     <g id="text_10">
      <!-- $\mathdefault{1.1}$ -->
      <g style="fill: #262626" transform="translate(71.309265 62.752916) scale(0.165 -0.165)">
       <use xlink:href="#CMR17-31" transform="scale(0.996264)"/>
       <use xlink:href="#CMMI12-3a" transform="translate(45.690477 0) scale(0.996264)"/>
       <use xlink:href="#CMR17-31" transform="translate(72.787654 0) scale(0.996264)"/>
      </g>
     </g>
    </g>
    <g id="text_11">
     <!-- energy -->
     <g style="fill: #262626" transform="translate(63.821201 183.495234) rotate(-90) scale(0.18 -0.18)">
      <defs>
       <path id="CMSS17-72" d="M 954 1363 
C 954 1965 1395 2368 1958 2368 
L 1958 2789 
C 1549 2789 1165 2585 934 2253 
L 934 2758 
L 480 2758 
L 480 0 
L 954 0 
L 954 1363 
z
" transform="scale(0.015625)"/>
       <path id="CMSS17-67" d="M 2848 2808 
C 2483 2808 2170 2738 1914 2617 
C 1702 2777 1485 2808 1338 2808 
C 781 2808 358 2349 358 1814 
C 358 1468 550 1207 563 1195 
C 448 1035 384 863 384 672 
C 384 448 474 289 544 200 
C 211 -3 166 -314 166 -435 
C 166 -898 749 -1280 1498 -1280 
C 2253 -1280 2835 -898 2835 -428 
C 2835 448 1856 448 1587 448 
L 1069 448 
C 973 448 717 448 717 791 
C 717 921 774 1004 781 1010 
C 877 940 1075 832 1338 832 
C 1869 832 2310 1278 2310 1827 
C 2310 2132 2170 2355 2112 2432 
L 2131 2432 
C 2150 2432 2419 2432 2515 2432 
C 2720 2432 2739 2429 2918 2419 
L 2848 2808 
z
M 1338 1182 
C 1120 1182 813 1315 813 1823 
C 813 2375 1165 2464 1331 2464 
C 1549 2464 1856 2331 1856 1823 
C 1856 1271 1504 1182 1338 1182 
z
M 1581 -10 
C 1734 -10 2381 -10 2381 -442 
C 2381 -714 1984 -929 1504 -929 
C 1018 -929 621 -720 621 -435 
C 621 -403 621 -10 1062 -10 
L 1581 -10 
z
" transform="scale(0.015625)"/>
      </defs>
      <use xlink:href="#CMSS17-65" transform="scale(0.996264)"/>
      <use xlink:href="#CMSS17-6e" transform="translate(41.638822 0) scale(0.996264)"/>
      <use xlink:href="#CMSS17-65" transform="translate(89.843765 0) scale(0.996264)"/>
      <use xlink:href="#CMSS17-72" transform="translate(131.482587 0) scale(0.996264)"/>
      <use xlink:href="#CMSS17-67" transform="translate(163.39236 0) scale(0.996264)"/>
      <use xlink:href="#CMSS17-79" transform="translate(210.235983 0) scale(0.996264)"/>
     </g>
    </g>
   </g>
   <g id="PathCollection_1">
    <defs>
     <path id="m87ebca41b5" d="M 0 3 
C 0.795609 3 1.55874 2.683901 2.12132 2.12132 
C 2.683901 1.55874 3 0.795609 3 0 
C 3 -0.795609 2.683901 -1.55874 2.12132 -2.12132 
C 1.55874 -2.683901 0.795609 -3 0 -3 
C -0.795609 -3 -1.55874 -2.683901 -2.12132 -2.12132 
C -2.683901 -1.55874 -3 -0.795609 -3 0 
C -3 0.795609 -2.683901 1.55874 -2.12132 2.12132 
C -1.55874 2.683901 -0.795609 3 0 3 
z
" style="stroke: #1e90ff"/>
    </defs>
    <g clip-path="url(#p74075416c3)">
     <use xlink:href="#m87ebca41b5" x="209.264198" y="211.620739" style="fill: #1e90ff; stroke: #1e90ff"/>
     <use xlink:href="#m87ebca41b5" x="265.647487" y="137.598632" style="fill: #1e90ff; stroke: #1e90ff"/>
     <use xlink:href="#m87ebca41b5" x="283.297908" y="138.034056" style="fill: #1e90ff; stroke: #1e90ff"/>
     <use xlink:href="#m87ebca41b5" x="392.632459" y="192.8975" style="fill: #1e90ff; stroke: #1e90ff"/>
     <use xlink:href="#m87ebca41b5" x="349.977276" y="191.591228" style="fill: #1e90ff; stroke: #1e90ff"/>
     <use xlink:href="#m87ebca41b5" x="298.987171" y="161.982385" style="fill: #1e90ff; stroke: #1e90ff"/>
     <use xlink:href="#m87ebca41b5" x="226.424329" y="150.661357" style="fill: #1e90ff; stroke: #1e90ff"/>
     <use xlink:href="#m87ebca41b5" x="273.982408" y="152.403053" style="fill: #1e90ff; stroke: #1e90ff"/>
     <use xlink:href="#m87ebca41b5" x="205.341882" y="146.307115" style="fill: #1e90ff; stroke: #1e90ff"/>
     <use xlink:href="#m87ebca41b5" x="329.385118" y="175.480534" style="fill: #1e90ff; stroke: #1e90ff"/>
     <use xlink:href="#m87ebca41b5" x="261.725171" y="109.731486" style="fill: #1e90ff; stroke: #1e90ff"/>
     <use xlink:href="#m87ebca41b5" x="243.584461" y="128.890149" style="fill: #1e90ff; stroke: #1e90ff"/>
     <use xlink:href="#m87ebca41b5" x="267.118355" y="249.50264" style="fill: #1e90ff; stroke: #1e90ff"/>
     <use xlink:href="#m87ebca41b5" x="298.987171" y="126.713028" style="fill: #1e90ff; stroke: #1e90ff"/>
     <use xlink:href="#m87ebca41b5" x="351.938433" y="141.082025" style="fill: #1e90ff; stroke: #1e90ff"/>
     <use xlink:href="#m87ebca41b5" x="220.540856" y="107.118941" style="fill: #1e90ff; stroke: #1e90ff"/>
     <use xlink:href="#m87ebca41b5" x="129.347014" y="111.473183" style="fill: #1e90ff; stroke: #1e90ff"/>
     <use xlink:href="#m87ebca41b5" x="321.050197" y="120.61709" style="fill: #1e90ff; stroke: #1e90ff"/>
     <use xlink:href="#m87ebca41b5" x="282.807618" y="139.340329" style="fill: #1e90ff; stroke: #1e90ff"/>
     <use xlink:href="#m87ebca41b5" x="282.317329" y="195.945469" style="fill: #1e90ff; stroke: #1e90ff"/>
     <use xlink:href="#m87ebca41b5" x="201.419566" y="128.019301" style="fill: #1e90ff; stroke: #1e90ff"/>
     <use xlink:href="#m87ebca41b5" x="276.924145" y="126.277604" style="fill: #1e90ff; stroke: #1e90ff"/>
     <use xlink:href="#m87ebca41b5" x="327.914249" y="166.336626" style="fill: #1e90ff; stroke: #1e90ff"/>
     <use xlink:href="#m87ebca41b5" x="232.798092" y="139.775753" style="fill: #1e90ff; stroke: #1e90ff"/>
     <use xlink:href="#m87ebca41b5" x="252.409671" y="102.329276" style="fill: #1e90ff; stroke: #1e90ff"/>
     <use xlink:href="#m87ebca41b5" x="276.433855" y="152.838478" style="fill: #1e90ff; stroke: #1e90ff"/>
     <use xlink:href="#m87ebca41b5" x="280.84646" y="122.358787" style="fill: #1e90ff; stroke: #1e90ff"/>
     <use xlink:href="#m87ebca41b5" x="342.622934" y="172.867989" style="fill: #1e90ff; stroke: #1e90ff"/>
     <use xlink:href="#m87ebca41b5" x="346.545249" y="125.406756" style="fill: #1e90ff; stroke: #1e90ff"/>
     <use xlink:href="#m87ebca41b5" x="366.156828" y="144.565419" style="fill: #1e90ff; stroke: #1e90ff"/>
     <use xlink:href="#m87ebca41b5" x="316.147302" y="109.296062" style="fill: #1e90ff; stroke: #1e90ff"/>
     <use xlink:href="#m87ebca41b5" x="298.496881" y="143.69457" style="fill: #1e90ff; stroke: #1e90ff"/>
     <use xlink:href="#m87ebca41b5" x="198.477829" y="118.875393" style="fill: #1e90ff; stroke: #1e90ff"/>
     <use xlink:href="#m87ebca41b5" x="269.079513" y="116.262849" style="fill: #1e90ff; stroke: #1e90ff"/>
     <use xlink:href="#m87ebca41b5" x="265.647487" y="148.484236" style="fill: #1e90ff; stroke: #1e90ff"/>
     <use xlink:href="#m87ebca41b5" x="287.710513" y="138.46948" style="fill: #1e90ff; stroke: #1e90ff"/>
     <use xlink:href="#m87ebca41b5" x="326.443381" y="120.61709" style="fill: #1e90ff; stroke: #1e90ff"/>
     <use xlink:href="#m87ebca41b5" x="214.167092" y="106.248093" style="fill: #1e90ff; stroke: #1e90ff"/>
     <use xlink:href="#m87ebca41b5" x="348.016118" y="143.69457" style="fill: #1e90ff; stroke: #1e90ff"/>
     <use xlink:href="#m87ebca41b5" x="316.147302" y="123.665059" style="fill: #1e90ff; stroke: #1e90ff"/>
     <use xlink:href="#m87ebca41b5" x="264.666908" y="114.956576" style="fill: #1e90ff; stroke: #1e90ff"/>
     <use xlink:href="#m87ebca41b5" x="209.264198" y="102.7647" style="fill: #1e90ff; stroke: #1e90ff"/>
     <use xlink:href="#m87ebca41b5" x="348.506407" y="172.432565" style="fill: #1e90ff; stroke: #1e90ff"/>
     <use xlink:href="#m87ebca41b5" x="226.424329" y="150.661357" style="fill: #1e90ff; stroke: #1e90ff"/>
     <use xlink:href="#m87ebca41b5" x="278.395013" y="106.248093" style="fill: #1e90ff; stroke: #1e90ff"/>
     <use xlink:href="#m87ebca41b5" x="284.278487" y="108.425214" style="fill: #1e90ff; stroke: #1e90ff"/>
     <use xlink:href="#m87ebca41b5" x="177.395382" y="122.794211" style="fill: #1e90ff; stroke: #1e90ff"/>
     <use xlink:href="#m87ebca41b5" x="161.706119" y="119.746242" style="fill: #1e90ff; stroke: #1e90ff"/>
     <use xlink:href="#m87ebca41b5" x="308.79296" y="123.665059" style="fill: #1e90ff; stroke: #1e90ff"/>
     <use xlink:href="#m87ebca41b5" x="232.798092" y="139.775753" style="fill: #1e90ff; stroke: #1e90ff"/>
     <use xlink:href="#m87ebca41b5" x="237.700987" y="112.344031" style="fill: #1e90ff; stroke: #1e90ff"/>
     <use xlink:href="#m87ebca41b5" x="235.739829" y="231.214826" style="fill: #1e90ff; stroke: #1e90ff"/>
     <use xlink:href="#m87ebca41b5" x="183.278856" y="122.794211" style="fill: #1e90ff; stroke: #1e90ff"/>
     <use xlink:href="#m87ebca41b5" x="323.011355" y="106.683517" style="fill: #1e90ff; stroke: #1e90ff"/>
     <use xlink:href="#m87ebca41b5" x="203.380724" y="113.650304" style="fill: #1e90ff; stroke: #1e90ff"/>
     <use xlink:href="#m87ebca41b5" x="204.851593" y="176.786806" style="fill: #1e90ff; stroke: #1e90ff"/>
     <use xlink:href="#m87ebca41b5" x="149.939172" y="127.583877" style="fill: #1e90ff; stroke: #1e90ff"/>
     <use xlink:href="#m87ebca41b5" x="310.263829" y="124.100483" style="fill: #1e90ff; stroke: #1e90ff"/>
     <use xlink:href="#m87ebca41b5" x="211.225356" y="146.307115" style="fill: #1e90ff; stroke: #1e90ff"/>
     <use xlink:href="#m87ebca41b5" x="287.710513" y="138.46948" style="fill: #1e90ff; stroke: #1e90ff"/>
     <use xlink:href="#m87ebca41b5" x="197.98754" y="158.934416" style="fill: #1e90ff; stroke: #1e90ff"/>
     <use xlink:href="#m87ebca41b5" x="312.715276" y="261.259092" style="fill: #1e90ff; stroke: #1e90ff"/>
     <use xlink:href="#m87ebca41b5" x="204.851593" y="140.646601" style="fill: #1e90ff; stroke: #1e90ff"/>
     <use xlink:href="#m87ebca41b5" x="242.603882" y="188.978683" style="fill: #1e90ff; stroke: #1e90ff"/>
     <use xlink:href="#m87ebca41b5" x="247.506776" y="117.569121" style="fill: #1e90ff; stroke: #1e90ff"/>
     <use xlink:href="#m87ebca41b5" x="371.059723" y="129.325573" style="fill: #1e90ff; stroke: #1e90ff"/>
     <use xlink:href="#m87ebca41b5" x="283.788197" y="113.650304" style="fill: #1e90ff; stroke: #1e90ff"/>
     <use xlink:href="#m87ebca41b5" x="240.642724" y="147.177964" style="fill: #1e90ff; stroke: #1e90ff"/>
     <use xlink:href="#m87ebca41b5" x="235.739829" y="231.214826" style="fill: #1e90ff; stroke: #1e90ff"/>
     <use xlink:href="#m87ebca41b5" x="284.768776" y="114.085728" style="fill: #1e90ff; stroke: #1e90ff"/>
     <use xlink:href="#m87ebca41b5" x="267.118355" y="249.50264" style="fill: #1e90ff; stroke: #1e90ff"/>
     <use xlink:href="#m87ebca41b5" x="268.589224" y="140.646601" style="fill: #1e90ff; stroke: #1e90ff"/>
     <use xlink:href="#m87ebca41b5" x="238.191276" y="145.000843" style="fill: #1e90ff; stroke: #1e90ff"/>
     <use xlink:href="#m87ebca41b5" x="371.059723" y="154.580174" style="fill: #1e90ff; stroke: #1e90ff"/>
     <use xlink:href="#m87ebca41b5" x="308.302671" y="120.181666" style="fill: #1e90ff; stroke: #1e90ff"/>
     <use xlink:href="#m87ebca41b5" x="311.734697" y="108.860638" style="fill: #1e90ff; stroke: #1e90ff"/>
     <use xlink:href="#m87ebca41b5" x="335.268591" y="104.506396" style="fill: #1e90ff; stroke: #1e90ff"/>
     <use xlink:href="#m87ebca41b5" x="303.890065" y="111.037759" style="fill: #1e90ff; stroke: #1e90ff"/>
     <use xlink:href="#m87ebca41b5" x="295.555144" y="124.535907" style="fill: #1e90ff; stroke: #1e90ff"/>
     <use xlink:href="#m87ebca41b5" x="318.10846" y="104.506396" style="fill: #1e90ff; stroke: #1e90ff"/>
     <use xlink:href="#m87ebca41b5" x="312.224986" y="139.340329" style="fill: #1e90ff; stroke: #1e90ff"/>
     <use xlink:href="#m87ebca41b5" x="298.006592" y="102.7647" style="fill: #1e90ff; stroke: #1e90ff"/>
     <use xlink:href="#m87ebca41b5" x="365.666539" y="121.052514" style="fill: #1e90ff; stroke: #1e90ff"/>
     <use xlink:href="#m87ebca41b5" x="275.943566" y="118.004545" style="fill: #1e90ff; stroke: #1e90ff"/>
     <use xlink:href="#m87ebca41b5" x="266.628066" y="230.343977" style="fill: #1e90ff; stroke: #1e90ff"/>
     <use xlink:href="#m87ebca41b5" x="247.016487" y="112.344031" style="fill: #1e90ff; stroke: #1e90ff"/>
     <use xlink:href="#m87ebca41b5" x="298.987171" y="129.325573" style="fill: #1e90ff; stroke: #1e90ff"/>
     <use xlink:href="#m87ebca41b5" x="319.579328" y="173.303413" style="fill: #1e90ff; stroke: #1e90ff"/>
     <use xlink:href="#m87ebca41b5" x="327.914249" y="166.336626" style="fill: #1e90ff; stroke: #1e90ff"/>
     <use xlink:href="#m87ebca41b5" x="364.19567" y="148.048812" style="fill: #1e90ff; stroke: #1e90ff"/>
     <use xlink:href="#m87ebca41b5" x="323.991934" y="140.646601" style="fill: #1e90ff; stroke: #1e90ff"/>
     <use xlink:href="#m87ebca41b5" x="338.700618" y="150.225933" style="fill: #1e90ff; stroke: #1e90ff"/>
     <use xlink:href="#m87ebca41b5" x="232.798092" y="132.808966" style="fill: #1e90ff; stroke: #1e90ff"/>
     <use xlink:href="#m87ebca41b5" x="209.264198" y="211.620739" style="fill: #1e90ff; stroke: #1e90ff"/>
     <use xlink:href="#m87ebca41b5" x="264.666908" y="122.358787" style="fill: #1e90ff; stroke: #1e90ff"/>
     <use xlink:href="#m87ebca41b5" x="217.108829" y="104.506396" style="fill: #1e90ff; stroke: #1e90ff"/>
     <use xlink:href="#m87ebca41b5" x="297.516302" y="117.133697" style="fill: #1e90ff; stroke: #1e90ff"/>
     <use xlink:href="#m87ebca41b5" x="122.482962" y="107.98979" style="fill: #1e90ff; stroke: #1e90ff"/>
     <use xlink:href="#m87ebca41b5" x="277.904724" y="177.22223" style="fill: #1e90ff; stroke: #1e90ff"/>
     <use xlink:href="#m87ebca41b5" x="284.278487" y="121.487938" style="fill: #1e90ff; stroke: #1e90ff"/>
     <use xlink:href="#m87ebca41b5" x="316.147302" y="161.546961" style="fill: #1e90ff; stroke: #1e90ff"/>
     <use xlink:href="#m87ebca41b5" x="247.506776" y="117.569121" style="fill: #1e90ff; stroke: #1e90ff"/>
     <use xlink:href="#m87ebca41b5" x="200.438987" y="160.676112" style="fill: #1e90ff; stroke: #1e90ff"/>
     <use xlink:href="#m87ebca41b5" x="265.647487" y="137.598632" style="fill: #1e90ff; stroke: #1e90ff"/>
     <use xlink:href="#m87ebca41b5" x="378.904354" y="134.550663" style="fill: #1e90ff; stroke: #1e90ff"/>
     <use xlink:href="#m87ebca41b5" x="316.147302" y="102.329276" style="fill: #1e90ff; stroke: #1e90ff"/>
     <use xlink:href="#m87ebca41b5" x="400.477091" y="165.465778" style="fill: #1e90ff; stroke: #1e90ff"/>
     <use xlink:href="#m87ebca41b5" x="325.953092" y="126.277604" style="fill: #1e90ff; stroke: #1e90ff"/>
     <use xlink:href="#m87ebca41b5" x="291.142539" y="117.569121" style="fill: #1e90ff; stroke: #1e90ff"/>
     <use xlink:href="#m87ebca41b5" x="307.812381" y="103.635548" style="fill: #1e90ff; stroke: #1e90ff"/>
     <use xlink:href="#m87ebca41b5" x="354.88017" y="116.698273" style="fill: #1e90ff; stroke: #1e90ff"/>
     <use xlink:href="#m87ebca41b5" x="263.686329" y="118.004545" style="fill: #1e90ff; stroke: #1e90ff"/>
     <use xlink:href="#m87ebca41b5" x="214.167092" y="121.487938" style="fill: #1e90ff; stroke: #1e90ff"/>
     <use xlink:href="#m87ebca41b5" x="211.225356" y="121.052514" style="fill: #1e90ff; stroke: #1e90ff"/>
     <use xlink:href="#m87ebca41b5" x="325.953092" y="205.524801" style="fill: #1e90ff; stroke: #1e90ff"/>
     <use xlink:href="#m87ebca41b5" x="298.987171" y="161.982385" style="fill: #1e90ff; stroke: #1e90ff"/>
     <use xlink:href="#m87ebca41b5" x="383.316959" y="145.871691" style="fill: #1e90ff; stroke: #1e90ff"/>
     <use xlink:href="#m87ebca41b5" x="233.288382" y="117.133697" style="fill: #1e90ff; stroke: #1e90ff"/>
     <use xlink:href="#m87ebca41b5" x="351.938433" y="141.082025" style="fill: #1e90ff; stroke: #1e90ff"/>
     <use xlink:href="#m87ebca41b5" x="115.618909" y="161.982385" style="fill: #1e90ff; stroke: #1e90ff"/>
     <use xlink:href="#m87ebca41b5" x="265.647487" y="148.484236" style="fill: #1e90ff; stroke: #1e90ff"/>
     <use xlink:href="#m87ebca41b5" x="272.511539" y="102.329276" style="fill: #1e90ff; stroke: #1e90ff"/>
     <use xlink:href="#m87ebca41b5" x="169.550751" y="132.373542" style="fill: #1e90ff; stroke: #1e90ff"/>
     <use xlink:href="#m87ebca41b5" x="324.482223" y="105.812669" style="fill: #1e90ff; stroke: #1e90ff"/>
     <use xlink:href="#m87ebca41b5" x="209.264198" y="269.096727" style="fill: #1e90ff; stroke: #1e90ff"/>
    </g>
   </g>
   <g id="line2d_10">
    <path d="M 115.618909 52.311273 
L 122.482962 66.389009 
L 129.347014 79.140565 
L 149.939172 110.031965 
L 161.706119 123.182312 
L 169.550751 130.31955 
L 177.395382 136.256476 
L 183.278856 139.974786 
L 197.98754 146.78021 
L 198.477829 146.950595 
L 200.438987 147.59823 
L 201.419566 147.90201 
L 203.380724 148.470356 
L 204.851593 148.862988 
L 204.851593 148.862988 
L 205.341882 148.987575 
L 209.264198 149.874166 
L 209.264198 149.874166 
L 209.264198 149.874166 
L 209.264198 149.874166 
L 211.225356 150.24631 
L 211.225356 150.24631 
L 214.167092 150.71948 
L 214.167092 150.71948 
L 217.108829 151.09475 
L 220.540856 151.415069 
L 226.424329 151.690354 
L 226.424329 151.690354 
L 232.798092 151.635762 
L 232.798092 151.635762 
L 232.798092 151.635762 
L 233.288382 151.617677 
L 235.739829 151.499554 
L 235.739829 151.499554 
L 237.700987 151.373115 
L 238.191276 151.337249 
L 240.642724 151.13347 
L 242.603882 150.942401 
L 243.584461 150.837994 
L 247.016487 150.428947 
L 247.506776 150.36526 
L 247.506776 150.36526 
L 252.409671 149.663334 
L 261.725171 148.063395 
L 263.686329 147.693056 
L 264.666908 147.504598 
L 264.666908 147.504598 
L 265.647487 147.314177 
L 265.647487 147.314177 
L 265.647487 147.314177 
L 265.647487 147.314177 
L 266.628066 147.121968 
L 267.118355 147.025247 
L 267.118355 147.025247 
L 268.589224 146.732877 
L 269.079513 146.634757 
L 272.511539 145.940849 
L 273.982408 145.640865 
L 275.943566 145.239876 
L 276.433855 145.139593 
L 276.924145 145.03934 
L 277.904724 144.839005 
L 278.395013 144.738968 
L 280.84646 144.240947 
L 282.317329 143.944645 
L 282.807618 143.846427 
L 283.297908 143.748518 
L 283.788197 143.650942 
L 284.278487 143.553719 
L 284.278487 143.553719 
L 284.768776 143.456871 
L 287.710513 142.884875 
L 287.710513 142.884875 
L 291.142539 142.241839 
L 295.555144 141.464945 
L 297.516302 141.141417 
L 298.006592 141.062879 
L 298.496881 140.985323 
L 298.987171 140.90877 
L 298.987171 140.90877 
L 298.987171 140.90877 
L 298.987171 140.90877 
L 303.890065 140.203148 
L 307.812381 139.726951 
L 308.302671 139.673562 
L 308.79296 139.621609 
L 310.263829 139.474578 
L 311.734697 139.341247 
L 312.224986 139.299949 
L 312.715276 139.260259 
L 316.147302 139.029292 
L 316.147302 139.029292 
L 316.147302 139.029292 
L 316.147302 139.029292 
L 318.10846 138.936036 
L 319.579328 138.885636 
L 321.050197 138.852636 
L 323.011355 138.836712 
L 323.991934 138.841172 
L 324.482223 138.846584 
L 325.953092 138.875803 
L 325.953092 138.875803 
L 326.443381 138.889944 
L 327.914249 138.945869 
L 327.914249 138.945869 
L 329.385118 139.022505 
L 335.268591 139.547844 
L 338.700618 140.026511 
L 342.622934 140.740629 
L 346.545249 141.643576 
L 348.016118 142.033124 
L 348.506407 142.169322 
L 349.977276 142.597262 
L 351.938433 143.2138 
L 351.938433 143.2138 
L 354.88017 144.239889 
L 364.19567 148.34066 
L 365.666539 149.113128 
L 366.156828 149.378524 
L 371.059723 152.255456 
L 371.059723 152.255456 
L 378.904354 157.742312 
L 383.316959 161.33507 
L 392.632459 170.201567 
L 400.477091 179.106211 
" clip-path="url(#p74075416c3)" style="fill: none; stroke: #ff0000; stroke-width: 1.5; stroke-linecap: round"/>
   </g>
   <g id="patch_3">
    <path d="M 101.376 279.936 
L 101.376 41.472 
" style="fill: none; stroke: #ffffff; stroke-width: 1.25; stroke-linejoin: miter; stroke-linecap: square"/>
   </g>
   <g id="patch_4">
    <path d="M 414.72 279.936 
L 414.72 41.472 
" style="fill: none; stroke: #ffffff; stroke-width: 1.25; stroke-linejoin: miter; stroke-linecap: square"/>
   </g>
   <g id="patch_5">
    <path d="M 101.376 279.936 
L 414.72 279.936 
" style="fill: none; stroke: #ffffff; stroke-width: 1.25; stroke-linejoin: miter; stroke-linecap: square"/>
   </g>
   <g id="patch_6">
    <path d="M 101.376 41.472 
L 414.72 41.472 
" style="fill: none; stroke: #ffffff; stroke-width: 1.25; stroke-linejoin: miter; stroke-linecap: square"/>
   </g>
   <g id="text_12">
    <!-- Linear Regression -->
    <g style="fill: #262626" transform="translate(196.877434 35.472) scale(0.18 -0.18)">
     <defs>
      <path id="CMSS17-4c" d="M 1670 414 
C 1594 414 1517 414 1440 414 
L 1101 414 
L 1101 4416 
L 563 4416 
L 563 0 
L 3002 0 
L 3002 414 
L 1670 414 
z
" transform="scale(0.015625)"/>
      <path id="CMSS17-52" d="M 2522 2109 
L 2534 2115 
C 3533 2459 3539 3147 3539 3268 
C 3539 3873 2925 4453 2003 4453 
L 570 4453 
L 570 32 
L 1094 32 
L 1094 2048 
L 2035 2048 
L 3168 32 
L 3706 32 
L 2522 2109 
z
M 1094 2437 
L 1094 4096 
L 1933 4096 
C 2746 4096 3034 3637 3034 3267 
C 3034 2922 2778 2437 1933 2437 
L 1094 2437 
z
" transform="scale(0.015625)"/>
      <path id="CMSS17-73" d="M 2061 2627 
C 1683 2807 1389 2807 1197 2807 
C 742 2807 198 2648 198 2003 
C 198 1359 902 1218 1094 1179 
C 1389 1122 1715 1058 1715 740 
C 1715 337 1254 337 1171 337 
C 915 337 563 407 243 638 
L 166 210 
C 531 0 883 -64 1178 -64 
C 1965 -64 2163 416 2163 781 
C 2163 1094 1984 1305 1862 1401 
C 1651 1568 1574 1587 1050 1696 
C 960 1709 646 1779 646 2066 
C 646 2432 1050 2432 1139 2432 
C 1555 2432 1811 2303 1984 2208 
L 2061 2627 
z
" transform="scale(0.015625)"/>
      <path id="CMSS17-6f" d="M 2829 1356 
C 2829 2176 2221 2816 1504 2816 
C 768 2816 173 2157 173 1356 
C 173 544 787 -64 1498 -64 
C 2227 -64 2829 563 2829 1356 
z
M 1504 337 
C 1050 337 659 709 659 1408 
C 659 2151 1114 2427 1498 2427 
C 1914 2427 2342 2126 2342 1408 
C 2342 683 1926 337 1504 337 
z
" transform="scale(0.015625)"/>
     </defs>
     <use xlink:href="#CMSS17-4c" transform="scale(0.996264)"/>
     <use xlink:href="#CMSS17-69" transform="translate(50.687105 0) scale(0.996264)"/>
     <use xlink:href="#CMSS17-6e" transform="translate(72.867828 0) scale(0.996264)"/>
     <use xlink:href="#CMSS17-65" transform="translate(121.072772 0) scale(0.996264)"/>
     <use xlink:href="#CMSS17-61" transform="translate(162.711594 0) scale(0.996264)"/>
     <use xlink:href="#CMSS17-72" transform="translate(205.03106 0) scale(0.996264)"/>
     <use xlink:href="#CMSS17-52" transform="translate(268.169946 0) scale(0.996264)"/>
     <use xlink:href="#CMSS17-65" transform="translate(328.5861 0) scale(0.996264)"/>
     <use xlink:href="#CMSS17-67" transform="translate(370.224923 0) scale(0.996264)"/>
     <use xlink:href="#CMSS17-72" transform="translate(417.068546 0) scale(0.996264)"/>
     <use xlink:href="#CMSS17-65" transform="translate(448.978319 0) scale(0.996264)"/>
     <use xlink:href="#CMSS17-73" transform="translate(490.617141 0) scale(0.996264)"/>
     <use xlink:href="#CMSS17-73" transform="translate(526.530683 0) scale(0.996264)"/>
     <use xlink:href="#CMSS17-69" transform="translate(562.444225 0) scale(0.996264)"/>
     <use xlink:href="#CMSS17-6f" transform="translate(584.624948 0) scale(0.996264)"/>
     <use xlink:href="#CMSS17-6e" transform="translate(631.468571 0) scale(0.996264)"/>
    </g>
   </g>
  </g>
 </g>
 <defs>
  <clipPath id="p74075416c3">
   <rect x="101.376" y="41.472" width="313.344" height="238.464"/>
  </clipPath>
 </defs>
</svg>
