<?xml version="1.0" encoding="utf-8" standalone="no"?>
<!DOCTYPE svg PUBLIC "-//W3C//DTD SVG 1.1//EN"
  "http://www.w3.org/Graphics/SVG/1.1/DTD/svg11.dtd">
<svg xmlns:xlink="http://www.w3.org/1999/xlink" width="460.8pt" height="345.6pt" viewBox="0 0 460.8 345.6" xmlns="http://www.w3.org/2000/svg" version="1.1">
 <metadata>
  <rdf:RDF xmlns:dc="http://purl.org/dc/elements/1.1/" xmlns:cc="http://creativecommons.org/ns#" xmlns:rdf="http://www.w3.org/1999/02/22-rdf-syntax-ns#">
   <cc:Work>
    <dc:type rdf:resource="http://purl.org/dc/dcmitype/StillImage"/>
    <dc:date>2023-04-27T16:33:13.628148</dc:date>
    <dc:format>image/svg+xml</dc:format>
    <dc:creator>
     <cc:Agent>
      <dc:title>Matplotlib v3.7.1, https://matplotlib.org/</dc:title>
     </cc:Agent>
    </dc:creator>
   </cc:Work>
  </rdf:RDF>
 </metadata>
 <defs>
  <style type="text/css">*{stroke-linejoin: round; stroke-linecap: butt}</style>
 </defs>
 <g id="figure_1">
  <g id="patch_1">
   <path d="M 0 345.6 
L 460.8 345.6 
L 460.8 0 
L 0 0 
z
" style="fill: #ffffff"/>
  </g>
  <g id="axes_1">
   <g id="patch_2">
    <path d="M 101.376 279.936 
L 414.72 279.936 
L 414.72 41.472 
L 101.376 41.472 
z
" style="fill: #eaeaf2"/>
   </g>
   <g id="matplotlib.axis_1">
    <g id="xtick_1">
     <g id="line2d_1">
      <path d="M 142.76333 279.936 
L 142.76333 41.472 
" clip-path="url(#p992ef91683)" style="fill: none; stroke: #ffffff; stroke-linecap: round"/>
     </g>
     <g id="text_1">
      <!-- $\mathdefault{−12.5}$ -->
      <g style="fill: #262626" transform="translate(122.063322 300.851505) scale(0.165 -0.165)">
       <defs>
        <path id="CMSY10-0" d="M 4218 1472 
C 4326 1472 4442 1472 4442 1600 
C 4442 1728 4326 1728 4218 1728 
L 755 1728 
C 646 1728 531 1728 531 1600 
C 531 1472 646 1472 755 1472 
L 4218 1472 
z
" transform="scale(0.015625)"/>
        <path id="CMR17-31" d="M 1702 4058 
C 1702 4192 1696 4192 1606 4192 
C 1357 3916 979 3827 621 3827 
C 602 3827 570 3827 563 3808 
C 557 3795 557 3782 557 3648 
C 755 3648 1088 3686 1344 3839 
L 1344 461 
C 1344 236 1331 160 781 160 
L 589 160 
L 589 0 
C 896 0 1216 0 1523 0 
C 1830 0 2150 0 2458 0 
L 2458 160 
L 2266 160 
C 1715 160 1702 230 1702 458 
L 1702 4058 
z
" transform="scale(0.015625)"/>
        <path id="CMR17-32" d="M 2669 989 
L 2554 989 
C 2490 536 2438 459 2413 420 
C 2381 369 1920 369 1830 369 
L 602 369 
C 832 619 1280 1072 1824 1597 
C 2214 1967 2669 2402 2669 3035 
C 2669 3790 2067 4224 1395 4224 
C 691 4224 262 3604 262 3030 
C 262 2780 448 2748 525 2748 
C 589 2748 781 2787 781 3010 
C 781 3207 614 3264 525 3264 
C 486 3264 448 3258 422 3245 
C 544 3790 915 4058 1306 4058 
C 1862 4058 2227 3617 2227 3035 
C 2227 2479 1901 2000 1536 1584 
L 262 146 
L 262 0 
L 2515 0 
L 2669 989 
z
" transform="scale(0.015625)"/>
        <path id="CMMI12-3a" d="M 1178 307 
C 1178 492 1024 619 870 619 
C 685 619 557 466 557 313 
C 557 128 710 0 864 0 
C 1050 0 1178 153 1178 307 
z
" transform="scale(0.015625)"/>
        <path id="CMR17-35" d="M 730 3692 
C 794 3666 1056 3584 1325 3584 
C 1920 3584 2246 3911 2432 4100 
C 2432 4157 2432 4192 2394 4192 
C 2387 4192 2374 4192 2323 4163 
C 2099 4058 1837 3973 1517 3973 
C 1325 3973 1037 3999 723 4139 
C 653 4171 640 4171 634 4171 
C 602 4171 595 4164 595 4037 
L 595 2203 
C 595 2089 595 2057 659 2057 
C 691 2057 704 2070 736 2114 
C 941 2401 1222 2522 1542 2522 
C 1766 2522 2246 2382 2246 1289 
C 2246 1085 2246 715 2054 421 
C 1894 159 1645 25 1370 25 
C 947 25 518 320 403 814 
C 429 807 480 795 506 795 
C 589 795 749 840 749 1038 
C 749 1210 627 1280 506 1280 
C 358 1280 262 1190 262 1011 
C 262 454 704 -128 1382 -128 
C 2042 -128 2669 440 2669 1264 
C 2669 2030 2170 2624 1549 2624 
C 1222 2624 947 2503 730 2274 
L 730 3692 
z
" transform="scale(0.015625)"/>
       </defs>
       <use xlink:href="#CMSY10-0" transform="scale(0.996264)"/>
       <use xlink:href="#CMR17-31" transform="translate(77.487468 0) scale(0.996264)"/>
       <use xlink:href="#CMR17-32" transform="translate(123.177945 0) scale(0.996264)"/>
       <use xlink:href="#CMMI12-3a" transform="translate(168.868422 0) scale(0.996264)"/>
       <use xlink:href="#CMR17-35" transform="translate(195.965599 0) scale(0.996264)"/>
      </g>
     </g>
    </g>
    <g id="xtick_2">
     <g id="line2d_2">
      <path d="M 203.625261 279.936 
L 203.625261 41.472 
" clip-path="url(#p992ef91683)" style="fill: none; stroke: #ffffff; stroke-linecap: round"/>
     </g>
     <g id="text_2">
      <!-- $\mathdefault{−10.0}$ -->
      <g style="fill: #262626" transform="translate(182.925253 300.851505) scale(0.165 -0.165)">
       <defs>
        <path id="CMR17-30" d="M 2688 2025 
C 2688 2416 2682 3080 2413 3591 
C 2176 4039 1798 4198 1466 4198 
C 1158 4198 768 4058 525 3597 
C 269 3118 243 2524 243 2025 
C 243 1661 250 1106 448 619 
C 723 -39 1216 -128 1466 -128 
C 1760 -128 2208 -7 2470 600 
C 2662 1042 2688 1559 2688 2025 
z
M 1466 -26 
C 1056 -26 813 325 723 812 
C 653 1188 653 1738 653 2096 
C 653 2588 653 2997 736 3387 
C 858 3929 1216 4096 1466 4096 
C 1728 4096 2067 3923 2189 3400 
C 2272 3036 2278 2607 2278 2096 
C 2278 1680 2278 1169 2202 792 
C 2067 95 1690 -26 1466 -26 
z
" transform="scale(0.015625)"/>
       </defs>
       <use xlink:href="#CMSY10-0" transform="scale(0.996264)"/>
       <use xlink:href="#CMR17-31" transform="translate(77.487468 0) scale(0.996264)"/>
       <use xlink:href="#CMR17-30" transform="translate(123.177945 0) scale(0.996264)"/>
       <use xlink:href="#CMMI12-3a" transform="translate(168.868422 0) scale(0.996264)"/>
       <use xlink:href="#CMR17-30" transform="translate(195.965599 0) scale(0.996264)"/>
      </g>
     </g>
    </g>
    <g id="xtick_3">
     <g id="line2d_3">
      <path d="M 264.487192 279.936 
L 264.487192 41.472 
" clip-path="url(#p992ef91683)" style="fill: none; stroke: #ffffff; stroke-linecap: round"/>
     </g>
     <g id="text_3">
      <!-- $\mathdefault{−7.5}$ -->
      <g style="fill: #262626" transform="translate(247.811111 300.851505) scale(0.165 -0.165)">
       <defs>
        <path id="CMR17-37" d="M 2886 3941 
L 2886 4081 
L 1382 4081 
C 634 4081 621 4165 595 4288 
L 480 4288 
L 294 3094 
L 410 3094 
C 429 3215 474 3540 550 3661 
C 589 3712 1062 3712 1171 3712 
L 2579 3712 
L 1869 2661 
C 1395 1954 1069 999 1069 165 
C 1069 89 1069 -128 1299 -128 
C 1530 -128 1530 89 1530 171 
L 1530 465 
C 1530 1508 1709 2196 2003 2636 
L 2886 3941 
z
" transform="scale(0.015625)"/>
       </defs>
       <use xlink:href="#CMSY10-0" transform="scale(0.996264)"/>
       <use xlink:href="#CMR17-37" transform="translate(77.487468 0) scale(0.996264)"/>
       <use xlink:href="#CMMI12-3a" transform="translate(123.177945 0) scale(0.996264)"/>
       <use xlink:href="#CMR17-35" transform="translate(150.275122 0) scale(0.996264)"/>
      </g>
     </g>
    </g>
    <g id="xtick_4">
     <g id="line2d_4">
      <path d="M 325.349123 279.936 
L 325.349123 41.472 
" clip-path="url(#p992ef91683)" style="fill: none; stroke: #ffffff; stroke-linecap: round"/>
     </g>
     <g id="text_4">
      <!-- $\mathdefault{−5.0}$ -->
      <g style="fill: #262626" transform="translate(308.673042 300.851505) scale(0.165 -0.165)">
       <use xlink:href="#CMSY10-0" transform="scale(0.996264)"/>
       <use xlink:href="#CMR17-35" transform="translate(77.487468 0) scale(0.996264)"/>
       <use xlink:href="#CMMI12-3a" transform="translate(123.177945 0) scale(0.996264)"/>
       <use xlink:href="#CMR17-30" transform="translate(150.275122 0) scale(0.996264)"/>
      </g>
     </g>
    </g>
    <g id="xtick_5">
     <g id="line2d_5">
      <path d="M 386.211054 279.936 
L 386.211054 41.472 
" clip-path="url(#p992ef91683)" style="fill: none; stroke: #ffffff; stroke-linecap: round"/>
     </g>
     <g id="text_5">
      <!-- $\mathdefault{−2.5}$ -->
      <g style="fill: #262626" transform="translate(369.534973 300.851505) scale(0.165 -0.165)">
       <use xlink:href="#CMSY10-0" transform="scale(0.996264)"/>
       <use xlink:href="#CMR17-32" transform="translate(77.487468 0) scale(0.996264)"/>
       <use xlink:href="#CMMI12-3a" transform="translate(123.177945 0) scale(0.996264)"/>
       <use xlink:href="#CMR17-35" transform="translate(150.275122 0) scale(0.996264)"/>
      </g>
     </g>
    </g>
    <g id="text_6">
     <!-- loudness -->
     <g style="fill: #262626" transform="translate(228.608555 320.501132) scale(0.18 -0.18)">
      <defs>
       <path id="CMSS17-6c" d="M 947 4416 
L 474 4416 
L 474 0 
L 947 0 
L 947 4416 
z
" transform="scale(0.015625)"/>
       <path id="CMSS17-6f" d="M 2829 1356 
C 2829 2176 2221 2816 1504 2816 
C 768 2816 173 2157 173 1356 
C 173 544 787 -64 1498 -64 
C 2227 -64 2829 563 2829 1356 
z
M 1504 337 
C 1050 337 659 709 659 1408 
C 659 2151 1114 2427 1498 2427 
C 1914 2427 2342 2126 2342 1408 
C 2342 683 1926 337 1504 337 
z
" transform="scale(0.015625)"/>
       <path id="CMSS17-75" d="M 2618 2739 
L 2131 2739 
L 2131 972 
C 2131 498 1786 306 1421 306 
C 998 306 960 447 960 709 
L 960 2739 
L 474 2739 
L 474 678 
C 474 179 646 -64 1088 -64 
C 1306 -64 1798 -13 2144 306 
L 2144 0 
L 2618 0 
L 2618 2739 
z
" transform="scale(0.015625)"/>
       <path id="CMSS17-64" d="M 2611 4416 
L 2138 4416 
L 2138 2438 
C 1939 2603 1613 2756 1254 2756 
C 672 2756 211 2131 211 1347 
C 211 562 666 -64 1235 -64 
C 1677 -64 1971 172 2125 306 
L 2125 -13 
L 2611 -13 
L 2611 4416 
z
M 2125 836 
C 2125 747 2125 653 1926 482 
C 1798 375 1645 325 1498 325 
C 1152 325 698 576 698 1340 
C 698 2134 1210 2368 1562 2368 
C 1798 2368 1990 2254 2125 2065 
L 2125 836 
z
" transform="scale(0.015625)"/>
       <path id="CMSS17-6e" d="M 2618 1877 
C 2618 2283 2522 2816 1798 2816 
C 1389 2816 1120 2606 941 2389 
L 941 2758 
L 474 2758 
L 474 0 
L 960 0 
L 960 1559 
C 960 1964 1114 2428 1549 2428 
C 2112 2428 2131 2048 2131 1829 
L 2131 0 
L 2618 0 
L 2618 1877 
z
" transform="scale(0.015625)"/>
       <path id="CMSS17-65" d="M 2502 1377 
C 2502 1590 2490 2003 2285 2345 
C 2061 2713 1696 2816 1421 2816 
C 755 2816 192 2188 192 1375 
C 192 582 774 -64 1510 -64 
C 1798 -64 2150 19 2470 248 
C 2470 274 2458 414 2451 420 
C 2451 433 2432 630 2432 656 
C 2125 407 1773 325 1517 325 
C 1107 325 666 667 646 1377 
L 2502 1377 
z
M 698 1728 
C 781 2084 1062 2421 1421 2421 
C 1517 2421 1965 2421 2080 1728 
L 698 1728 
z
" transform="scale(0.015625)"/>
       <path id="CMSS17-73" d="M 2061 2627 
C 1683 2807 1389 2807 1197 2807 
C 742 2807 198 2648 198 2003 
C 198 1359 902 1218 1094 1179 
C 1389 1122 1715 1058 1715 740 
C 1715 337 1254 337 1171 337 
C 915 337 563 407 243 638 
L 166 210 
C 531 0 883 -64 1178 -64 
C 1965 -64 2163 416 2163 781 
C 2163 1094 1984 1305 1862 1401 
C 1651 1568 1574 1587 1050 1696 
C 960 1709 646 1779 646 2066 
C 646 2432 1050 2432 1139 2432 
C 1555 2432 1811 2303 1984 2208 
L 2061 2627 
z
" transform="scale(0.015625)"/>
      </defs>
      <use xlink:href="#CMSS17-6c" transform="scale(0.996264)"/>
      <use xlink:href="#CMSS17-6f" transform="translate(22.180723 0) scale(0.996264)"/>
      <use xlink:href="#CMSS17-75" transform="translate(69.024347 0) scale(0.996264)"/>
      <use xlink:href="#CMSS17-64" transform="translate(117.22929 0) scale(0.996264)"/>
      <use xlink:href="#CMSS17-6e" transform="translate(165.434233 0) scale(0.996264)"/>
      <use xlink:href="#CMSS17-65" transform="translate(213.639176 0) scale(0.996264)"/>
      <use xlink:href="#CMSS17-73" transform="translate(255.277998 0) scale(0.996264)"/>
      <use xlink:href="#CMSS17-73" transform="translate(291.19154 0) scale(0.996264)"/>
     </g>
    </g>
   </g>
   <g id="matplotlib.axis_2">
    <g id="ytick_1">
     <g id="line2d_6">
      <path d="M 101.376 247.457526 
L 414.72 247.457526 
" clip-path="url(#p992ef91683)" style="fill: none; stroke: #ffffff; stroke-linecap: round"/>
     </g>
     <g id="text_7">
      <!-- $\mathdefault{0.5}$ -->
      <g style="fill: #262626" transform="translate(71.309265 253.165278) scale(0.165 -0.165)">
       <use xlink:href="#CMR17-30" transform="scale(0.996264)"/>
       <use xlink:href="#CMMI12-3a" transform="translate(45.690477 0) scale(0.996264)"/>
       <use xlink:href="#CMR17-35" transform="translate(72.787654 0) scale(0.996264)"/>
      </g>
     </g>
    </g>
    <g id="ytick_2">
     <g id="line2d_7">
      <path d="M 101.376 208.113523 
L 414.72 208.113523 
" clip-path="url(#p992ef91683)" style="fill: none; stroke: #ffffff; stroke-linecap: round"/>
     </g>
     <g id="text_8">
      <!-- $\mathdefault{0.6}$ -->
      <g style="fill: #262626" transform="translate(71.309265 213.821276) scale(0.165 -0.165)">
       <defs>
        <path id="CMR17-36" d="M 678 2176 
C 678 3690 1395 4032 1811 4032 
C 1946 4032 2272 4009 2400 3776 
C 2298 3776 2106 3776 2106 3553 
C 2106 3381 2246 3323 2336 3323 
C 2394 3323 2566 3348 2566 3560 
C 2566 3954 2246 4179 1805 4179 
C 1043 4179 243 3390 243 1984 
C 243 253 966 -128 1478 -128 
C 2099 -128 2688 427 2688 1283 
C 2688 2081 2170 2662 1517 2662 
C 1126 2662 838 2407 678 1960 
L 678 2176 
z
M 1478 25 
C 691 25 691 1200 691 1436 
C 691 1896 909 2560 1504 2560 
C 1613 2560 1926 2560 2138 2120 
C 2253 1870 2253 1609 2253 1289 
C 2253 944 2253 690 2118 434 
C 1978 171 1773 25 1478 25 
z
" transform="scale(0.015625)"/>
       </defs>
       <use xlink:href="#CMR17-30" transform="scale(0.996264)"/>
       <use xlink:href="#CMMI12-3a" transform="translate(45.690477 0) scale(0.996264)"/>
       <use xlink:href="#CMR17-36" transform="translate(72.787654 0) scale(0.996264)"/>
      </g>
     </g>
    </g>
    <g id="ytick_3">
     <g id="line2d_8">
      <path d="M 101.376 168.769521 
L 414.72 168.769521 
" clip-path="url(#p992ef91683)" style="fill: none; stroke: #ffffff; stroke-linecap: round"/>
     </g>
     <g id="text_9">
      <!-- $\mathdefault{0.7}$ -->
      <g style="fill: #262626" transform="translate(71.309265 174.477273) scale(0.165 -0.165)">
       <use xlink:href="#CMR17-30" transform="scale(0.996264)"/>
       <use xlink:href="#CMMI12-3a" transform="translate(45.690477 0) scale(0.996264)"/>
       <use xlink:href="#CMR17-37" transform="translate(72.787654 0) scale(0.996264)"/>
      </g>
     </g>
    </g>
    <g id="ytick_4">
     <g id="line2d_9">
      <path d="M 101.376 129.425518 
L 414.72 129.425518 
" clip-path="url(#p992ef91683)" style="fill: none; stroke: #ffffff; stroke-linecap: round"/>
     </g>
     <g id="text_10">
      <!-- $\mathdefault{0.8}$ -->
      <g style="fill: #262626" transform="translate(71.309265 135.13327) scale(0.165 -0.165)">
       <defs>
        <path id="CMR17-38" d="M 1741 2264 
C 2144 2467 2554 2773 2554 3263 
C 2554 3841 1990 4179 1472 4179 
C 890 4179 378 3759 378 3180 
C 378 3021 416 2747 666 2505 
C 730 2442 998 2251 1171 2130 
C 883 1983 211 1634 211 934 
C 211 279 838 -128 1459 -128 
C 2144 -128 2720 362 2720 1010 
C 2720 1590 2330 1857 2074 2029 
L 1741 2264 
z
M 902 2822 
C 851 2854 595 3051 595 3351 
C 595 3739 998 4032 1459 4032 
C 1965 4032 2336 3676 2336 3262 
C 2336 2669 1670 2331 1638 2331 
C 1632 2331 1626 2331 1574 2370 
L 902 2822 
z
M 2080 1519 
C 2176 1449 2483 1240 2483 851 
C 2483 381 2010 25 1472 25 
C 890 25 448 438 448 940 
C 448 1443 838 1862 1280 2060 
L 2080 1519 
z
" transform="scale(0.015625)"/>
       </defs>
       <use xlink:href="#CMR17-30" transform="scale(0.996264)"/>
       <use xlink:href="#CMMI12-3a" transform="translate(45.690477 0) scale(0.996264)"/>
       <use xlink:href="#CMR17-38" transform="translate(72.787654 0) scale(0.996264)"/>
      </g>
     </g>
    </g>
    <g id="ytick_5">
     <g id="line2d_10">
      <path d="M 101.376 90.081515 
L 414.72 90.081515 
" clip-path="url(#p992ef91683)" style="fill: none; stroke: #ffffff; stroke-linecap: round"/>
     </g>
     <g id="text_11">
      <!-- $\mathdefault{0.9}$ -->
      <g style="fill: #262626" transform="translate(71.309265 95.789268) scale(0.165 -0.165)">
       <defs>
        <path id="CMR17-39" d="M 2253 1864 
C 2253 464 1670 31 1190 31 
C 1043 31 685 31 538 294 
C 704 268 826 357 826 518 
C 826 692 685 749 595 749 
C 538 749 365 723 365 506 
C 365 71 742 -128 1203 -128 
C 1939 -128 2688 674 2688 2073 
C 2688 3817 1971 4179 1485 4179 
C 851 4179 243 3628 243 2778 
C 243 1991 762 1408 1414 1408 
C 1952 1408 2189 1903 2253 2112 
L 2253 1864 
z
M 1427 1510 
C 1254 1510 1011 1542 813 1922 
C 678 2169 678 2461 678 2771 
C 678 3146 678 3405 858 3684 
C 947 3817 1114 4032 1485 4032 
C 2240 4032 2240 2885 2240 2632 
C 2240 2182 2035 1510 1427 1510 
z
" transform="scale(0.015625)"/>
       </defs>
       <use xlink:href="#CMR17-30" transform="scale(0.996264)"/>
       <use xlink:href="#CMMI12-3a" transform="translate(45.690477 0) scale(0.996264)"/>
       <use xlink:href="#CMR17-39" transform="translate(72.787654 0) scale(0.996264)"/>
      </g>
     </g>
    </g>
    <g id="ytick_6">
     <g id="line2d_11">
      <path d="M 101.376 50.737513 
L 414.72 50.737513 
" clip-path="url(#p992ef91683)" style="fill: none; stroke: #ffffff; stroke-linecap: round"/>
     </g>
     <g id="text_12">
      <!-- $\mathdefault{1.0}$ -->
      <g style="fill: #262626" transform="translate(71.309265 56.445265) scale(0.165 -0.165)">
       <use xlink:href="#CMR17-31" transform="scale(0.996264)"/>
       <use xlink:href="#CMMI12-3a" transform="translate(45.690477 0) scale(0.996264)"/>
       <use xlink:href="#CMR17-30" transform="translate(72.787654 0) scale(0.996264)"/>
      </g>
     </g>
    </g>
    <g id="text_13">
     <!-- energy -->
     <g style="fill: #262626" transform="translate(63.821201 183.495234) rotate(-90) scale(0.18 -0.18)">
      <defs>
       <path id="CMSS17-72" d="M 954 1363 
C 954 1965 1395 2368 1958 2368 
L 1958 2789 
C 1549 2789 1165 2585 934 2253 
L 934 2758 
L 480 2758 
L 480 0 
L 954 0 
L 954 1363 
z
" transform="scale(0.015625)"/>
       <path id="CMSS17-67" d="M 2848 2808 
C 2483 2808 2170 2738 1914 2617 
C 1702 2777 1485 2808 1338 2808 
C 781 2808 358 2349 358 1814 
C 358 1468 550 1207 563 1195 
C 448 1035 384 863 384 672 
C 384 448 474 289 544 200 
C 211 -3 166 -314 166 -435 
C 166 -898 749 -1280 1498 -1280 
C 2253 -1280 2835 -898 2835 -428 
C 2835 448 1856 448 1587 448 
L 1069 448 
C 973 448 717 448 717 791 
C 717 921 774 1004 781 1010 
C 877 940 1075 832 1338 832 
C 1869 832 2310 1278 2310 1827 
C 2310 2132 2170 2355 2112 2432 
L 2131 2432 
C 2150 2432 2419 2432 2515 2432 
C 2720 2432 2739 2429 2918 2419 
L 2848 2808 
z
M 1338 1182 
C 1120 1182 813 1315 813 1823 
C 813 2375 1165 2464 1331 2464 
C 1549 2464 1856 2331 1856 1823 
C 1856 1271 1504 1182 1338 1182 
z
M 1581 -10 
C 1734 -10 2381 -10 2381 -442 
C 2381 -714 1984 -929 1504 -929 
C 1018 -929 621 -720 621 -435 
C 621 -403 621 -10 1062 -10 
L 1581 -10 
z
" transform="scale(0.015625)"/>
       <path id="CMSS17-79" d="M 2675 2752 
L 2176 2752 
C 1632 1294 1446 702 1434 383 
L 1427 383 
C 1408 696 1126 1460 902 2007 
L 602 2752 
L 83 2752 
L 1216 13 
C 1146 -178 1043 -465 1011 -529 
C 870 -885 774 -885 672 -885 
C 646 -885 442 -885 211 -809 
L 250 -1229 
C 410 -1261 570 -1280 685 -1280 
C 845 -1280 1165 -1280 1459 -497 
L 2675 2752 
z
" transform="scale(0.015625)"/>
      </defs>
      <use xlink:href="#CMSS17-65" transform="scale(0.996264)"/>
      <use xlink:href="#CMSS17-6e" transform="translate(41.638822 0) scale(0.996264)"/>
      <use xlink:href="#CMSS17-65" transform="translate(89.843765 0) scale(0.996264)"/>
      <use xlink:href="#CMSS17-72" transform="translate(131.482587 0) scale(0.996264)"/>
      <use xlink:href="#CMSS17-67" transform="translate(163.39236 0) scale(0.996264)"/>
      <use xlink:href="#CMSS17-79" transform="translate(210.235983 0) scale(0.996264)"/>
     </g>
    </g>
   </g>
   <g id="PathCollection_1">
    <defs>
     <path id="m3d03734e0f" d="M 0 3 
C 0.795609 3 1.55874 2.683901 2.12132 2.12132 
C 2.683901 1.55874 3 0.795609 3 0 
C 3 -0.795609 2.683901 -1.55874 2.12132 -2.12132 
C 1.55874 -2.683901 0.795609 -3 0 -3 
C -0.795609 -3 -1.55874 -2.683901 -2.12132 -2.12132 
C -2.683901 -1.55874 -3 -0.795609 -3 0 
C -3 0.795609 -2.683901 1.55874 -2.12132 2.12132 
C -1.55874 2.683901 -0.795609 3 0 3 
z
" style="stroke: #1e90ff"/>
    </defs>
    <g clip-path="url(#p992ef91683)">
     <use xlink:href="#m3d03734e0f" x="332.603865" y="110.146957" style="fill: #1e90ff; stroke: #1e90ff"/>
     <use xlink:href="#m3d03734e0f" x="305.483789" y="58.999753" style="fill: #1e90ff; stroke: #1e90ff"/>
     <use xlink:href="#m3d03734e0f" x="294.11478" y="77.097994" style="fill: #1e90ff; stroke: #1e90ff"/>
     <use xlink:href="#m3d03734e0f" x="355.317538" y="54.278473" style="fill: #1e90ff; stroke: #1e90ff"/>
     <use xlink:href="#m3d03734e0f" x="340.369848" y="52.704713" style="fill: #1e90ff; stroke: #1e90ff"/>
     <use xlink:href="#m3d03734e0f" x="373.770876" y="66.081674" style="fill: #1e90ff; stroke: #1e90ff"/>
     <use xlink:href="#m3d03734e0f" x="341.903569" y="66.475114" style="fill: #1e90ff; stroke: #1e90ff"/>
     <use xlink:href="#m3d03734e0f" x="293.384437" y="79.852075" style="fill: #1e90ff; stroke: #1e90ff"/>
     <use xlink:href="#m3d03734e0f" x="282.3806" y="66.081674" style="fill: #1e90ff; stroke: #1e90ff"/>
     <use xlink:href="#m3d03734e0f" x="286.860038" y="73.950474" style="fill: #1e90ff; stroke: #1e90ff"/>
     <use xlink:href="#m3d03734e0f" x="224.610455" y="151.064719" style="fill: #1e90ff; stroke: #1e90ff"/>
     <use xlink:href="#m3d03734e0f" x="371.969362" y="62.934153" style="fill: #1e90ff; stroke: #1e90ff"/>
     <use xlink:href="#m3d03734e0f" x="309.184194" y="66.081674" style="fill: #1e90ff; stroke: #1e90ff"/>
     <use xlink:href="#m3d03734e0f" x="335.817375" y="55.852233" style="fill: #1e90ff; stroke: #1e90ff"/>
     <use xlink:href="#m3d03734e0f" x="210.904348" y="86.933995" style="fill: #1e90ff; stroke: #1e90ff"/>
     <use xlink:href="#m3d03734e0f" x="317.16928" y="100.704396" style="fill: #1e90ff; stroke: #1e90ff"/>
     <use xlink:href="#m3d03734e0f" x="351.933615" y="76.704554" style="fill: #1e90ff; stroke: #1e90ff"/>
     <use xlink:href="#m3d03734e0f" x="285.667144" y="75.130794" style="fill: #1e90ff; stroke: #1e90ff"/>
     <use xlink:href="#m3d03734e0f" x="237.099323" y="106.212556" style="fill: #1e90ff; stroke: #1e90ff"/>
     <use xlink:href="#m3d03734e0f" x="355.025401" y="52.704713" style="fill: #1e90ff; stroke: #1e90ff"/>
     <use xlink:href="#m3d03734e0f" x="374.769011" y="85.753675" style="fill: #1e90ff; stroke: #1e90ff"/>
     <use xlink:href="#m3d03734e0f" x="285.618455" y="68.835754" style="fill: #1e90ff; stroke: #1e90ff"/>
     <use xlink:href="#m3d03734e0f" x="325.251744" y="62.540713" style="fill: #1e90ff; stroke: #1e90ff"/>
     <use xlink:href="#m3d03734e0f" x="349.499138" y="84.966795" style="fill: #1e90ff; stroke: #1e90ff"/>
     <use xlink:href="#m3d03734e0f" x="363.448692" y="74.343914" style="fill: #1e90ff; stroke: #1e90ff"/>
     <use xlink:href="#m3d03734e0f" x="338.03275" y="82.212715" style="fill: #1e90ff; stroke: #1e90ff"/>
     <use xlink:href="#m3d03734e0f" x="365.907514" y="69.229194" style="fill: #1e90ff; stroke: #1e90ff"/>
     <use xlink:href="#m3d03734e0f" x="275.466685" y="119.589517" style="fill: #1e90ff; stroke: #1e90ff"/>
     <use xlink:href="#m3d03734e0f" x="314.053149" y="130.605838" style="fill: #1e90ff; stroke: #1e90ff"/>
     <use xlink:href="#m3d03734e0f" x="353.637749" y="187.654642" style="fill: #1e90ff; stroke: #1e90ff"/>
     <use xlink:href="#m3d03734e0f" x="275.831856" y="57.819433" style="fill: #1e90ff; stroke: #1e90ff"/>
     <use xlink:href="#m3d03734e0f" x="258.449689" y="86.147115" style="fill: #1e90ff; stroke: #1e90ff"/>
     <use xlink:href="#m3d03734e0f" x="326.907189" y="69.229194" style="fill: #1e90ff; stroke: #1e90ff"/>
     <use xlink:href="#m3d03734e0f" x="376.278387" y="68.048874" style="fill: #1e90ff; stroke: #1e90ff"/>
     <use xlink:href="#m3d03734e0f" x="275.466685" y="119.589517" style="fill: #1e90ff; stroke: #1e90ff"/>
     <use xlink:href="#m3d03734e0f" x="286.202729" y="157.7532" style="fill: #1e90ff; stroke: #1e90ff"/>
     <use xlink:href="#m3d03734e0f" x="252.120048" y="167.19576" style="fill: #1e90ff; stroke: #1e90ff"/>
     <use xlink:href="#m3d03734e0f" x="329.633803" y="115.655117" style="fill: #1e90ff; stroke: #1e90ff"/>
     <use xlink:href="#m3d03734e0f" x="225.340798" y="118.409197" style="fill: #1e90ff; stroke: #1e90ff"/>
     <use xlink:href="#m3d03734e0f" x="309.184194" y="66.081674" style="fill: #1e90ff; stroke: #1e90ff"/>
     <use xlink:href="#m3d03734e0f" x="288.199001" y="75.130794" style="fill: #1e90ff; stroke: #1e90ff"/>
     <use xlink:href="#m3d03734e0f" x="327.248016" y="55.458793" style="fill: #1e90ff; stroke: #1e90ff"/>
     <use xlink:href="#m3d03734e0f" x="332.896003" y="97.950316" style="fill: #1e90ff; stroke: #1e90ff"/>
     <use xlink:href="#m3d03734e0f" x="232.254714" y="130.605838" style="fill: #1e90ff; stroke: #1e90ff"/>
     <use xlink:href="#m3d03734e0f" x="282.697082" y="134.146798" style="fill: #1e90ff; stroke: #1e90ff"/>
     <use xlink:href="#m3d03734e0f" x="303.998758" y="90.868395" style="fill: #1e90ff; stroke: #1e90ff"/>
     <use xlink:href="#m3d03734e0f" x="339.712539" y="63.327593" style="fill: #1e90ff; stroke: #1e90ff"/>
     <use xlink:href="#m3d03734e0f" x="317.875278" y="115.655117" style="fill: #1e90ff; stroke: #1e90ff"/>
     <use xlink:href="#m3d03734e0f" x="381.244721" y="91.655275" style="fill: #1e90ff; stroke: #1e90ff"/>
     <use xlink:href="#m3d03734e0f" x="282.721427" y="89.688075" style="fill: #1e90ff; stroke: #1e90ff"/>
     <use xlink:href="#m3d03734e0f" x="395.948963" y="52.311273" style="fill: #1e90ff; stroke: #1e90ff"/>
     <use xlink:href="#m3d03734e0f" x="260.908511" y="92.048715" style="fill: #1e90ff; stroke: #1e90ff"/>
     <use xlink:href="#m3d03734e0f" x="341.514052" y="53.098153" style="fill: #1e90ff; stroke: #1e90ff"/>
     <use xlink:href="#m3d03734e0f" x="115.618909" y="269.096727" style="fill: #1e90ff; stroke: #1e90ff"/>
     <use xlink:href="#m3d03734e0f" x="230.769683" y="168.769521" style="fill: #1e90ff; stroke: #1e90ff"/>
     <use xlink:href="#m3d03734e0f" x="362.158419" y="73.950474" style="fill: #1e90ff; stroke: #1e90ff"/>
     <use xlink:href="#m3d03734e0f" x="267.335531" y="153.42536" style="fill: #1e90ff; stroke: #1e90ff"/>
     <use xlink:href="#m3d03734e0f" x="284.961146" y="96.376556" style="fill: #1e90ff; stroke: #1e90ff"/>
     <use xlink:href="#m3d03734e0f" x="400.477091" y="55.458793" style="fill: #1e90ff; stroke: #1e90ff"/>
     <use xlink:href="#m3d03734e0f" x="333.455932" y="55.852233" style="fill: #1e90ff; stroke: #1e90ff"/>
     <use xlink:href="#m3d03734e0f" x="303.998758" y="90.868395" style="fill: #1e90ff; stroke: #1e90ff"/>
     <use xlink:href="#m3d03734e0f" x="294.11478" y="81.425835" style="fill: #1e90ff; stroke: #1e90ff"/>
     <use xlink:href="#m3d03734e0f" x="300.006215" y="92.048715" style="fill: #1e90ff; stroke: #1e90ff"/>
     <use xlink:href="#m3d03734e0f" x="373.381359" y="52.311273" style="fill: #1e90ff; stroke: #1e90ff"/>
     <use xlink:href="#m3d03734e0f" x="342.341774" y="57.425993" style="fill: #1e90ff; stroke: #1e90ff"/>
     <use xlink:href="#m3d03734e0f" x="366.516133" y="62.934153" style="fill: #1e90ff; stroke: #1e90ff"/>
     <use xlink:href="#m3d03734e0f" x="288.272035" y="104.245356" style="fill: #1e90ff; stroke: #1e90ff"/>
     <use xlink:href="#m3d03734e0f" x="193.083975" y="195.916882" style="fill: #1e90ff; stroke: #1e90ff"/>
     <use xlink:href="#m3d03734e0f" x="364.836344" y="62.934153" style="fill: #1e90ff; stroke: #1e90ff"/>
     <use xlink:href="#m3d03734e0f" x="341.027157" y="59.393193" style="fill: #1e90ff; stroke: #1e90ff"/>
     <use xlink:href="#m3d03734e0f" x="345.141423" y="95.196236" style="fill: #1e90ff; stroke: #1e90ff"/>
     <use xlink:href="#m3d03734e0f" x="270.281248" y="132.966478" style="fill: #1e90ff; stroke: #1e90ff"/>
     <use xlink:href="#m3d03734e0f" x="279.970468" y="119.982957" style="fill: #1e90ff; stroke: #1e90ff"/>
     <use xlink:href="#m3d03734e0f" x="312.981979" y="65.294794" style="fill: #1e90ff; stroke: #1e90ff"/>
     <use xlink:href="#m3d03734e0f" x="240.994487" y="179.392401" style="fill: #1e90ff; stroke: #1e90ff"/>
     <use xlink:href="#m3d03734e0f" x="217.014886" y="143.982799" style="fill: #1e90ff; stroke: #1e90ff"/>
     <use xlink:href="#m3d03734e0f" x="320.772306" y="73.163594" style="fill: #1e90ff; stroke: #1e90ff"/>
     <use xlink:href="#m3d03734e0f" x="182.323585" y="132.573038" style="fill: #1e90ff; stroke: #1e90ff"/>
     <use xlink:href="#m3d03734e0f" x="340.491572" y="72.376714" style="fill: #1e90ff; stroke: #1e90ff"/>
     <use xlink:href="#m3d03734e0f" x="359.261391" y="68.442314" style="fill: #1e90ff; stroke: #1e90ff"/>
     <use xlink:href="#m3d03734e0f" x="271.10897" y="60.573513" style="fill: #1e90ff; stroke: #1e90ff"/>
     <use xlink:href="#m3d03734e0f" x="309.330263" y="130.212398" style="fill: #1e90ff; stroke: #1e90ff"/>
     <use xlink:href="#m3d03734e0f" x="347.941072" y="103.458476" style="fill: #1e90ff; stroke: #1e90ff"/>
     <use xlink:href="#m3d03734e0f" x="323.060715" y="56.245673" style="fill: #1e90ff; stroke: #1e90ff"/>
     <use xlink:href="#m3d03734e0f" x="351.130237" y="56.639113" style="fill: #1e90ff; stroke: #1e90ff"/>
     <use xlink:href="#m3d03734e0f" x="275.831856" y="57.819433" style="fill: #1e90ff; stroke: #1e90ff"/>
     <use xlink:href="#m3d03734e0f" x="382.754097" y="54.278473" style="fill: #1e90ff; stroke: #1e90ff"/>
     <use xlink:href="#m3d03734e0f" x="252.120048" y="167.19576" style="fill: #1e90ff; stroke: #1e90ff"/>
     <use xlink:href="#m3d03734e0f" x="230.769683" y="168.769521" style="fill: #1e90ff; stroke: #1e90ff"/>
     <use xlink:href="#m3d03734e0f" x="330.53456" y="87.327435" style="fill: #1e90ff; stroke: #1e90ff"/>
     <use xlink:href="#m3d03734e0f" x="366.370065" y="70.802954" style="fill: #1e90ff; stroke: #1e90ff"/>
     <use xlink:href="#m3d03734e0f" x="225.340798" y="118.409197" style="fill: #1e90ff; stroke: #1e90ff"/>
     <use xlink:href="#m3d03734e0f" x="320.626237" y="103.065036" style="fill: #1e90ff; stroke: #1e90ff"/>
     <use xlink:href="#m3d03734e0f" x="332.263039" y="65.688234" style="fill: #1e90ff; stroke: #1e90ff"/>
     <use xlink:href="#m3d03734e0f" x="267.335531" y="153.42536" style="fill: #1e90ff; stroke: #1e90ff"/>
     <use xlink:href="#m3d03734e0f" x="247.470196" y="76.704554" style="fill: #1e90ff; stroke: #1e90ff"/>
     <use xlink:href="#m3d03734e0f" x="314.345286" y="93.622475" style="fill: #1e90ff; stroke: #1e90ff"/>
     <use xlink:href="#m3d03734e0f" x="353.54037" y="145.556559" style="fill: #1e90ff; stroke: #1e90ff"/>
     <use xlink:href="#m3d03734e0f" x="317.972657" y="61.360393" style="fill: #1e90ff; stroke: #1e90ff"/>
     <use xlink:href="#m3d03734e0f" x="343.826806" y="67.261994" style="fill: #1e90ff; stroke: #1e90ff"/>
     <use xlink:href="#m3d03734e0f" x="280.579087" y="94.015916" style="fill: #1e90ff; stroke: #1e90ff"/>
     <use xlink:href="#m3d03734e0f" x="277.949851" y="116.441997" style="fill: #1e90ff; stroke: #1e90ff"/>
     <use xlink:href="#m3d03734e0f" x="349.547827" y="55.065353" style="fill: #1e90ff; stroke: #1e90ff"/>
     <use xlink:href="#m3d03734e0f" x="271.6689" y="84.179915" style="fill: #1e90ff; stroke: #1e90ff"/>
     <use xlink:href="#m3d03734e0f" x="242.28476" y="116.048557" style="fill: #1e90ff; stroke: #1e90ff"/>
     <use xlink:href="#m3d03734e0f" x="325.324779" y="84.573355" style="fill: #1e90ff; stroke: #1e90ff"/>
     <use xlink:href="#m3d03734e0f" x="115.618909" y="269.096727" style="fill: #1e90ff; stroke: #1e90ff"/>
     <use xlink:href="#m3d03734e0f" x="243.063793" y="83.786475" style="fill: #1e90ff; stroke: #1e90ff"/>
     <use xlink:href="#m3d03734e0f" x="232.790299" y="71.589834" style="fill: #1e90ff; stroke: #1e90ff"/>
     <use xlink:href="#m3d03734e0f" x="298.39946" y="106.212556" style="fill: #1e90ff; stroke: #1e90ff"/>
     <use xlink:href="#m3d03734e0f" x="153.694133" y="185.294002" style="fill: #1e90ff; stroke: #1e90ff"/>
     <use xlink:href="#m3d03734e0f" x="314.053149" y="97.950316" style="fill: #1e90ff; stroke: #1e90ff"/>
     <use xlink:href="#m3d03734e0f" x="262.856093" y="60.180073" style="fill: #1e90ff; stroke: #1e90ff"/>
     <use xlink:href="#m3d03734e0f" x="280.506053" y="65.688234" style="fill: #1e90ff; stroke: #1e90ff"/>
     <use xlink:href="#m3d03734e0f" x="375.012459" y="52.311273" style="fill: #1e90ff; stroke: #1e90ff"/>
     <use xlink:href="#m3d03734e0f" x="335.062687" y="86.933995" style="fill: #1e90ff; stroke: #1e90ff"/>
     <use xlink:href="#m3d03734e0f" x="208.688974" y="109.360077" style="fill: #1e90ff; stroke: #1e90ff"/>
     <use xlink:href="#m3d03734e0f" x="237.780977" y="224.638004" style="fill: #1e90ff; stroke: #1e90ff"/>
     <use xlink:href="#m3d03734e0f" x="340.710675" y="58.606313" style="fill: #1e90ff; stroke: #1e90ff"/>
     <use xlink:href="#m3d03734e0f" x="190.795566" y="202.998803" style="fill: #1e90ff; stroke: #1e90ff"/>
     <use xlink:href="#m3d03734e0f" x="352.93175" y="59.393193" style="fill: #1e90ff; stroke: #1e90ff"/>
     <use xlink:href="#m3d03734e0f" x="314.929561" y="71.983274" style="fill: #1e90ff; stroke: #1e90ff"/>
     <use xlink:href="#m3d03734e0f" x="308.283438" y="58.212873" style="fill: #1e90ff; stroke: #1e90ff"/>
     <use xlink:href="#m3d03734e0f" x="374.769011" y="85.753675" style="fill: #1e90ff; stroke: #1e90ff"/>
     <use xlink:href="#m3d03734e0f" x="374.209081" y="70.409514" style="fill: #1e90ff; stroke: #1e90ff"/>
    </g>
   </g>
   <g id="line2d_12">
    <path d="M 115.618909 111.023572 
L 115.618909 111.023572 
L 153.694133 106.837083 
L 182.323585 103.755585 
L 190.795566 102.814605 
L 193.083975 102.556508 
L 208.688974 100.739541 
L 210.904348 100.472194 
L 217.014886 99.720612 
L 224.610455 98.754558 
L 225.340798 98.659661 
L 225.340798 98.659661 
L 230.769683 97.942445 
L 230.769683 97.942445 
L 232.254714 97.742494 
L 232.790299 97.66997 
L 237.099323 97.078352 
L 237.780977 96.983405 
L 240.994487 96.530629 
L 242.28476 96.346382 
L 243.063793 96.234444 
L 247.470196 95.591205 
L 252.120048 94.893127 
L 252.120048 94.893127 
L 258.449689 93.909202 
L 260.908511 93.516025 
L 262.856093 93.20009 
L 267.335531 92.457881 
L 267.335531 92.457881 
L 270.281248 91.95763 
L 271.10897 91.815283 
L 271.6689 91.71854 
L 275.466685 91.052668 
L 275.466685 91.052668 
L 275.831856 90.987738 
L 275.831856 90.987738 
L 277.949851 90.607964 
L 279.970468 90.240527 
L 280.506053 90.142284 
L 280.579087 90.12886 
L 282.3806 89.795597 
L 282.697082 89.736627 
L 282.721427 89.732085 
L 284.961146 89.311022 
L 285.618455 89.186219 
L 285.667144 89.176952 
L 286.202729 89.07481 
L 286.860038 88.948941 
L 288.199001 88.690779 
L 288.272035 88.676629 
L 293.384437 87.668271 
L 294.11478 87.521302 
L 294.11478 87.521302 
L 298.39946 86.644018 
L 300.006215 86.308294 
L 303.998758 85.457775 
L 303.998758 85.457775 
L 305.483789 85.135396 
L 308.283438 84.518575 
L 309.184194 84.317574 
L 309.184194 84.317574 
L 309.330263 84.284861 
L 312.981979 83.456253 
L 314.053149 83.209215 
L 314.053149 83.209215 
L 314.345286 83.141525 
L 314.929561 83.005735 
L 317.16928 82.480125 
L 317.875278 82.312759 
L 317.972657 82.289611 
L 320.626237 81.652821 
L 320.772306 81.617431 
L 323.060715 81.058337 
L 325.251744 80.514771 
L 325.324779 80.496511 
L 326.907189 80.098649 
L 327.248016 80.012392 
L 329.633803 79.402954 
L 330.53456 79.170275 
L 332.263039 78.719778 
L 332.603865 78.630323 
L 332.896003 78.553482 
L 333.455932 78.405777 
L 335.062687 77.978808 
L 335.817375 77.776655 
L 338.03275 77.177254 
L 339.712539 76.71676 
L 340.369848 76.535146 
L 340.491572 76.501426 
L 340.710675 76.44066 
L 341.027157 76.352729 
L 341.514052 76.217084 
L 341.903569 76.10825 
L 342.341774 75.98547 
L 343.826806 75.566695 
L 345.141423 75.192488 
L 347.941072 74.384545 
L 349.499138 73.928345 
L 349.547827 73.914013 
L 351.130237 73.445681 
L 351.933615 73.206027 
L 352.93175 72.906497 
L 353.54037 72.722885 
L 353.637749 72.693438 
L 355.025401 72.271767 
L 355.317538 72.182502 
L 359.261391 70.960514 
L 362.158419 70.042579 
L 363.448692 69.628142 
L 364.836344 69.178534 
L 365.907514 68.828693 
L 366.370065 68.676873 
L 366.516133 68.628836 
L 371.969362 66.80271 
L 373.381359 66.319367 
L 373.770876 66.185262 
L 374.209081 66.033994 
L 374.769011 65.840092 
L 374.769011 65.840092 
L 375.012459 65.755571 
L 376.278387 65.313943 
L 381.244721 63.546772 
L 382.754097 62.998625 
L 395.948963 57.980661 
L 400.477091 56.162492 
" clip-path="url(#p992ef91683)" style="fill: none; stroke: #ff0000; stroke-width: 1.5; stroke-linecap: round"/>
   </g>
   <g id="patch_3">
    <path d="M 101.376 279.936 
L 101.376 41.472 
" style="fill: none; stroke: #ffffff; stroke-width: 1.25; stroke-linejoin: miter; stroke-linecap: square"/>
   </g>
   <g id="patch_4">
    <path d="M 414.72 279.936 
L 414.72 41.472 
" style="fill: none; stroke: #ffffff; stroke-width: 1.25; stroke-linejoin: miter; stroke-linecap: square"/>
   </g>
   <g id="patch_5">
    <path d="M 101.376 279.936 
L 414.72 279.936 
" style="fill: none; stroke: #ffffff; stroke-width: 1.25; stroke-linejoin: miter; stroke-linecap: square"/>
   </g>
   <g id="patch_6">
    <path d="M 101.376 41.472 
L 414.72 41.472 
" style="fill: none; stroke: #ffffff; stroke-width: 1.25; stroke-linejoin: miter; stroke-linecap: square"/>
   </g>
   <g id="text_14">
    <!-- Linear Regression for Metal Tracks -->
    <g style="fill: #262626" transform="translate(135.793335 35.472) scale(0.18 -0.18)">
     <defs>
      <path id="CMSS17-4c" d="M 1670 414 
C 1594 414 1517 414 1440 414 
L 1101 414 
L 1101 4416 
L 563 4416 
L 563 0 
L 3002 0 
L 3002 414 
L 1670 414 
z
" transform="scale(0.015625)"/>
      <path id="CMSS17-69" d="M 979 4183 
L 442 4183 
L 442 3648 
L 979 3648 
L 979 4183 
z
M 947 2739 
L 474 2739 
L 474 0 
L 947 0 
L 947 2739 
z
" transform="scale(0.015625)"/>
      <path id="CMSS17-61" d="M 2406 1791 
C 2406 2392 1978 2808 1402 2808 
C 1120 2808 813 2757 461 2553 
L 499 2135 
C 659 2248 934 2432 1395 2432 
C 1722 2432 1920 2180 1920 1782 
L 1920 1536 
C 896 1536 256 1238 256 726 
C 256 461 416 -64 947 -64 
C 1043 -64 1562 -64 1933 217 
L 1933 -19 
L 2406 -19 
L 2406 1791 
z
M 1920 816 
C 1920 701 1920 548 1728 434 
C 1562 325 1350 325 1261 325 
C 941 325 723 511 723 744 
C 723 1211 1722 1211 1920 1211 
L 1920 816 
z
" transform="scale(0.015625)"/>
      <path id="CMSS17-52" d="M 2522 2109 
L 2534 2115 
C 3533 2459 3539 3147 3539 3268 
C 3539 3873 2925 4453 2003 4453 
L 570 4453 
L 570 32 
L 1094 32 
L 1094 2048 
L 2035 2048 
L 3168 32 
L 3706 32 
L 2522 2109 
z
M 1094 2437 
L 1094 4096 
L 1933 4096 
C 2746 4096 3034 3637 3034 3267 
C 3034 2922 2778 2437 1933 2437 
L 1094 2437 
z
" transform="scale(0.015625)"/>
      <path id="CMSS17-66" d="M 1075 2368 
L 1722 2368 
L 1722 2737 
L 1062 2737 
L 1062 3559 
C 1062 4014 1408 4092 1606 4092 
C 1670 4092 1850 4092 2080 4009 
L 2080 4429 
C 1933 4461 1754 4480 1613 4480 
C 1018 4480 602 3993 602 3359 
L 602 2737 
L 160 2737 
L 160 2368 
L 602 2368 
L 602 0 
L 1075 0 
L 1075 2368 
z
" transform="scale(0.015625)"/>
      <path id="CMSS17-4d" d="M 3194 2371 
L 2886 1473 
C 2835 1307 2662 791 2624 587 
L 2618 587 
C 2598 715 2560 849 2458 1174 
C 2400 1365 2336 1562 2272 1741 
L 1325 4416 
L 576 4416 
L 576 0 
L 1075 0 
L 1075 3900 
L 1082 3900 
C 1082 3894 1139 3613 1530 2499 
L 2374 96 
L 2848 96 
L 3610 2231 
C 3661 2378 3821 2843 3891 3066 
C 3955 3257 4115 3728 4154 3913 
L 4160 3913 
L 4160 0 
L 4666 0 
L 4666 4416 
L 3923 4416 
L 3194 2371 
z
" transform="scale(0.015625)"/>
      <path id="CMSS17-74" d="M 1069 2368 
L 1901 2368 
L 1901 2737 
L 1069 2737 
L 1069 3520 
L 614 3520 
L 614 2737 
L 109 2737 
L 109 2368 
L 602 2368 
L 602 749 
C 602 384 685 -64 1107 -64 
C 1427 -64 1722 25 2003 172 
L 1901 548 
C 1747 414 1562 337 1363 337 
C 1082 337 1069 696 1069 856 
L 1069 2368 
z
" transform="scale(0.015625)"/>
      <path id="CMSS17-54" d="M 2317 3968 
L 2848 3968 
C 2925 3968 3002 3968 3078 3968 
L 3878 3968 
L 3878 4376 
L 218 4376 
L 218 3968 
L 1018 3968 
C 1094 3968 1171 3968 1248 3968 
L 1779 3968 
L 1779 -32 
L 2317 -32 
L 2317 3968 
z
" transform="scale(0.015625)"/>
      <path id="CMSS17-63" d="M 2464 2541 
C 2464 2585 2170 2714 2093 2739 
C 1882 2816 1613 2816 1542 2816 
C 710 2816 211 2093 211 1363 
C 211 595 768 -64 1517 -64 
C 1946 -64 2253 76 2502 242 
L 2464 664 
C 2189 453 1869 337 1523 337 
C 1024 337 698 774 698 1369 
C 698 1831 909 2414 1549 2414 
C 1901 2414 2099 2343 2394 2145 
L 2464 2541 
z
" transform="scale(0.015625)"/>
      <path id="CMSS17-6b" d="M 1696 1688 
L 2688 2739 
L 2074 2739 
L 954 1554 
L 954 4416 
L 480 4416 
L 480 0 
L 947 0 
L 947 892 
L 1376 1344 
L 2278 0 
L 2822 0 
L 1696 1688 
z
" transform="scale(0.015625)"/>
     </defs>
     <use xlink:href="#CMSS17-4c" transform="scale(0.996264)"/>
     <use xlink:href="#CMSS17-69" transform="translate(50.687105 0) scale(0.996264)"/>
     <use xlink:href="#CMSS17-6e" transform="translate(72.867828 0) scale(0.996264)"/>
     <use xlink:href="#CMSS17-65" transform="translate(121.072772 0) scale(0.996264)"/>
     <use xlink:href="#CMSS17-61" transform="translate(162.711594 0) scale(0.996264)"/>
     <use xlink:href="#CMSS17-72" transform="translate(205.03106 0) scale(0.996264)"/>
     <use xlink:href="#CMSS17-52" transform="translate(268.169946 0) scale(0.996264)"/>
     <use xlink:href="#CMSS17-65" transform="translate(328.5861 0) scale(0.996264)"/>
     <use xlink:href="#CMSS17-67" transform="translate(370.224923 0) scale(0.996264)"/>
     <use xlink:href="#CMSS17-72" transform="translate(417.068546 0) scale(0.996264)"/>
     <use xlink:href="#CMSS17-65" transform="translate(448.978319 0) scale(0.996264)"/>
     <use xlink:href="#CMSS17-73" transform="translate(490.617141 0) scale(0.996264)"/>
     <use xlink:href="#CMSS17-73" transform="translate(526.530683 0) scale(0.996264)"/>
     <use xlink:href="#CMSS17-69" transform="translate(562.444225 0) scale(0.996264)"/>
     <use xlink:href="#CMSS17-6f" transform="translate(584.624948 0) scale(0.996264)"/>
     <use xlink:href="#CMSS17-6e" transform="translate(631.468571 0) scale(0.996264)"/>
     <use xlink:href="#CMSS17-66" transform="translate(710.902627 0) scale(0.996264)"/>
     <use xlink:href="#CMSS17-6f" transform="translate(739.529286 0) scale(0.996264)"/>
     <use xlink:href="#CMSS17-72" transform="translate(783.770456 0) scale(0.996264)"/>
     <use xlink:href="#CMSS17-4d" transform="translate(846.909341 0) scale(0.996264)"/>
     <use xlink:href="#CMSS17-65" transform="translate(928.585371 0) scale(0.996264)"/>
     <use xlink:href="#CMSS17-74" transform="translate(970.224193 0) scale(0.996264)"/>
     <use xlink:href="#CMSS17-61" transform="translate(1004.05576 0) scale(0.996264)"/>
     <use xlink:href="#CMSS17-6c" transform="translate(1048.97768 0) scale(0.996264)"/>
     <use xlink:href="#CMSS17-54" transform="translate(1102.387516 0) scale(0.996264)"/>
     <use xlink:href="#CMSS17-72" transform="translate(1158.399714 0) scale(0.996264)"/>
     <use xlink:href="#CMSS17-61" transform="translate(1190.309487 0) scale(0.996264)"/>
     <use xlink:href="#CMSS17-63" transform="translate(1235.231408 0) scale(0.996264)"/>
     <use xlink:href="#CMSS17-6b" transform="translate(1276.87023 0) scale(0.996264)"/>
     <use xlink:href="#CMSS17-73" transform="translate(1322.472719 0) scale(0.996264)"/>
    </g>
   </g>
  </g>
 </g>
 <defs>
  <clipPath id="p992ef91683">
   <rect x="101.376" y="41.472" width="313.344" height="238.464"/>
  </clipPath>
 </defs>
</svg>
