<?xml version="1.0" encoding="utf-8" standalone="no"?>
<!DOCTYPE svg PUBLIC "-//W3C//DTD SVG 1.1//EN"
  "http://www.w3.org/Graphics/SVG/1.1/DTD/svg11.dtd">
<svg xmlns:xlink="http://www.w3.org/1999/xlink" width="460.8pt" height="345.6pt" viewBox="0 0 460.8 345.6" xmlns="http://www.w3.org/2000/svg" version="1.1">
 <metadata>
  <rdf:RDF xmlns:dc="http://purl.org/dc/elements/1.1/" xmlns:cc="http://creativecommons.org/ns#" xmlns:rdf="http://www.w3.org/1999/02/22-rdf-syntax-ns#">
   <cc:Work>
    <dc:type rdf:resource="http://purl.org/dc/dcmitype/StillImage"/>
    <dc:date>2023-04-27T16:32:25.205437</dc:date>
    <dc:format>image/svg+xml</dc:format>
    <dc:creator>
     <cc:Agent>
      <dc:title>Matplotlib v3.7.1, https://matplotlib.org/</dc:title>
     </cc:Agent>
    </dc:creator>
   </cc:Work>
  </rdf:RDF>
 </metadata>
 <defs>
  <style type="text/css">*{stroke-linejoin: round; stroke-linecap: butt}</style>
 </defs>
 <g id="figure_1">
  <g id="patch_1">
   <path d="M 0 345.6 
L 460.8 345.6 
L 460.8 0 
L 0 0 
z
" style="fill: #ffffff"/>
  </g>
  <g id="axes_1">
   <g id="patch_2">
    <path d="M 49.506735 248.316939 
L 441.36 248.316939 
L 441.36 37.8933 
L 49.506735 37.8933 
z
" style="fill: #eaeaf2"/>
   </g>
   <g id="matplotlib.axis_1">
    <g id="xtick_1">
     <g id="line2d_1">
      <path d="M 98.488393 248.316939 
L 98.488393 37.8933 
" clip-path="url(#p3ddd0f6432)" style="fill: none; stroke: #ffffff; stroke-linecap: round"/>
     </g>
     <g id="text_1">
      <!-- Logistic -->
      <g style="fill: #262626" transform="translate(72.739089 269.232444) scale(0.165 -0.165)">
       <defs>
        <path id="CMSS17-4c" d="M 1670 414 
C 1594 414 1517 414 1440 414 
L 1101 414 
L 1101 4416 
L 563 4416 
L 563 0 
L 3002 0 
L 3002 414 
L 1670 414 
z
" transform="scale(0.015625)"/>
        <path id="CMSS17-6f" d="M 2829 1356 
C 2829 2176 2221 2816 1504 2816 
C 768 2816 173 2157 173 1356 
C 173 544 787 -64 1498 -64 
C 2227 -64 2829 563 2829 1356 
z
M 1504 337 
C 1050 337 659 709 659 1408 
C 659 2151 1114 2427 1498 2427 
C 1914 2427 2342 2126 2342 1408 
C 2342 683 1926 337 1504 337 
z
" transform="scale(0.015625)"/>
        <path id="CMSS17-67" d="M 2848 2808 
C 2483 2808 2170 2738 1914 2617 
C 1702 2777 1485 2808 1338 2808 
C 781 2808 358 2349 358 1814 
C 358 1468 550 1207 563 1195 
C 448 1035 384 863 384 672 
C 384 448 474 289 544 200 
C 211 -3 166 -314 166 -435 
C 166 -898 749 -1280 1498 -1280 
C 2253 -1280 2835 -898 2835 -428 
C 2835 448 1856 448 1587 448 
L 1069 448 
C 973 448 717 448 717 791 
C 717 921 774 1004 781 1010 
C 877 940 1075 832 1338 832 
C 1869 832 2310 1278 2310 1827 
C 2310 2132 2170 2355 2112 2432 
L 2131 2432 
C 2150 2432 2419 2432 2515 2432 
C 2720 2432 2739 2429 2918 2419 
L 2848 2808 
z
M 1338 1182 
C 1120 1182 813 1315 813 1823 
C 813 2375 1165 2464 1331 2464 
C 1549 2464 1856 2331 1856 1823 
C 1856 1271 1504 1182 1338 1182 
z
M 1581 -10 
C 1734 -10 2381 -10 2381 -442 
C 2381 -714 1984 -929 1504 -929 
C 1018 -929 621 -720 621 -435 
C 621 -403 621 -10 1062 -10 
L 1581 -10 
z
" transform="scale(0.015625)"/>
        <path id="CMSS17-69" d="M 979 4183 
L 442 4183 
L 442 3648 
L 979 3648 
L 979 4183 
z
M 947 2739 
L 474 2739 
L 474 0 
L 947 0 
L 947 2739 
z
" transform="scale(0.015625)"/>
        <path id="CMSS17-73" d="M 2061 2627 
C 1683 2807 1389 2807 1197 2807 
C 742 2807 198 2648 198 2003 
C 198 1359 902 1218 1094 1179 
C 1389 1122 1715 1058 1715 740 
C 1715 337 1254 337 1171 337 
C 915 337 563 407 243 638 
L 166 210 
C 531 0 883 -64 1178 -64 
C 1965 -64 2163 416 2163 781 
C 2163 1094 1984 1305 1862 1401 
C 1651 1568 1574 1587 1050 1696 
C 960 1709 646 1779 646 2066 
C 646 2432 1050 2432 1139 2432 
C 1555 2432 1811 2303 1984 2208 
L 2061 2627 
z
" transform="scale(0.015625)"/>
        <path id="CMSS17-74" d="M 1069 2368 
L 1901 2368 
L 1901 2737 
L 1069 2737 
L 1069 3520 
L 614 3520 
L 614 2737 
L 109 2737 
L 109 2368 
L 602 2368 
L 602 749 
C 602 384 685 -64 1107 -64 
C 1427 -64 1722 25 2003 172 
L 1901 548 
C 1747 414 1562 337 1363 337 
C 1082 337 1069 696 1069 856 
L 1069 2368 
z
" transform="scale(0.015625)"/>
        <path id="CMSS17-63" d="M 2464 2541 
C 2464 2585 2170 2714 2093 2739 
C 1882 2816 1613 2816 1542 2816 
C 710 2816 211 2093 211 1363 
C 211 595 768 -64 1517 -64 
C 1946 -64 2253 76 2502 242 
L 2464 664 
C 2189 453 1869 337 1523 337 
C 1024 337 698 774 698 1369 
C 698 1831 909 2414 1549 2414 
C 1901 2414 2099 2343 2394 2145 
L 2464 2541 
z
" transform="scale(0.015625)"/>
       </defs>
       <use xlink:href="#CMSS17-4c" transform="scale(0.996264)"/>
       <use xlink:href="#CMSS17-6f" transform="translate(50.687105 0) scale(0.996264)"/>
       <use xlink:href="#CMSS17-67" transform="translate(97.530729 0) scale(0.996264)"/>
       <use xlink:href="#CMSS17-69" transform="translate(144.374352 0) scale(0.996264)"/>
       <use xlink:href="#CMSS17-73" transform="translate(166.555075 0) scale(0.996264)"/>
       <use xlink:href="#CMSS17-74" transform="translate(202.468617 0) scale(0.996264)"/>
       <use xlink:href="#CMSS17-69" transform="translate(236.300184 0) scale(0.996264)"/>
       <use xlink:href="#CMSS17-63" transform="translate(258.480907 0) scale(0.996264)"/>
      </g>
      <!-- Regression -->
      <g style="fill: #262626" transform="translate(63.180589 286.127376) scale(0.165 -0.165)">
       <defs>
        <path id="CMSS17-52" d="M 2522 2109 
L 2534 2115 
C 3533 2459 3539 3147 3539 3268 
C 3539 3873 2925 4453 2003 4453 
L 570 4453 
L 570 32 
L 1094 32 
L 1094 2048 
L 2035 2048 
L 3168 32 
L 3706 32 
L 2522 2109 
z
M 1094 2437 
L 1094 4096 
L 1933 4096 
C 2746 4096 3034 3637 3034 3267 
C 3034 2922 2778 2437 1933 2437 
L 1094 2437 
z
" transform="scale(0.015625)"/>
        <path id="CMSS17-65" d="M 2502 1377 
C 2502 1590 2490 2003 2285 2345 
C 2061 2713 1696 2816 1421 2816 
C 755 2816 192 2188 192 1375 
C 192 582 774 -64 1510 -64 
C 1798 -64 2150 19 2470 248 
C 2470 274 2458 414 2451 420 
C 2451 433 2432 630 2432 656 
C 2125 407 1773 325 1517 325 
C 1107 325 666 667 646 1377 
L 2502 1377 
z
M 698 1728 
C 781 2084 1062 2421 1421 2421 
C 1517 2421 1965 2421 2080 1728 
L 698 1728 
z
" transform="scale(0.015625)"/>
        <path id="CMSS17-72" d="M 954 1363 
C 954 1965 1395 2368 1958 2368 
L 1958 2789 
C 1549 2789 1165 2585 934 2253 
L 934 2758 
L 480 2758 
L 480 0 
L 954 0 
L 954 1363 
z
" transform="scale(0.015625)"/>
        <path id="CMSS17-6e" d="M 2618 1877 
C 2618 2283 2522 2816 1798 2816 
C 1389 2816 1120 2606 941 2389 
L 941 2758 
L 474 2758 
L 474 0 
L 960 0 
L 960 1559 
C 960 1964 1114 2428 1549 2428 
C 2112 2428 2131 2048 2131 1829 
L 2131 0 
L 2618 0 
L 2618 1877 
z
" transform="scale(0.015625)"/>
       </defs>
       <use xlink:href="#CMSS17-52" transform="scale(0.996264)"/>
       <use xlink:href="#CMSS17-65" transform="translate(60.416155 0) scale(0.996264)"/>
       <use xlink:href="#CMSS17-67" transform="translate(102.054977 0) scale(0.996264)"/>
       <use xlink:href="#CMSS17-72" transform="translate(148.8986 0) scale(0.996264)"/>
       <use xlink:href="#CMSS17-65" transform="translate(180.808373 0) scale(0.996264)"/>
       <use xlink:href="#CMSS17-73" transform="translate(222.447195 0) scale(0.996264)"/>
       <use xlink:href="#CMSS17-73" transform="translate(258.360737 0) scale(0.996264)"/>
       <use xlink:href="#CMSS17-69" transform="translate(294.274279 0) scale(0.996264)"/>
       <use xlink:href="#CMSS17-6f" transform="translate(316.455002 0) scale(0.996264)"/>
       <use xlink:href="#CMSS17-6e" transform="translate(363.298626 0) scale(0.996264)"/>
      </g>
     </g>
    </g>
    <g id="xtick_2">
     <g id="line2d_2">
      <path d="M 196.451709 248.316939 
L 196.451709 37.8933 
" clip-path="url(#p3ddd0f6432)" style="fill: none; stroke: #ffffff; stroke-linecap: round"/>
     </g>
     <g id="text_2">
      <!-- Linear -->
      <g style="fill: #262626" transform="translate(176.141854 269.232444) scale(0.165 -0.165)">
       <defs>
        <path id="CMSS17-61" d="M 2406 1791 
C 2406 2392 1978 2808 1402 2808 
C 1120 2808 813 2757 461 2553 
L 499 2135 
C 659 2248 934 2432 1395 2432 
C 1722 2432 1920 2180 1920 1782 
L 1920 1536 
C 896 1536 256 1238 256 726 
C 256 461 416 -64 947 -64 
C 1043 -64 1562 -64 1933 217 
L 1933 -19 
L 2406 -19 
L 2406 1791 
z
M 1920 816 
C 1920 701 1920 548 1728 434 
C 1562 325 1350 325 1261 325 
C 941 325 723 511 723 744 
C 723 1211 1722 1211 1920 1211 
L 1920 816 
z
" transform="scale(0.015625)"/>
       </defs>
       <use xlink:href="#CMSS17-4c" transform="scale(0.996264)"/>
       <use xlink:href="#CMSS17-69" transform="translate(50.687105 0) scale(0.996264)"/>
       <use xlink:href="#CMSS17-6e" transform="translate(72.867828 0) scale(0.996264)"/>
       <use xlink:href="#CMSS17-65" transform="translate(121.072772 0) scale(0.996264)"/>
       <use xlink:href="#CMSS17-61" transform="translate(162.711594 0) scale(0.996264)"/>
       <use xlink:href="#CMSS17-72" transform="translate(205.03106 0) scale(0.996264)"/>
      </g>
      <!-- Kernel -->
      <g style="fill: #262626" transform="translate(175.000292 286.127376) scale(0.165 -0.165)">
       <defs>
        <path id="CMSS17-4b" d="M 2234 2666 
L 3827 4416 
L 3213 4416 
L 1101 2106 
L 1101 4416 
L 563 4416 
L 563 0 
L 1101 0 
L 1101 1432 
L 1875 2278 
L 3315 0 
L 3910 0 
L 2234 2666 
z
" transform="scale(0.015625)"/>
        <path id="CMSS17-6c" d="M 947 4416 
L 474 4416 
L 474 0 
L 947 0 
L 947 4416 
z
" transform="scale(0.015625)"/>
       </defs>
       <use xlink:href="#CMSS17-4b" transform="scale(0.996264)"/>
       <use xlink:href="#CMSS17-65" transform="translate(64.820294 0) scale(0.996264)"/>
       <use xlink:href="#CMSS17-72" transform="translate(106.459116 0) scale(0.996264)"/>
       <use xlink:href="#CMSS17-6e" transform="translate(138.368888 0) scale(0.996264)"/>
       <use xlink:href="#CMSS17-65" transform="translate(186.573831 0) scale(0.996264)"/>
       <use xlink:href="#CMSS17-6c" transform="translate(228.212653 0) scale(0.996264)"/>
      </g>
      <!-- SVM -->
      <g style="fill: #262626" transform="translate(179.680586 303.022309) scale(0.165 -0.165)">
       <defs>
        <path id="CMSS17-53" d="M 2797 4169 
C 2515 4334 2208 4480 1690 4480 
C 864 4480 333 3879 333 3266 
C 333 3025 403 2753 653 2475 
C 902 2196 1184 2121 1542 2033 
C 1690 1994 1939 1924 1984 1906 
C 2342 1767 2515 1444 2515 1140 
C 2515 742 2202 318 1645 318 
C 1453 318 890 318 358 819 
L 269 318 
C 794 -64 1363 -128 1651 -128 
C 2438 -128 3002 488 3002 1186 
C 3002 1440 2925 1763 2656 2061 
C 2394 2347 2163 2410 1638 2549 
C 1338 2626 1146 2677 986 2873 
C 877 3013 819 3146 819 3317 
C 819 3673 1126 4060 1690 4060 
C 1971 4060 2336 4002 2707 3660 
L 2797 4169 
z
" transform="scale(0.015625)"/>
        <path id="CMSS17-56" d="M 3910 4416 
L 3411 4416 
L 2304 1362 
C 2272 1273 2074 688 2035 484 
L 2029 484 
C 1978 726 1773 1292 1664 1604 
L 922 3672 
L 646 4416 
L 83 4416 
L 1715 0 
L 2278 0 
L 3910 4416 
z
" transform="scale(0.015625)"/>
        <path id="CMSS17-4d" d="M 3194 2371 
L 2886 1473 
C 2835 1307 2662 791 2624 587 
L 2618 587 
C 2598 715 2560 849 2458 1174 
C 2400 1365 2336 1562 2272 1741 
L 1325 4416 
L 576 4416 
L 576 0 
L 1075 0 
L 1075 3900 
L 1082 3900 
C 1082 3894 1139 3613 1530 2499 
L 2374 96 
L 2848 96 
L 3610 2231 
C 3661 2378 3821 2843 3891 3066 
C 3955 3257 4115 3728 4154 3913 
L 4160 3913 
L 4160 0 
L 4666 0 
L 4666 4416 
L 3923 4416 
L 3194 2371 
z
" transform="scale(0.015625)"/>
       </defs>
       <use xlink:href="#CMSS17-53" transform="scale(0.996264)"/>
       <use xlink:href="#CMSS17-56" transform="translate(52.048516 0) scale(0.996264)"/>
       <use xlink:href="#CMSS17-4d" transform="translate(114.266371 0) scale(0.996264)"/>
      </g>
     </g>
    </g>
    <g id="xtick_3">
     <g id="line2d_3">
      <path d="M 294.415025 248.316939 
L 294.415025 37.8933 
" clip-path="url(#p3ddd0f6432)" style="fill: none; stroke: #ffffff; stroke-linecap: round"/>
     </g>
     <g id="text_3">
      <!-- kNN -->
      <g style="fill: #262626" transform="translate(279.227799 269.232444) scale(0.165 -0.165)">
       <defs>
        <path id="CMSS17-6b" d="M 1696 1688 
L 2688 2739 
L 2074 2739 
L 954 1554 
L 954 4416 
L 480 4416 
L 480 0 
L 947 0 
L 947 892 
L 1376 1344 
L 2278 0 
L 2822 0 
L 1696 1688 
z
" transform="scale(0.015625)"/>
        <path id="CMSS17-4e" d="M 1466 4180 
L 1350 4416 
L 563 4416 
L 563 0 
L 1062 0 
L 1062 3926 
L 1069 3932 
C 1114 3817 1139 3760 1402 3194 
L 2771 236 
L 2886 0 
L 3674 0 
L 3674 4416 
L 3174 4416 
L 3174 490 
L 3168 483 
C 3123 598 3098 655 2835 1221 
L 1466 4180 
z
" transform="scale(0.015625)"/>
       </defs>
       <use xlink:href="#CMSS17-6b" transform="scale(0.996264)"/>
       <use xlink:href="#CMSS17-4e" transform="translate(45.602489 0) scale(0.996264)"/>
       <use xlink:href="#CMSS17-4e" transform="translate(111.664008 0) scale(0.996264)"/>
      </g>
      <!-- Classifier -->
      <g style="fill: #262626" transform="translate(264.852963 286.127376) scale(0.165 -0.165)">
       <defs>
        <path id="CMSS17-43" d="M 3501 714 
C 3072 427 2874 344 2355 344 
C 1459 344 934 1303 934 2179 
C 934 3112 1472 4032 2381 4032 
C 2790 4032 3059 3918 3386 3715 
L 3475 4217 
C 3168 4370 2778 4440 2387 4440 
C 1158 4440 397 3316 397 2179 
C 397 927 1299 -64 2323 -64 
C 2874 -64 3066 -19 3539 280 
L 3501 714 
z
" transform="scale(0.015625)"/>
        <path id="CMSS17-c" d="M 2752 4416 
L 2240 4416 
L 2240 3906 
L 2752 3906 
L 2752 4416 
z
M 2733 2737 
L 2259 2737 
L 2259 0 
L 2733 0 
L 2733 2737 
z
M 1075 2368 
L 1773 2368 
L 1773 2737 
L 1062 2737 
L 1062 3578 
C 1062 3919 1216 4092 1421 4092 
C 1542 4092 1664 4056 1773 3992 
L 1773 4410 
C 1722 4428 1574 4480 1421 4480 
C 941 4480 602 3993 602 3372 
L 602 2737 
L 160 2737 
L 160 2368 
L 602 2368 
L 602 0 
L 1075 0 
L 1075 2368 
z
" transform="scale(0.015625)"/>
       </defs>
       <use xlink:href="#CMSS17-43" transform="scale(0.996264)"/>
       <use xlink:href="#CMSS17-6c" transform="translate(59.855772 0) scale(0.996264)"/>
       <use xlink:href="#CMSS17-61" transform="translate(82.036495 0) scale(0.996264)"/>
       <use xlink:href="#CMSS17-73" transform="translate(126.958415 0) scale(0.996264)"/>
       <use xlink:href="#CMSS17-73" transform="translate(162.871957 0) scale(0.996264)"/>
       <use xlink:href="#CMSS17-69" transform="translate(198.785499 0) scale(0.996264)"/>
       <use xlink:href="#CMSS17-c" transform="translate(220.966222 0) scale(0.996264)"/>
       <use xlink:href="#CMSS17-65" transform="translate(271.09296 0) scale(0.996264)"/>
       <use xlink:href="#CMSS17-72" transform="translate(312.731782 0) scale(0.996264)"/>
      </g>
     </g>
    </g>
    <g id="xtick_4">
     <g id="line2d_4">
      <path d="M 392.378342 248.316939 
L 392.378342 37.8933 
" clip-path="url(#p3ddd0f6432)" style="fill: none; stroke: #ffffff; stroke-linecap: round"/>
     </g>
     <g id="text_4">
      <!-- Random -->
      <g style="fill: #262626" transform="translate(364.700791 269.232444) scale(0.165 -0.165)">
       <defs>
        <path id="CMSS17-64" d="M 2611 4416 
L 2138 4416 
L 2138 2438 
C 1939 2603 1613 2756 1254 2756 
C 672 2756 211 2131 211 1347 
C 211 562 666 -64 1235 -64 
C 1677 -64 1971 172 2125 306 
L 2125 -13 
L 2611 -13 
L 2611 4416 
z
M 2125 836 
C 2125 747 2125 653 1926 482 
C 1798 375 1645 325 1498 325 
C 1152 325 698 576 698 1340 
C 698 2134 1210 2368 1562 2368 
C 1798 2368 1990 2254 2125 2065 
L 2125 836 
z
" transform="scale(0.015625)"/>
        <path id="CMSS17-6d" d="M 4288 1877 
C 4288 2308 4179 2816 3462 2816 
C 2982 2816 2694 2516 2566 2331 
C 2451 2670 2182 2816 1798 2816 
C 1363 2816 1088 2568 941 2389 
L 941 2758 
L 474 2758 
L 474 0 
L 960 0 
L 960 1559 
C 960 1939 1101 2428 1555 2428 
C 2138 2428 2138 2016 2138 1829 
L 2138 0 
L 2624 0 
L 2624 1559 
C 2624 1939 2765 2428 3219 2428 
C 3802 2428 3802 2016 3802 1829 
L 3802 0 
L 4288 0 
L 4288 1877 
z
" transform="scale(0.015625)"/>
       </defs>
       <use xlink:href="#CMSS17-52" transform="scale(0.996264)"/>
       <use xlink:href="#CMSS17-61" transform="translate(60.416155 0) scale(0.996264)"/>
       <use xlink:href="#CMSS17-6e" transform="translate(105.338075 0) scale(0.996264)"/>
       <use xlink:href="#CMSS17-64" transform="translate(153.543019 0) scale(0.996264)"/>
       <use xlink:href="#CMSS17-6f" transform="translate(201.747962 0) scale(0.996264)"/>
       <use xlink:href="#CMSS17-6d" transform="translate(248.591585 0) scale(0.996264)"/>
      </g>
      <!-- Forest -->
      <g style="fill: #262626" transform="translate(371.92768 286.127376) scale(0.165 -0.165)">
       <defs>
        <path id="CMSS17-46" d="M 2918 1984 
L 2918 2373 
L 1101 2373 
L 1101 3968 
L 1882 3968 
C 1958 3968 2035 3968 2112 3968 
L 3168 3968 
L 3168 4375 
L 563 4375 
L 563 -32 
L 1101 -32 
L 1101 1984 
L 2918 1984 
z
" transform="scale(0.015625)"/>
       </defs>
       <use xlink:href="#CMSS17-46" transform="scale(0.996264)"/>
       <use xlink:href="#CMSS17-6f" transform="translate(50.687105 0) scale(0.996264)"/>
       <use xlink:href="#CMSS17-72" transform="translate(94.928275 0) scale(0.996264)"/>
       <use xlink:href="#CMSS17-65" transform="translate(126.838048 0) scale(0.996264)"/>
       <use xlink:href="#CMSS17-73" transform="translate(168.47687 0) scale(0.996264)"/>
       <use xlink:href="#CMSS17-74" transform="translate(204.390412 0) scale(0.996264)"/>
      </g>
     </g>
    </g>
    <g id="text_5">
     <!-- Model -->
     <g style="fill: #262626" transform="translate(223.550196 322.671936) scale(0.18 -0.18)">
      <use xlink:href="#CMSS17-4d" transform="scale(0.996264)"/>
      <use xlink:href="#CMSS17-6f" transform="translate(81.67603 0) scale(0.996264)"/>
      <use xlink:href="#CMSS17-64" transform="translate(131.122092 0) scale(0.996264)"/>
      <use xlink:href="#CMSS17-65" transform="translate(179.327035 0) scale(0.996264)"/>
      <use xlink:href="#CMSS17-6c" transform="translate(220.965857 0) scale(0.996264)"/>
     </g>
    </g>
   </g>
   <g id="matplotlib.axis_2">
    <g id="ytick_1">
     <g id="line2d_5">
      <path d="M 49.506735 248.316939 
L 441.36 248.316939 
" clip-path="url(#p3ddd0f6432)" style="fill: none; stroke: #ffffff; stroke-linecap: round"/>
     </g>
     <g id="text_6">
      <!-- $\mathdefault{0.0}$ -->
      <g style="fill: #262626" transform="translate(19.44 254.024691) scale(0.165 -0.165)">
       <defs>
        <path id="CMR17-30" d="M 2688 2025 
C 2688 2416 2682 3080 2413 3591 
C 2176 4039 1798 4198 1466 4198 
C 1158 4198 768 4058 525 3597 
C 269 3118 243 2524 243 2025 
C 243 1661 250 1106 448 619 
C 723 -39 1216 -128 1466 -128 
C 1760 -128 2208 -7 2470 600 
C 2662 1042 2688 1559 2688 2025 
z
M 1466 -26 
C 1056 -26 813 325 723 812 
C 653 1188 653 1738 653 2096 
C 653 2588 653 2997 736 3387 
C 858 3929 1216 4096 1466 4096 
C 1728 4096 2067 3923 2189 3400 
C 2272 3036 2278 2607 2278 2096 
C 2278 1680 2278 1169 2202 792 
C 2067 95 1690 -26 1466 -26 
z
" transform="scale(0.015625)"/>
        <path id="CMMI12-3a" d="M 1178 307 
C 1178 492 1024 619 870 619 
C 685 619 557 466 557 313 
C 557 128 710 0 864 0 
C 1050 0 1178 153 1178 307 
z
" transform="scale(0.015625)"/>
       </defs>
       <use xlink:href="#CMR17-30" transform="scale(0.996264)"/>
       <use xlink:href="#CMMI12-3a" transform="translate(45.690477 0) scale(0.996264)"/>
       <use xlink:href="#CMR17-30" transform="translate(72.787654 0) scale(0.996264)"/>
      </g>
     </g>
    </g>
    <g id="ytick_2">
     <g id="line2d_6">
      <path d="M 49.506735 207.138145 
L 441.36 207.138145 
" clip-path="url(#p3ddd0f6432)" style="fill: none; stroke: #ffffff; stroke-linecap: round"/>
     </g>
     <g id="text_7">
      <!-- $\mathdefault{0.2}$ -->
      <g style="fill: #262626" transform="translate(19.44 212.845897) scale(0.165 -0.165)">
       <defs>
        <path id="CMR17-32" d="M 2669 989 
L 2554 989 
C 2490 536 2438 459 2413 420 
C 2381 369 1920 369 1830 369 
L 602 369 
C 832 619 1280 1072 1824 1597 
C 2214 1967 2669 2402 2669 3035 
C 2669 3790 2067 4224 1395 4224 
C 691 4224 262 3604 262 3030 
C 262 2780 448 2748 525 2748 
C 589 2748 781 2787 781 3010 
C 781 3207 614 3264 525 3264 
C 486 3264 448 3258 422 3245 
C 544 3790 915 4058 1306 4058 
C 1862 4058 2227 3617 2227 3035 
C 2227 2479 1901 2000 1536 1584 
L 262 146 
L 262 0 
L 2515 0 
L 2669 989 
z
" transform="scale(0.015625)"/>
       </defs>
       <use xlink:href="#CMR17-30" transform="scale(0.996264)"/>
       <use xlink:href="#CMMI12-3a" transform="translate(45.690477 0) scale(0.996264)"/>
       <use xlink:href="#CMR17-32" transform="translate(72.787654 0) scale(0.996264)"/>
      </g>
     </g>
    </g>
    <g id="ytick_3">
     <g id="line2d_7">
      <path d="M 49.506735 165.95935 
L 441.36 165.95935 
" clip-path="url(#p3ddd0f6432)" style="fill: none; stroke: #ffffff; stroke-linecap: round"/>
     </g>
     <g id="text_8">
      <!-- $\mathdefault{0.4}$ -->
      <g style="fill: #262626" transform="translate(19.44 171.667103) scale(0.165 -0.165)">
       <defs>
        <path id="CMR17-34" d="M 2150 4122 
C 2150 4256 2144 4256 2029 4256 
L 128 1254 
L 128 1088 
L 1779 1088 
L 1779 457 
C 1779 224 1766 160 1318 160 
L 1197 160 
L 1197 0 
C 1402 0 1747 0 1965 0 
C 2182 0 2528 0 2733 0 
L 2733 160 
L 2611 160 
C 2163 160 2150 224 2150 457 
L 2150 1088 
L 2803 1088 
L 2803 1254 
L 2150 1254 
L 2150 4122 
z
M 1798 3703 
L 1798 1254 
L 256 1254 
L 1798 3703 
z
" transform="scale(0.015625)"/>
       </defs>
       <use xlink:href="#CMR17-30" transform="scale(0.996264)"/>
       <use xlink:href="#CMMI12-3a" transform="translate(45.690477 0) scale(0.996264)"/>
       <use xlink:href="#CMR17-34" transform="translate(72.787654 0) scale(0.996264)"/>
      </g>
     </g>
    </g>
    <g id="ytick_4">
     <g id="line2d_8">
      <path d="M 49.506735 124.780556 
L 441.36 124.780556 
" clip-path="url(#p3ddd0f6432)" style="fill: none; stroke: #ffffff; stroke-linecap: round"/>
     </g>
     <g id="text_9">
      <!-- $\mathdefault{0.6}$ -->
      <g style="fill: #262626" transform="translate(19.44 130.488308) scale(0.165 -0.165)">
       <defs>
        <path id="CMR17-36" d="M 678 2176 
C 678 3690 1395 4032 1811 4032 
C 1946 4032 2272 4009 2400 3776 
C 2298 3776 2106 3776 2106 3553 
C 2106 3381 2246 3323 2336 3323 
C 2394 3323 2566 3348 2566 3560 
C 2566 3954 2246 4179 1805 4179 
C 1043 4179 243 3390 243 1984 
C 243 253 966 -128 1478 -128 
C 2099 -128 2688 427 2688 1283 
C 2688 2081 2170 2662 1517 2662 
C 1126 2662 838 2407 678 1960 
L 678 2176 
z
M 1478 25 
C 691 25 691 1200 691 1436 
C 691 1896 909 2560 1504 2560 
C 1613 2560 1926 2560 2138 2120 
C 2253 1870 2253 1609 2253 1289 
C 2253 944 2253 690 2118 434 
C 1978 171 1773 25 1478 25 
z
" transform="scale(0.015625)"/>
       </defs>
       <use xlink:href="#CMR17-30" transform="scale(0.996264)"/>
       <use xlink:href="#CMMI12-3a" transform="translate(45.690477 0) scale(0.996264)"/>
       <use xlink:href="#CMR17-36" transform="translate(72.787654 0) scale(0.996264)"/>
      </g>
     </g>
    </g>
    <g id="ytick_5">
     <g id="line2d_9">
      <path d="M 49.506735 83.601762 
L 441.36 83.601762 
" clip-path="url(#p3ddd0f6432)" style="fill: none; stroke: #ffffff; stroke-linecap: round"/>
     </g>
     <g id="text_10">
      <!-- $\mathdefault{0.8}$ -->
      <g style="fill: #262626" transform="translate(19.44 89.309514) scale(0.165 -0.165)">
       <defs>
        <path id="CMR17-38" d="M 1741 2264 
C 2144 2467 2554 2773 2554 3263 
C 2554 3841 1990 4179 1472 4179 
C 890 4179 378 3759 378 3180 
C 378 3021 416 2747 666 2505 
C 730 2442 998 2251 1171 2130 
C 883 1983 211 1634 211 934 
C 211 279 838 -128 1459 -128 
C 2144 -128 2720 362 2720 1010 
C 2720 1590 2330 1857 2074 2029 
L 1741 2264 
z
M 902 2822 
C 851 2854 595 3051 595 3351 
C 595 3739 998 4032 1459 4032 
C 1965 4032 2336 3676 2336 3262 
C 2336 2669 1670 2331 1638 2331 
C 1632 2331 1626 2331 1574 2370 
L 902 2822 
z
M 2080 1519 
C 2176 1449 2483 1240 2483 851 
C 2483 381 2010 25 1472 25 
C 890 25 448 438 448 940 
C 448 1443 838 1862 1280 2060 
L 2080 1519 
z
" transform="scale(0.015625)"/>
       </defs>
       <use xlink:href="#CMR17-30" transform="scale(0.996264)"/>
       <use xlink:href="#CMMI12-3a" transform="translate(45.690477 0) scale(0.996264)"/>
       <use xlink:href="#CMR17-38" transform="translate(72.787654 0) scale(0.996264)"/>
      </g>
     </g>
    </g>
    <g id="ytick_6">
     <g id="line2d_10">
      <path d="M 49.506735 42.422967 
L 441.36 42.422967 
" clip-path="url(#p3ddd0f6432)" style="fill: none; stroke: #ffffff; stroke-linecap: round"/>
     </g>
     <g id="text_11">
      <!-- $\mathdefault{1.0}$ -->
      <g style="fill: #262626" transform="translate(19.44 48.13072) scale(0.165 -0.165)">
       <defs>
        <path id="CMR17-31" d="M 1702 4058 
C 1702 4192 1696 4192 1606 4192 
C 1357 3916 979 3827 621 3827 
C 602 3827 570 3827 563 3808 
C 557 3795 557 3782 557 3648 
C 755 3648 1088 3686 1344 3839 
L 1344 461 
C 1344 236 1331 160 781 160 
L 589 160 
L 589 0 
C 896 0 1216 0 1523 0 
C 1830 0 2150 0 2458 0 
L 2458 160 
L 2266 160 
C 1715 160 1702 230 1702 458 
L 1702 4058 
z
" transform="scale(0.015625)"/>
       </defs>
       <use xlink:href="#CMR17-31" transform="scale(0.996264)"/>
       <use xlink:href="#CMMI12-3a" transform="translate(45.690477 0) scale(0.996264)"/>
       <use xlink:href="#CMR17-30" transform="translate(72.787654 0) scale(0.996264)"/>
      </g>
     </g>
    </g>
   </g>
   <g id="patch_3">
    <path d="M 73.997564 248.316939 
L 98.488393 248.316939 
L 98.488393 102.818532 
L 73.997564 102.818532 
z
" clip-path="url(#p3ddd0f6432)" style="fill: #4c72b0; stroke: #ffffff; stroke-linejoin: miter"/>
   </g>
   <g id="patch_4">
    <path d="M 171.96088 248.316939 
L 196.451709 248.316939 
L 196.451709 55.234148 
L 171.96088 55.234148 
z
" clip-path="url(#p3ddd0f6432)" style="fill: #4c72b0; stroke: #ffffff; stroke-linejoin: miter"/>
   </g>
   <g id="patch_5">
    <path d="M 269.924196 248.316939 
L 294.415025 248.316939 
L 294.415025 62.554822 
L 269.924196 62.554822 
z
" clip-path="url(#p3ddd0f6432)" style="fill: #4c72b0; stroke: #ffffff; stroke-linejoin: miter"/>
   </g>
   <g id="patch_6">
    <path d="M 367.887513 248.316939 
L 392.378342 248.316939 
L 392.378342 47.913473 
L 367.887513 47.913473 
z
" clip-path="url(#p3ddd0f6432)" style="fill: #4c72b0; stroke: #ffffff; stroke-linejoin: miter"/>
   </g>
   <g id="patch_7">
    <path d="M 98.488393 248.316939 
L 122.979222 248.316939 
L 122.979222 117.087814 
L 98.488393 117.087814 
z
" clip-path="url(#p3ddd0f6432)" style="fill: #dd8452; stroke: #ffffff; stroke-linejoin: miter"/>
   </g>
   <g id="patch_8">
    <path d="M 196.451709 248.316939 
L 220.942538 248.316939 
L 220.942538 57.43607 
L 196.451709 57.43607 
z
" clip-path="url(#p3ddd0f6432)" style="fill: #dd8452; stroke: #ffffff; stroke-linejoin: miter"/>
   </g>
   <g id="patch_9">
    <path d="M 294.415025 248.316939 
L 318.905855 248.316939 
L 318.905855 65.533515 
L 294.415025 65.533515 
z
" clip-path="url(#p3ddd0f6432)" style="fill: #dd8452; stroke: #ffffff; stroke-linejoin: miter"/>
   </g>
   <g id="patch_10">
    <path d="M 392.378342 248.316939 
L 416.869171 248.316939 
L 416.869171 48.725844 
L 392.378342 48.725844 
z
" clip-path="url(#p3ddd0f6432)" style="fill: #dd8452; stroke: #ffffff; stroke-linejoin: miter"/>
   </g>
   <g id="patch_11">
    <path d="M 49.506735 248.316939 
L 49.506735 37.8933 
" style="fill: none; stroke: #ffffff; stroke-width: 1.25; stroke-linejoin: miter; stroke-linecap: square"/>
   </g>
   <g id="patch_12">
    <path d="M 441.36 248.316939 
L 441.36 37.8933 
" style="fill: none; stroke: #ffffff; stroke-width: 1.25; stroke-linejoin: miter; stroke-linecap: square"/>
   </g>
   <g id="patch_13">
    <path d="M 49.506735 248.316939 
L 441.36 248.316939 
" style="fill: none; stroke: #ffffff; stroke-width: 1.25; stroke-linejoin: miter; stroke-linecap: square"/>
   </g>
   <g id="patch_14">
    <path d="M 49.506735 37.8933 
L 441.36 37.8933 
" style="fill: none; stroke: #ffffff; stroke-width: 1.25; stroke-linejoin: miter; stroke-linecap: square"/>
   </g>
   <g id="text_12">
    <!-- ML Models Comparison -->
    <g style="fill: #262626" transform="translate(161.698583 31.8933) scale(0.18 -0.18)">
     <defs>
      <path id="CMSS17-70" d="M 966 333 
C 1178 129 1466 -5 1773 -5 
C 2368 -5 2880 603 2880 1412 
C 2880 2159 2496 2816 1946 2816 
C 1626 2816 1242 2702 954 2472 
L 954 2765 
L 480 2765 
L 480 -1216 
L 966 -1216 
L 966 333 
z
M 966 2100 
C 1018 2176 1235 2415 1587 2415 
C 2035 2415 2394 1960 2394 1412 
C 2394 787 1958 384 1530 384 
C 1402 384 1267 415 1139 523 
C 966 674 966 768 966 857 
L 966 2100 
z
" transform="scale(0.015625)"/>
     </defs>
     <use xlink:href="#CMSS17-4d" transform="scale(0.996264)"/>
     <use xlink:href="#CMSS17-4c" transform="translate(81.67603 0) scale(0.996264)"/>
     <use xlink:href="#CMSS17-4d" transform="translate(163.592248 0) scale(0.996264)"/>
     <use xlink:href="#CMSS17-6f" transform="translate(245.268278 0) scale(0.996264)"/>
     <use xlink:href="#CMSS17-64" transform="translate(294.71434 0) scale(0.996264)"/>
     <use xlink:href="#CMSS17-65" transform="translate(342.919283 0) scale(0.996264)"/>
     <use xlink:href="#CMSS17-6c" transform="translate(384.558105 0) scale(0.996264)"/>
     <use xlink:href="#CMSS17-73" transform="translate(406.738829 0) scale(0.996264)"/>
     <use xlink:href="#CMSS17-43" transform="translate(473.881483 0) scale(0.996264)"/>
     <use xlink:href="#CMSS17-6f" transform="translate(533.737255 0) scale(0.996264)"/>
     <use xlink:href="#CMSS17-6d" transform="translate(580.580878 0) scale(0.996264)"/>
     <use xlink:href="#CMSS17-70" transform="translate(654.810133 0) scale(0.996264)"/>
     <use xlink:href="#CMSS17-61" transform="translate(703.015076 0) scale(0.996264)"/>
     <use xlink:href="#CMSS17-72" transform="translate(745.334543 0) scale(0.996264)"/>
     <use xlink:href="#CMSS17-69" transform="translate(777.244315 0) scale(0.996264)"/>
     <use xlink:href="#CMSS17-73" transform="translate(799.425038 0) scale(0.996264)"/>
     <use xlink:href="#CMSS17-6f" transform="translate(835.33858 0) scale(0.996264)"/>
     <use xlink:href="#CMSS17-6e" transform="translate(882.182204 0) scale(0.996264)"/>
    </g>
   </g>
   <g id="legend_1">
    <g id="patch_15">
     <path d="M 61.056735 97.085954 
L 174.74834 97.085954 
Q 178.04834 97.085954 178.04834 93.785954 
L 178.04834 49.4433 
Q 178.04834 46.1433 174.74834 46.1433 
L 61.056735 46.1433 
Q 57.756735 46.1433 57.756735 49.4433 
L 57.756735 93.785954 
Q 57.756735 97.085954 61.056735 97.085954 
z
" style="fill: #eaeaf2; opacity: 0.8; stroke: #cccccc; stroke-linejoin: miter"/>
    </g>
    <g id="patch_16">
     <path d="M 64.356735 64.2933 
L 97.356735 64.2933 
L 97.356735 52.7433 
L 64.356735 52.7433 
z
" style="fill: #4c72b0; stroke: #ffffff; stroke-linejoin: miter"/>
    </g>
    <g id="text_13">
     <!-- Accuracy -->
     <g style="fill: #262626" transform="translate(110.556735 64.2933) scale(0.165 -0.165)">
      <defs>
       <path id="CMSS17-41" d="M 2272 4416 
L 1722 4416 
L 166 0 
L 653 0 
L 1101 1280 
L 2816 1280 
L 3270 0 
L 3827 0 
L 2272 4416 
z
M 2694 1637 
L 1222 1637 
C 1530 2528 1914 3638 1958 3925 
L 1965 3925 
C 2010 3663 2138 3281 2246 2956 
L 2694 1637 
z
" transform="scale(0.015625)"/>
       <path id="CMSS17-75" d="M 2618 2739 
L 2131 2739 
L 2131 972 
C 2131 498 1786 306 1421 306 
C 998 306 960 447 960 709 
L 960 2739 
L 474 2739 
L 474 678 
C 474 179 646 -64 1088 -64 
C 1306 -64 1798 -13 2144 306 
L 2144 0 
L 2618 0 
L 2618 2739 
z
" transform="scale(0.015625)"/>
       <path id="CMSS17-79" d="M 2675 2752 
L 2176 2752 
C 1632 1294 1446 702 1434 383 
L 1427 383 
C 1408 696 1126 1460 902 2007 
L 602 2752 
L 83 2752 
L 1216 13 
C 1146 -178 1043 -465 1011 -529 
C 870 -885 774 -885 672 -885 
C 646 -885 442 -885 211 -809 
L 250 -1229 
C 410 -1261 570 -1280 685 -1280 
C 845 -1280 1165 -1280 1459 -497 
L 2675 2752 
z
" transform="scale(0.015625)"/>
      </defs>
      <use xlink:href="#CMSS17-41" transform="scale(0.996264)"/>
      <use xlink:href="#CMSS17-63" transform="translate(62.217855 0) scale(0.996264)"/>
      <use xlink:href="#CMSS17-63" transform="translate(103.856677 0) scale(0.996264)"/>
      <use xlink:href="#CMSS17-75" transform="translate(145.495499 0) scale(0.996264)"/>
      <use xlink:href="#CMSS17-72" transform="translate(193.700442 0) scale(0.996264)"/>
      <use xlink:href="#CMSS17-61" transform="translate(225.610215 0) scale(0.996264)"/>
      <use xlink:href="#CMSS17-63" transform="translate(270.532135 0) scale(0.996264)"/>
      <use xlink:href="#CMSS17-79" transform="translate(312.170957 0) scale(0.996264)"/>
     </g>
    </g>
    <g id="patch_17">
     <path d="M 64.356735 87.289627 
L 97.356735 87.289627 
L 97.356735 75.739627 
L 64.356735 75.739627 
z
" style="fill: #dd8452; stroke: #ffffff; stroke-linejoin: miter"/>
    </g>
    <g id="text_14">
     <!-- F1 Score -->
     <g style="fill: #262626" transform="translate(110.556735 87.289627) scale(0.165 -0.165)">
      <defs>
       <path id="CMSS17-31" d="M 1818 4288 
L 1696 4288 
C 1350 3940 947 3890 538 3890 
L 538 3520 
C 723 3520 1024 3520 1325 3667 
L 1325 369 
L 570 369 
L 570 0 
L 2573 0 
L 2573 369 
L 1818 369 
L 1818 4288 
z
" transform="scale(0.015625)"/>
      </defs>
      <use xlink:href="#CMSS17-46" transform="scale(0.996264)"/>
      <use xlink:href="#CMSS17-31" transform="translate(53.289559 0) scale(0.996264)"/>
      <use xlink:href="#CMSS17-53" transform="translate(131.362296 0) scale(0.996264)"/>
      <use xlink:href="#CMSS17-63" transform="translate(183.410812 0) scale(0.996264)"/>
      <use xlink:href="#CMSS17-6f" transform="translate(225.049634 0) scale(0.996264)"/>
      <use xlink:href="#CMSS17-72" transform="translate(269.290803 0) scale(0.996264)"/>
      <use xlink:href="#CMSS17-65" transform="translate(301.200576 0) scale(0.996264)"/>
     </g>
    </g>
   </g>
  </g>
 </g>
 <defs>
  <clipPath id="p3ddd0f6432">
   <rect x="49.506735" y="37.8933" width="391.853265" height="210.423639"/>
  </clipPath>
 </defs>
</svg>
