<?xml version="1.0" encoding="utf-8" standalone="no"?>
<!DOCTYPE svg PUBLIC "-//W3C//DTD SVG 1.1//EN"
  "http://www.w3.org/Graphics/SVG/1.1/DTD/svg11.dtd">
<svg xmlns:xlink="http://www.w3.org/1999/xlink" width="382.977048pt" height="280.512pt" viewBox="0 0 382.977048 280.512" xmlns="http://www.w3.org/2000/svg" version="1.1">
 <metadata>
  <rdf:RDF xmlns:dc="http://purl.org/dc/elements/1.1/" xmlns:cc="http://creativecommons.org/ns#" xmlns:rdf="http://www.w3.org/1999/02/22-rdf-syntax-ns#">
   <cc:Work>
    <dc:type rdf:resource="http://purl.org/dc/dcmitype/StillImage"/>
    <dc:date>2023-04-05T12:09:45.249050</dc:date>
    <dc:format>image/svg+xml</dc:format>
    <dc:creator>
     <cc:Agent>
      <dc:title>Matplotlib v3.7.1, https://matplotlib.org/</dc:title>
     </cc:Agent>
    </dc:creator>
   </cc:Work>
  </rdf:RDF>
 </metadata>
 <defs>
  <style type="text/css">*{stroke-linejoin: round; stroke-linecap: butt}</style>
 </defs>
 <g id="figure_1">
  <g id="patch_1">
   <path d="M 0 280.512 
L 382.977048 280.512 
L 382.977048 0 
L 0 0 
z
" style="fill: #ffffff"/>
  </g>
  <g id="axes_1">
   <g id="table_1">
    <g id="patch_2">
     <path d="M 18.657048 128.256 
L 63.297048 128.256 
L 63.297048 116.256 
L 18.657048 116.256 
z
" style="fill: #ffffff; stroke: #1a1a1a; stroke-linejoin: miter"/>
    </g>
    <g id="text_1">
     <!-- f1_mean -->
     <g style="fill: #262626" transform="translate(24.032222 124.74666) scale(0.1 -0.1)">
      <defs>
       <path id="CMSS17-66" d="M 1075 2368 
L 1722 2368 
L 1722 2737 
L 1062 2737 
L 1062 3559 
C 1062 4014 1408 4092 1606 4092 
C 1670 4092 1850 4092 2080 4009 
L 2080 4429 
C 1933 4461 1754 4480 1613 4480 
C 1018 4480 602 3993 602 3359 
L 602 2737 
L 160 2737 
L 160 2368 
L 602 2368 
L 602 0 
L 1075 0 
L 1075 2368 
z
" transform="scale(0.015625)"/>
       <path id="CMSS17-31" d="M 1818 4288 
L 1696 4288 
C 1350 3940 947 3890 538 3890 
L 538 3520 
C 723 3520 1024 3520 1325 3667 
L 1325 369 
L 570 369 
L 570 0 
L 2573 0 
L 2573 369 
L 1818 369 
L 1818 4288 
z
" transform="scale(0.015625)"/>
       <path id="CMSS17-6d" d="M 4288 1877 
C 4288 2308 4179 2816 3462 2816 
C 2982 2816 2694 2516 2566 2331 
C 2451 2670 2182 2816 1798 2816 
C 1363 2816 1088 2568 941 2389 
L 941 2758 
L 474 2758 
L 474 0 
L 960 0 
L 960 1559 
C 960 1939 1101 2428 1555 2428 
C 2138 2428 2138 2016 2138 1829 
L 2138 0 
L 2624 0 
L 2624 1559 
C 2624 1939 2765 2428 3219 2428 
C 3802 2428 3802 2016 3802 1829 
L 3802 0 
L 4288 0 
L 4288 1877 
z
" transform="scale(0.015625)"/>
       <path id="CMSS17-65" d="M 2502 1377 
C 2502 1590 2490 2003 2285 2345 
C 2061 2713 1696 2816 1421 2816 
C 755 2816 192 2188 192 1375 
C 192 582 774 -64 1510 -64 
C 1798 -64 2150 19 2470 248 
C 2470 274 2458 414 2451 420 
C 2451 433 2432 630 2432 656 
C 2125 407 1773 325 1517 325 
C 1107 325 666 667 646 1377 
L 2502 1377 
z
M 698 1728 
C 781 2084 1062 2421 1421 2421 
C 1517 2421 1965 2421 2080 1728 
L 698 1728 
z
" transform="scale(0.015625)"/>
       <path id="CMSS17-61" d="M 2406 1791 
C 2406 2392 1978 2808 1402 2808 
C 1120 2808 813 2757 461 2553 
L 499 2135 
C 659 2248 934 2432 1395 2432 
C 1722 2432 1920 2180 1920 1782 
L 1920 1536 
C 896 1536 256 1238 256 726 
C 256 461 416 -64 947 -64 
C 1043 -64 1562 -64 1933 217 
L 1933 -19 
L 2406 -19 
L 2406 1791 
z
M 1920 816 
C 1920 701 1920 548 1728 434 
C 1562 325 1350 325 1261 325 
C 941 325 723 511 723 744 
C 723 1211 1722 1211 1920 1211 
L 1920 816 
z
" transform="scale(0.015625)"/>
       <path id="CMSS17-6e" d="M 2618 1877 
C 2618 2283 2522 2816 1798 2816 
C 1389 2816 1120 2606 941 2389 
L 941 2758 
L 474 2758 
L 474 0 
L 960 0 
L 960 1559 
C 960 1964 1114 2428 1549 2428 
C 2112 2428 2131 2048 2131 1829 
L 2131 0 
L 2618 0 
L 2618 1877 
z
" transform="scale(0.015625)"/>
      </defs>
      <use xlink:href="#CMSS17-66" transform="scale(0.996264)"/>
      <use xlink:href="#CMSS17-31" transform="translate(28.626659 0) scale(0.996264)"/>
      <use xlink:href="#CMSS17-6d" transform="translate(109.197778 0) scale(0.996264)"/>
      <use xlink:href="#CMSS17-65" transform="translate(183.427032 0) scale(0.996264)"/>
      <use xlink:href="#CMSS17-61" transform="translate(225.065854 0) scale(0.996264)"/>
      <use xlink:href="#CMSS17-6e" transform="translate(269.987775 0) scale(0.996264)"/>
      <path d="M 81.091293 0 
L 109.197778 0 
L 109.197778 0.3985 
L 81.091293 0.3985 
L 81.091293 0 
z
"/>
     </g>
    </g>
    <g id="patch_3">
     <path d="M 63.297048 128.256 
L 107.937048 128.256 
L 107.937048 116.256 
L 63.297048 116.256 
z
" style="fill: #ffffff; stroke: #1a1a1a; stroke-linejoin: miter"/>
    </g>
    <g id="text_2">
     <!-- f1_std -->
     <g style="fill: #262626" transform="translate(73.529024 124.74666) scale(0.1 -0.1)">
      <defs>
       <path id="CMSS17-73" d="M 2061 2627 
C 1683 2807 1389 2807 1197 2807 
C 742 2807 198 2648 198 2003 
C 198 1359 902 1218 1094 1179 
C 1389 1122 1715 1058 1715 740 
C 1715 337 1254 337 1171 337 
C 915 337 563 407 243 638 
L 166 210 
C 531 0 883 -64 1178 -64 
C 1965 -64 2163 416 2163 781 
C 2163 1094 1984 1305 1862 1401 
C 1651 1568 1574 1587 1050 1696 
C 960 1709 646 1779 646 2066 
C 646 2432 1050 2432 1139 2432 
C 1555 2432 1811 2303 1984 2208 
L 2061 2627 
z
" transform="scale(0.015625)"/>
       <path id="CMSS17-74" d="M 1069 2368 
L 1901 2368 
L 1901 2737 
L 1069 2737 
L 1069 3520 
L 614 3520 
L 614 2737 
L 109 2737 
L 109 2368 
L 602 2368 
L 602 749 
C 602 384 685 -64 1107 -64 
C 1427 -64 1722 25 2003 172 
L 1901 548 
C 1747 414 1562 337 1363 337 
C 1082 337 1069 696 1069 856 
L 1069 2368 
z
" transform="scale(0.015625)"/>
       <path id="CMSS17-64" d="M 2611 4416 
L 2138 4416 
L 2138 2438 
C 1939 2603 1613 2756 1254 2756 
C 672 2756 211 2131 211 1347 
C 211 562 666 -64 1235 -64 
C 1677 -64 1971 172 2125 306 
L 2125 -13 
L 2611 -13 
L 2611 4416 
z
M 2125 836 
C 2125 747 2125 653 1926 482 
C 1798 375 1645 325 1498 325 
C 1152 325 698 576 698 1340 
C 698 2134 1210 2368 1562 2368 
C 1798 2368 1990 2254 2125 2065 
L 2125 836 
z
" transform="scale(0.015625)"/>
      </defs>
      <use xlink:href="#CMSS17-66" transform="scale(0.996264)"/>
      <use xlink:href="#CMSS17-31" transform="translate(28.626659 0) scale(0.996264)"/>
      <use xlink:href="#CMSS17-73" transform="translate(109.197778 0) scale(0.996264)"/>
      <use xlink:href="#CMSS17-74" transform="translate(145.11132 0) scale(0.996264)"/>
      <use xlink:href="#CMSS17-64" transform="translate(178.942886 0) scale(0.996264)"/>
      <path d="M 81.091293 0 
L 109.197778 0 
L 109.197778 0.3985 
L 81.091293 0.3985 
L 81.091293 0 
z
"/>
     </g>
    </g>
    <g id="patch_4">
     <path d="M 107.937048 128.256 
L 152.577048 128.256 
L 152.577048 116.256 
L 107.937048 116.256 
z
" style="fill: #ffffff; stroke: #1a1a1a; stroke-linejoin: miter"/>
    </g>
    <g id="text_3">
     <!-- f2_mean -->
     <g style="fill: #262626" transform="translate(113.312222 124.74666) scale(0.1 -0.1)">
      <defs>
       <path id="CMSS17-32" d="M 1651 1357 
C 1830 1541 2099 1764 2285 1987 
C 2464 2204 2701 2511 2701 2957 
C 2701 3657 2227 4288 1421 4288 
C 787 4288 422 3893 250 3274 
L 499 2929 
C 640 3510 838 3880 1338 3880 
C 1888 3880 2195 3433 2195 2942 
C 2195 2355 1747 1901 1408 1563 
C 1030 1187 659 804 301 408 
L 301 0 
L 2701 0 
L 2701 433 
L 1613 433 
C 1536 433 1459 433 1382 433 
L 742 433 
L 742 439 
L 1651 1357 
z
" transform="scale(0.015625)"/>
      </defs>
      <use xlink:href="#CMSS17-66" transform="scale(0.996264)"/>
      <use xlink:href="#CMSS17-32" transform="translate(28.626659 0) scale(0.996264)"/>
      <use xlink:href="#CMSS17-6d" transform="translate(109.197778 0) scale(0.996264)"/>
      <use xlink:href="#CMSS17-65" transform="translate(183.427032 0) scale(0.996264)"/>
      <use xlink:href="#CMSS17-61" transform="translate(225.065854 0) scale(0.996264)"/>
      <use xlink:href="#CMSS17-6e" transform="translate(269.987775 0) scale(0.996264)"/>
      <path d="M 81.091293 0 
L 109.197778 0 
L 109.197778 0.3985 
L 81.091293 0.3985 
L 81.091293 0 
z
"/>
     </g>
    </g>
    <g id="patch_5">
     <path d="M 152.577048 128.256 
L 197.217048 128.256 
L 197.217048 116.256 
L 152.577048 116.256 
z
" style="fill: #ffffff; stroke: #1a1a1a; stroke-linejoin: miter"/>
    </g>
    <g id="text_4">
     <!-- f2_std -->
     <g style="fill: #262626" transform="translate(162.809024 124.74666) scale(0.1 -0.1)">
      <use xlink:href="#CMSS17-66" transform="scale(0.996264)"/>
      <use xlink:href="#CMSS17-32" transform="translate(28.626659 0) scale(0.996264)"/>
      <use xlink:href="#CMSS17-73" transform="translate(109.197778 0) scale(0.996264)"/>
      <use xlink:href="#CMSS17-74" transform="translate(145.11132 0) scale(0.996264)"/>
      <use xlink:href="#CMSS17-64" transform="translate(178.942886 0) scale(0.996264)"/>
      <path d="M 81.091293 0 
L 109.197778 0 
L 109.197778 0.3985 
L 81.091293 0.3985 
L 81.091293 0 
z
"/>
     </g>
    </g>
    <g id="patch_6">
     <path d="M 197.217048 128.256 
L 241.857048 128.256 
L 241.857048 116.256 
L 197.217048 116.256 
z
" style="fill: #ffffff; stroke: #1a1a1a; stroke-linejoin: miter"/>
    </g>
    <g id="text_5">
     <!-- f3_mean -->
     <g style="fill: #262626" transform="translate(202.592222 124.74666) scale(0.1 -0.1)">
      <defs>
       <path id="CMSS17-33" d="M 1005 2025 
L 1440 2025 
C 2042 2025 2214 1507 2214 1146 
C 2214 653 1933 267 1472 267 
C 1114 267 608 444 320 912 
C 275 691 275 678 250 526 
C 550 88 1037 -128 1485 -128 
C 2214 -128 2752 473 2752 1138 
C 2752 1638 2400 2057 1920 2215 
C 2304 2424 2586 2816 2586 3273 
C 2586 3805 2093 4229 1491 4229 
C 941 4229 512 3892 333 3530 
C 378 3468 493 3284 550 3189 
C 691 3562 1056 3840 1485 3840 
C 1843 3840 2080 3607 2080 3271 
C 2080 2923 1856 2543 1478 2455 
C 1453 2455 1056 2417 1005 2411 
L 1005 2025 
z
" transform="scale(0.015625)"/>
      </defs>
      <use xlink:href="#CMSS17-66" transform="scale(0.996264)"/>
      <use xlink:href="#CMSS17-33" transform="translate(28.626659 0) scale(0.996264)"/>
      <use xlink:href="#CMSS17-6d" transform="translate(109.197778 0) scale(0.996264)"/>
      <use xlink:href="#CMSS17-65" transform="translate(183.427032 0) scale(0.996264)"/>
      <use xlink:href="#CMSS17-61" transform="translate(225.065854 0) scale(0.996264)"/>
      <use xlink:href="#CMSS17-6e" transform="translate(269.987775 0) scale(0.996264)"/>
      <path d="M 81.091293 0 
L 109.197778 0 
L 109.197778 0.3985 
L 81.091293 0.3985 
L 81.091293 0 
z
"/>
     </g>
    </g>
    <g id="patch_7">
     <path d="M 241.857048 128.256 
L 286.497048 128.256 
L 286.497048 116.256 
L 241.857048 116.256 
z
" style="fill: #ffffff; stroke: #1a1a1a; stroke-linejoin: miter"/>
    </g>
    <g id="text_6">
     <!-- f3_std -->
     <g style="fill: #262626" transform="translate(252.089024 124.74666) scale(0.1 -0.1)">
      <use xlink:href="#CMSS17-66" transform="scale(0.996264)"/>
      <use xlink:href="#CMSS17-33" transform="translate(28.626659 0) scale(0.996264)"/>
      <use xlink:href="#CMSS17-73" transform="translate(109.197778 0) scale(0.996264)"/>
      <use xlink:href="#CMSS17-74" transform="translate(145.11132 0) scale(0.996264)"/>
      <use xlink:href="#CMSS17-64" transform="translate(178.942886 0) scale(0.996264)"/>
      <path d="M 81.091293 0 
L 109.197778 0 
L 109.197778 0.3985 
L 81.091293 0.3985 
L 81.091293 0 
z
"/>
     </g>
    </g>
    <g id="patch_8">
     <path d="M 286.497048 128.256 
L 331.137048 128.256 
L 331.137048 116.256 
L 286.497048 116.256 
z
" style="fill: #ffffff; stroke: #1a1a1a; stroke-linejoin: miter"/>
    </g>
    <g id="text_7">
     <!-- f4_mean -->
     <g style="fill: #262626" transform="translate(291.872222 124.74666) scale(0.1 -0.1)">
      <defs>
       <path id="CMSS17-34" d="M 2253 1088 
L 2835 1088 
L 2835 1477 
L 2253 1477 
L 2253 4192 
L 1690 4192 
L 166 1477 
L 166 1088 
L 1747 1088 
L 1747 0 
L 2253 0 
L 2253 1088 
z
M 659 1477 
C 1030 2127 1766 3439 1766 3885 
L 1766 1477 
L 659 1477 
z
" transform="scale(0.015625)"/>
      </defs>
      <use xlink:href="#CMSS17-66" transform="scale(0.996264)"/>
      <use xlink:href="#CMSS17-34" transform="translate(28.626659 0) scale(0.996264)"/>
      <use xlink:href="#CMSS17-6d" transform="translate(109.197778 0) scale(0.996264)"/>
      <use xlink:href="#CMSS17-65" transform="translate(183.427032 0) scale(0.996264)"/>
      <use xlink:href="#CMSS17-61" transform="translate(225.065854 0) scale(0.996264)"/>
      <use xlink:href="#CMSS17-6e" transform="translate(269.987775 0) scale(0.996264)"/>
      <path d="M 81.091293 0 
L 109.197778 0 
L 109.197778 0.3985 
L 81.091293 0.3985 
L 81.091293 0 
z
"/>
     </g>
    </g>
    <g id="patch_9">
     <path d="M 331.137048 128.256 
L 375.777048 128.256 
L 375.777048 116.256 
L 331.137048 116.256 
z
" style="fill: #ffffff; stroke: #1a1a1a; stroke-linejoin: miter"/>
    </g>
    <g id="text_8">
     <!-- f4_std -->
     <g style="fill: #262626" transform="translate(341.369024 124.74666) scale(0.1 -0.1)">
      <use xlink:href="#CMSS17-66" transform="scale(0.996264)"/>
      <use xlink:href="#CMSS17-34" transform="translate(28.626659 0) scale(0.996264)"/>
      <use xlink:href="#CMSS17-73" transform="translate(109.197778 0) scale(0.996264)"/>
      <use xlink:href="#CMSS17-74" transform="translate(145.11132 0) scale(0.996264)"/>
      <use xlink:href="#CMSS17-64" transform="translate(178.942886 0) scale(0.996264)"/>
      <path d="M 81.091293 0 
L 109.197778 0 
L 109.197778 0.3985 
L 81.091293 0.3985 
L 81.091293 0 
z
"/>
     </g>
    </g>
    <g id="patch_10">
     <path d="M 7.2 140.256 
L 18.657048 140.256 
L 18.657048 128.256 
L 7.2 128.256 
z
" style="fill: #ffffff; stroke: #1a1a1a; stroke-linejoin: miter"/>
    </g>
    <g id="text_9">
     <!-- 0 -->
     <g style="fill: #262626" transform="translate(8.345705 136.74666) scale(0.1 -0.1)">
      <defs>
       <path id="CMSS17-30" d="M 2758 2044 
C 2758 2405 2752 3077 2490 3596 
C 2227 4096 1805 4229 1504 4229 
C 1069 4229 698 3975 506 3570 
C 301 3146 243 2709 243 2044 
C 243 1589 262 1031 493 543 
C 755 5 1197 -128 1498 -128 
C 1894 -128 2278 81 2496 518 
C 2720 974 2758 1474 2758 2044 
z
M 1498 261 
C 1011 261 864 811 819 995 
C 742 1310 730 1614 730 2114 
C 730 2506 730 2948 851 3297 
C 998 3701 1254 3840 1498 3840 
C 1971 3840 2125 3372 2176 3208 
C 2272 2873 2272 2481 2272 2114 
C 2272 1526 2272 261 1498 261 
z
" transform="scale(0.015625)"/>
      </defs>
      <use xlink:href="#CMSS17-30" transform="scale(0.996264)"/>
     </g>
    </g>
    <g id="patch_11">
     <path d="M 18.657048 140.256 
L 63.297048 140.256 
L 63.297048 128.256 
L 18.657048 128.256 
z
" style="fill: #ffffff; stroke: #1a1a1a; stroke-linejoin: miter"/>
    </g>
    <g id="text_10">
     <!-- 2.28 -->
     <g style="fill: #262626" transform="translate(41.121634 136.74666) scale(0.1 -0.1)">
      <defs>
       <path id="CMSS17-2e" d="M 1088 510 
L 576 510 
L 576 0 
L 1088 0 
L 1088 510 
z
" transform="scale(0.015625)"/>
       <path id="CMSS17-38" d="M 1933 2222 
C 2419 2380 2669 2760 2669 3134 
C 2669 3722 2157 4229 1504 4229 
C 826 4229 333 3708 333 3144 
C 333 2780 576 2403 1069 2241 
C 442 1997 250 1512 250 1149 
C 250 446 819 -128 1498 -128 
C 2202 -128 2752 455 2752 1138 
C 2752 1557 2502 2000 1933 2222 
z
M 1504 2432 
C 1075 2432 787 2712 787 3136 
C 787 3566 1075 3840 1504 3840 
C 1901 3840 2214 3591 2214 3136 
C 2214 2687 1907 2432 1504 2432 
z
M 1504 267 
C 1139 267 749 517 749 1156 
C 749 1813 1184 2043 1498 2043 
C 1843 2043 2253 1800 2253 1156 
C 2253 491 1830 267 1504 267 
z
" transform="scale(0.015625)"/>
      </defs>
      <use xlink:href="#CMSS17-32" transform="scale(0.996264)"/>
      <use xlink:href="#CMSS17-2e" transform="translate(46.843624 0) scale(0.996264)"/>
      <use xlink:href="#CMSS17-32" transform="translate(72.867828 0) scale(0.996264)"/>
      <use xlink:href="#CMSS17-38" transform="translate(119.711452 0) scale(0.996264)"/>
     </g>
    </g>
    <g id="patch_12">
     <path d="M 63.297048 140.256 
L 107.937048 140.256 
L 107.937048 128.256 
L 63.297048 128.256 
z
" style="fill: #ffffff; stroke: #1a1a1a; stroke-linejoin: miter"/>
    </g>
    <g id="text_11">
     <!-- 2.02 -->
     <g style="fill: #262626" transform="translate(85.761634 136.74666) scale(0.1 -0.1)">
      <use xlink:href="#CMSS17-32" transform="scale(0.996264)"/>
      <use xlink:href="#CMSS17-2e" transform="translate(46.843624 0) scale(0.996264)"/>
      <use xlink:href="#CMSS17-30" transform="translate(72.867828 0) scale(0.996264)"/>
      <use xlink:href="#CMSS17-32" transform="translate(119.711452 0) scale(0.996264)"/>
     </g>
    </g>
    <g id="patch_13">
     <path d="M 107.937048 140.256 
L 152.577048 140.256 
L 152.577048 128.256 
L 107.937048 128.256 
z
" style="fill: #ffffff; stroke: #1a1a1a; stroke-linejoin: miter"/>
    </g>
    <g id="text_12">
     <!-- 4.26 -->
     <g style="fill: #262626" transform="translate(130.401634 136.74666) scale(0.1 -0.1)">
      <defs>
       <path id="CMSS17-36" d="M 2496 4101 
C 2227 4210 2035 4229 1856 4229 
C 1024 4229 250 3368 250 2006 
C 250 265 986 -128 1510 -128 
C 1798 -128 2086 -39 2362 280 
C 2643 617 2752 898 2752 1389 
C 2752 2179 2362 2880 1779 2880 
C 1357 2880 992 2657 768 2376 
C 832 3258 1254 3840 1862 3840 
C 2029 3840 2246 3816 2496 3710 
L 2496 4101 
z
M 774 1369 
C 774 1420 774 1452 781 1548 
C 781 2045 1069 2491 1536 2491 
C 1837 2491 1990 2332 2106 2135 
C 2240 1886 2246 1650 2246 1388 
C 2246 1140 2246 891 2099 637 
C 1978 439 1818 267 1510 267 
C 902 267 800 1114 774 1369 
z
" transform="scale(0.015625)"/>
      </defs>
      <use xlink:href="#CMSS17-34" transform="scale(0.996264)"/>
      <use xlink:href="#CMSS17-2e" transform="translate(46.843624 0) scale(0.996264)"/>
      <use xlink:href="#CMSS17-32" transform="translate(72.867828 0) scale(0.996264)"/>
      <use xlink:href="#CMSS17-36" transform="translate(119.711452 0) scale(0.996264)"/>
     </g>
    </g>
    <g id="patch_14">
     <path d="M 152.577048 140.256 
L 197.217048 140.256 
L 197.217048 128.256 
L 152.577048 128.256 
z
" style="fill: #ffffff; stroke: #1a1a1a; stroke-linejoin: miter"/>
    </g>
    <g id="text_13">
     <!-- 5.14 -->
     <g style="fill: #262626" transform="translate(175.041634 136.74666) scale(0.1 -0.1)">
      <defs>
       <path id="CMSS17-35" d="M 934 3752 
L 2502 3752 
L 2502 4160 
L 467 4160 
L 467 1781 
L 896 1781 
C 1011 2046 1248 2240 1555 2240 
C 1843 2240 2163 1989 2163 1266 
C 2163 493 1709 267 1376 267 
C 966 267 589 512 422 851 
L 218 499 
C 512 49 992 -128 1376 -128 
C 2118 -128 2701 497 2701 1253 
C 2701 2030 2182 2629 1562 2629 
C 1338 2629 1120 2553 934 2399 
L 934 3752 
z
" transform="scale(0.015625)"/>
      </defs>
      <use xlink:href="#CMSS17-35" transform="scale(0.996264)"/>
      <use xlink:href="#CMSS17-2e" transform="translate(46.843624 0) scale(0.996264)"/>
      <use xlink:href="#CMSS17-31" transform="translate(72.867828 0) scale(0.996264)"/>
      <use xlink:href="#CMSS17-34" transform="translate(119.711452 0) scale(0.996264)"/>
     </g>
    </g>
    <g id="patch_15">
     <path d="M 197.217048 140.256 
L 241.857048 140.256 
L 241.857048 128.256 
L 197.217048 128.256 
z
" style="fill: #ffffff; stroke: #1a1a1a; stroke-linejoin: miter"/>
    </g>
    <g id="text_14">
     <!-- 0.8 -->
     <g style="fill: #262626" transform="translate(224.662969 136.74666) scale(0.1 -0.1)">
      <use xlink:href="#CMSS17-30" transform="scale(0.996264)"/>
      <use xlink:href="#CMSS17-2e" transform="translate(46.843624 0) scale(0.996264)"/>
      <use xlink:href="#CMSS17-38" transform="translate(72.867828 0) scale(0.996264)"/>
     </g>
    </g>
    <g id="patch_16">
     <path d="M 241.857048 140.256 
L 286.497048 140.256 
L 286.497048 128.256 
L 241.857048 128.256 
z
" style="fill: #ffffff; stroke: #1a1a1a; stroke-linejoin: miter"/>
    </g>
    <g id="text_15">
     <!-- 3.24 -->
     <g style="fill: #262626" transform="translate(264.321634 136.74666) scale(0.1 -0.1)">
      <use xlink:href="#CMSS17-33" transform="scale(0.996264)"/>
      <use xlink:href="#CMSS17-2e" transform="translate(46.843624 0) scale(0.996264)"/>
      <use xlink:href="#CMSS17-32" transform="translate(72.867828 0) scale(0.996264)"/>
      <use xlink:href="#CMSS17-34" transform="translate(119.711452 0) scale(0.996264)"/>
     </g>
    </g>
    <g id="patch_17">
     <path d="M 286.497048 140.256 
L 331.137048 140.256 
L 331.137048 128.256 
L 286.497048 128.256 
z
" style="fill: #ffffff; stroke: #1a1a1a; stroke-linejoin: miter"/>
    </g>
    <g id="text_16">
     <!-- -1.15 -->
     <g style="fill: #262626" transform="translate(305.640759 136.74666) scale(0.1 -0.1)">
      <defs>
       <path id="CMSS17-2d" d="M 1664 1216 
L 1664 1585 
L 64 1585 
L 64 1216 
L 1664 1216 
z
" transform="scale(0.015625)"/>
      </defs>
      <use xlink:href="#CMSS17-2d" transform="scale(0.996264)"/>
      <use xlink:href="#CMSS17-31" transform="translate(31.229113 0) scale(0.996264)"/>
      <use xlink:href="#CMSS17-2e" transform="translate(78.072736 0) scale(0.996264)"/>
      <use xlink:href="#CMSS17-31" transform="translate(104.096941 0) scale(0.996264)"/>
      <use xlink:href="#CMSS17-35" transform="translate(150.940565 0) scale(0.996264)"/>
     </g>
    </g>
    <g id="patch_18">
     <path d="M 331.137048 140.256 
L 375.777048 140.256 
L 375.777048 128.256 
L 331.137048 128.256 
z
" style="fill: #ffffff; stroke: #1a1a1a; stroke-linejoin: miter"/>
    </g>
    <g id="text_17">
     <!-- 2.13 -->
     <g style="fill: #262626" transform="translate(353.601634 136.74666) scale(0.1 -0.1)">
      <use xlink:href="#CMSS17-32" transform="scale(0.996264)"/>
      <use xlink:href="#CMSS17-2e" transform="translate(46.843624 0) scale(0.996264)"/>
      <use xlink:href="#CMSS17-31" transform="translate(72.867828 0) scale(0.996264)"/>
      <use xlink:href="#CMSS17-33" transform="translate(119.711452 0) scale(0.996264)"/>
     </g>
    </g>
    <g id="patch_19">
     <path d="M 7.2 152.256 
L 18.657048 152.256 
L 18.657048 140.256 
L 7.2 140.256 
z
" style="fill: #ffffff; stroke: #1a1a1a; stroke-linejoin: miter"/>
    </g>
    <g id="text_18">
     <!-- 1 -->
     <g style="fill: #262626" transform="translate(8.345705 148.74666) scale(0.1 -0.1)">
      <use xlink:href="#CMSS17-31" transform="scale(0.996264)"/>
     </g>
    </g>
    <g id="patch_20">
     <path d="M 18.657048 152.256 
L 63.297048 152.256 
L 63.297048 140.256 
L 18.657048 140.256 
z
" style="fill: #ffffff; stroke: #1a1a1a; stroke-linejoin: miter"/>
    </g>
    <g id="text_19">
     <!-- -1.87 -->
     <g style="fill: #262626" transform="translate(37.800759 148.74666) scale(0.1 -0.1)">
      <defs>
       <path id="CMSS17-37" d="M 1389 3776 
C 1466 3776 1542 3776 1619 3776 
L 2355 3776 
C 1440 2711 915 1365 915 -32 
L 1427 -32 
C 1427 1323 1875 2696 2752 3795 
L 2752 4209 
L 250 4209 
L 250 3776 
L 1389 3776 
z
" transform="scale(0.015625)"/>
      </defs>
      <use xlink:href="#CMSS17-2d" transform="scale(0.996264)"/>
      <use xlink:href="#CMSS17-31" transform="translate(31.229113 0) scale(0.996264)"/>
      <use xlink:href="#CMSS17-2e" transform="translate(78.072736 0) scale(0.996264)"/>
      <use xlink:href="#CMSS17-38" transform="translate(104.096941 0) scale(0.996264)"/>
      <use xlink:href="#CMSS17-37" transform="translate(150.940565 0) scale(0.996264)"/>
     </g>
    </g>
    <g id="patch_21">
     <path d="M 63.297048 152.256 
L 107.937048 152.256 
L 107.937048 140.256 
L 63.297048 140.256 
z
" style="fill: #ffffff; stroke: #1a1a1a; stroke-linejoin: miter"/>
    </g>
    <g id="text_20">
     <!-- 1.88 -->
     <g style="fill: #262626" transform="translate(85.761634 148.74666) scale(0.1 -0.1)">
      <use xlink:href="#CMSS17-31" transform="scale(0.996264)"/>
      <use xlink:href="#CMSS17-2e" transform="translate(46.843624 0) scale(0.996264)"/>
      <use xlink:href="#CMSS17-38" transform="translate(72.867828 0) scale(0.996264)"/>
      <use xlink:href="#CMSS17-38" transform="translate(119.711452 0) scale(0.996264)"/>
     </g>
    </g>
    <g id="patch_22">
     <path d="M 107.937048 152.256 
L 152.577048 152.256 
L 152.577048 140.256 
L 107.937048 140.256 
z
" style="fill: #ffffff; stroke: #1a1a1a; stroke-linejoin: miter"/>
    </g>
    <g id="text_21">
     <!-- -0.99 -->
     <g style="fill: #262626" transform="translate(127.080759 148.74666) scale(0.1 -0.1)">
      <defs>
       <path id="CMSS17-39" d="M 435 174 
C 614 21 845 -128 1235 -128 
C 2010 -128 2752 721 2752 2095 
C 2752 3932 1952 4229 1523 4229 
C 1094 4229 819 4041 582 3741 
C 301 3397 250 3090 250 2733 
C 250 2307 326 2045 506 1745 
C 749 1357 973 1275 1222 1275 
C 1600 1275 1978 1459 2234 1776 
C 2189 902 1798 267 1235 267 
C 1005 267 819 339 634 516 
L 435 174 
z
M 2214 2746 
C 2221 2703 2221 2622 2221 2596 
C 2221 2074 1914 1664 1466 1664 
C 1171 1664 1018 1813 902 2006 
C 762 2249 755 2485 755 2733 
C 755 2976 755 3244 934 3511 
C 1069 3703 1235 3840 1523 3840 
C 2112 3840 2208 3000 2214 2746 
z
" transform="scale(0.015625)"/>
      </defs>
      <use xlink:href="#CMSS17-2d" transform="scale(0.996264)"/>
      <use xlink:href="#CMSS17-30" transform="translate(31.229113 0) scale(0.996264)"/>
      <use xlink:href="#CMSS17-2e" transform="translate(78.072736 0) scale(0.996264)"/>
      <use xlink:href="#CMSS17-39" transform="translate(104.096941 0) scale(0.996264)"/>
      <use xlink:href="#CMSS17-39" transform="translate(150.940565 0) scale(0.996264)"/>
     </g>
    </g>
    <g id="patch_23">
     <path d="M 152.577048 152.256 
L 197.217048 152.256 
L 197.217048 140.256 
L 152.577048 140.256 
z
" style="fill: #ffffff; stroke: #1a1a1a; stroke-linejoin: miter"/>
    </g>
    <g id="text_22">
     <!-- 5.4 -->
     <g style="fill: #262626" transform="translate(180.022969 148.74666) scale(0.1 -0.1)">
      <use xlink:href="#CMSS17-35" transform="scale(0.996264)"/>
      <use xlink:href="#CMSS17-2e" transform="translate(46.843624 0) scale(0.996264)"/>
      <use xlink:href="#CMSS17-34" transform="translate(72.867828 0) scale(0.996264)"/>
     </g>
    </g>
    <g id="patch_24">
     <path d="M 197.217048 152.256 
L 241.857048 152.256 
L 241.857048 140.256 
L 197.217048 140.256 
z
" style="fill: #ffffff; stroke: #1a1a1a; stroke-linejoin: miter"/>
    </g>
    <g id="text_23">
     <!-- 2.15 -->
     <g style="fill: #262626" transform="translate(219.681634 148.74666) scale(0.1 -0.1)">
      <use xlink:href="#CMSS17-32" transform="scale(0.996264)"/>
      <use xlink:href="#CMSS17-2e" transform="translate(46.843624 0) scale(0.996264)"/>
      <use xlink:href="#CMSS17-31" transform="translate(72.867828 0) scale(0.996264)"/>
      <use xlink:href="#CMSS17-35" transform="translate(119.711452 0) scale(0.996264)"/>
     </g>
    </g>
    <g id="patch_25">
     <path d="M 241.857048 152.256 
L 286.497048 152.256 
L 286.497048 140.256 
L 241.857048 140.256 
z
" style="fill: #ffffff; stroke: #1a1a1a; stroke-linejoin: miter"/>
    </g>
    <g id="text_24">
     <!-- 5.26 -->
     <g style="fill: #262626" transform="translate(264.321634 148.74666) scale(0.1 -0.1)">
      <use xlink:href="#CMSS17-35" transform="scale(0.996264)"/>
      <use xlink:href="#CMSS17-2e" transform="translate(46.843624 0) scale(0.996264)"/>
      <use xlink:href="#CMSS17-32" transform="translate(72.867828 0) scale(0.996264)"/>
      <use xlink:href="#CMSS17-36" transform="translate(119.711452 0) scale(0.996264)"/>
     </g>
    </g>
    <g id="patch_26">
     <path d="M 286.497048 152.256 
L 331.137048 152.256 
L 331.137048 140.256 
L 286.497048 140.256 
z
" style="fill: #ffffff; stroke: #1a1a1a; stroke-linejoin: miter"/>
    </g>
    <g id="text_25">
     <!-- -1.25 -->
     <g style="fill: #262626" transform="translate(305.640759 148.74666) scale(0.1 -0.1)">
      <use xlink:href="#CMSS17-2d" transform="scale(0.996264)"/>
      <use xlink:href="#CMSS17-31" transform="translate(31.229113 0) scale(0.996264)"/>
      <use xlink:href="#CMSS17-2e" transform="translate(78.072736 0) scale(0.996264)"/>
      <use xlink:href="#CMSS17-32" transform="translate(104.096941 0) scale(0.996264)"/>
      <use xlink:href="#CMSS17-35" transform="translate(150.940565 0) scale(0.996264)"/>
     </g>
    </g>
    <g id="patch_27">
     <path d="M 331.137048 152.256 
L 375.777048 152.256 
L 375.777048 140.256 
L 331.137048 140.256 
z
" style="fill: #ffffff; stroke: #1a1a1a; stroke-linejoin: miter"/>
    </g>
    <g id="text_26">
     <!-- 2.07 -->
     <g style="fill: #262626" transform="translate(353.601634 148.74666) scale(0.1 -0.1)">
      <use xlink:href="#CMSS17-32" transform="scale(0.996264)"/>
      <use xlink:href="#CMSS17-2e" transform="translate(46.843624 0) scale(0.996264)"/>
      <use xlink:href="#CMSS17-30" transform="translate(72.867828 0) scale(0.996264)"/>
      <use xlink:href="#CMSS17-37" transform="translate(119.711452 0) scale(0.996264)"/>
     </g>
    </g>
    <g id="patch_28">
     <path d="M 7.2 164.256 
L 18.657048 164.256 
L 18.657048 152.256 
L 7.2 152.256 
z
" style="fill: #ffffff; stroke: #1a1a1a; stroke-linejoin: miter"/>
    </g>
    <g id="text_27">
     <!-- all -->
     <g style="fill: #262626" transform="translate(8.345705 160.74666) scale(0.1 -0.1)">
      <defs>
       <path id="CMSS17-6c" d="M 947 4416 
L 474 4416 
L 474 0 
L 947 0 
L 947 4416 
z
" transform="scale(0.015625)"/>
      </defs>
      <use xlink:href="#CMSS17-61" transform="scale(0.996264)"/>
      <use xlink:href="#CMSS17-6c" transform="translate(44.921921 0) scale(0.996264)"/>
      <use xlink:href="#CMSS17-6c" transform="translate(67.102644 0) scale(0.996264)"/>
     </g>
    </g>
    <g id="patch_29">
     <path d="M 18.657048 164.256 
L 63.297048 164.256 
L 63.297048 152.256 
L 18.657048 152.256 
z
" style="fill: #ffffff; stroke: #1a1a1a; stroke-linejoin: miter"/>
    </g>
    <g id="text_28">
     <!-- 0.43 -->
     <g style="fill: #262626" transform="translate(41.121634 160.74666) scale(0.1 -0.1)">
      <use xlink:href="#CMSS17-30" transform="scale(0.996264)"/>
      <use xlink:href="#CMSS17-2e" transform="translate(46.843624 0) scale(0.996264)"/>
      <use xlink:href="#CMSS17-34" transform="translate(72.867828 0) scale(0.996264)"/>
      <use xlink:href="#CMSS17-33" transform="translate(119.711452 0) scale(0.996264)"/>
     </g>
    </g>
    <g id="patch_30">
     <path d="M 63.297048 164.256 
L 107.937048 164.256 
L 107.937048 152.256 
L 63.297048 152.256 
z
" style="fill: #ffffff; stroke: #1a1a1a; stroke-linejoin: miter"/>
    </g>
    <g id="text_29">
     <!-- 2.84 -->
     <g style="fill: #262626" transform="translate(85.761634 160.74666) scale(0.1 -0.1)">
      <use xlink:href="#CMSS17-32" transform="scale(0.996264)"/>
      <use xlink:href="#CMSS17-2e" transform="translate(46.843624 0) scale(0.996264)"/>
      <use xlink:href="#CMSS17-38" transform="translate(72.867828 0) scale(0.996264)"/>
      <use xlink:href="#CMSS17-34" transform="translate(119.711452 0) scale(0.996264)"/>
     </g>
    </g>
    <g id="patch_31">
     <path d="M 107.937048 164.256 
L 152.577048 164.256 
L 152.577048 152.256 
L 107.937048 152.256 
z
" style="fill: #ffffff; stroke: #1a1a1a; stroke-linejoin: miter"/>
    </g>
    <g id="text_30">
     <!-- 1.92 -->
     <g style="fill: #262626" transform="translate(130.401634 160.74666) scale(0.1 -0.1)">
      <use xlink:href="#CMSS17-31" transform="scale(0.996264)"/>
      <use xlink:href="#CMSS17-2e" transform="translate(46.843624 0) scale(0.996264)"/>
      <use xlink:href="#CMSS17-39" transform="translate(72.867828 0) scale(0.996264)"/>
      <use xlink:href="#CMSS17-32" transform="translate(119.711452 0) scale(0.996264)"/>
     </g>
    </g>
    <g id="patch_32">
     <path d="M 152.577048 164.256 
L 197.217048 164.256 
L 197.217048 152.256 
L 152.577048 152.256 
z
" style="fill: #ffffff; stroke: #1a1a1a; stroke-linejoin: miter"/>
    </g>
    <g id="text_31">
     <!-- 5.87 -->
     <g style="fill: #262626" transform="translate(175.041634 160.74666) scale(0.1 -0.1)">
      <use xlink:href="#CMSS17-35" transform="scale(0.996264)"/>
      <use xlink:href="#CMSS17-2e" transform="translate(46.843624 0) scale(0.996264)"/>
      <use xlink:href="#CMSS17-38" transform="translate(72.867828 0) scale(0.996264)"/>
      <use xlink:href="#CMSS17-37" transform="translate(119.711452 0) scale(0.996264)"/>
     </g>
    </g>
    <g id="patch_33">
     <path d="M 197.217048 164.256 
L 241.857048 164.256 
L 241.857048 152.256 
L 197.217048 152.256 
z
" style="fill: #ffffff; stroke: #1a1a1a; stroke-linejoin: miter"/>
    </g>
    <g id="text_32">
     <!-- 1.4 -->
     <g style="fill: #262626" transform="translate(224.662969 160.74666) scale(0.1 -0.1)">
      <use xlink:href="#CMSS17-31" transform="scale(0.996264)"/>
      <use xlink:href="#CMSS17-2e" transform="translate(46.843624 0) scale(0.996264)"/>
      <use xlink:href="#CMSS17-34" transform="translate(72.867828 0) scale(0.996264)"/>
     </g>
    </g>
    <g id="patch_34">
     <path d="M 241.857048 164.256 
L 286.497048 164.256 
L 286.497048 152.256 
L 241.857048 152.256 
z
" style="fill: #ffffff; stroke: #1a1a1a; stroke-linejoin: miter"/>
    </g>
    <g id="text_33">
     <!-- 4.31 -->
     <g style="fill: #262626" transform="translate(264.321634 160.74666) scale(0.1 -0.1)">
      <use xlink:href="#CMSS17-34" transform="scale(0.996264)"/>
      <use xlink:href="#CMSS17-2e" transform="translate(46.843624 0) scale(0.996264)"/>
      <use xlink:href="#CMSS17-33" transform="translate(72.867828 0) scale(0.996264)"/>
      <use xlink:href="#CMSS17-31" transform="translate(119.711452 0) scale(0.996264)"/>
     </g>
    </g>
    <g id="patch_35">
     <path d="M 286.497048 164.256 
L 331.137048 164.256 
L 331.137048 152.256 
L 286.497048 152.256 
z
" style="fill: #ffffff; stroke: #1a1a1a; stroke-linejoin: miter"/>
    </g>
    <g id="text_34">
     <!-- -1.19 -->
     <g style="fill: #262626" transform="translate(305.640759 160.74666) scale(0.1 -0.1)">
      <use xlink:href="#CMSS17-2d" transform="scale(0.996264)"/>
      <use xlink:href="#CMSS17-31" transform="translate(31.229113 0) scale(0.996264)"/>
      <use xlink:href="#CMSS17-2e" transform="translate(78.072736 0) scale(0.996264)"/>
      <use xlink:href="#CMSS17-31" transform="translate(104.096941 0) scale(0.996264)"/>
      <use xlink:href="#CMSS17-39" transform="translate(150.940565 0) scale(0.996264)"/>
     </g>
    </g>
    <g id="patch_36">
     <path d="M 331.137048 164.256 
L 375.777048 164.256 
L 375.777048 152.256 
L 331.137048 152.256 
z
" style="fill: #ffffff; stroke: #1a1a1a; stroke-linejoin: miter"/>
    </g>
    <g id="text_35">
     <!-- 2.1 -->
     <g style="fill: #262626" transform="translate(358.582969 160.74666) scale(0.1 -0.1)">
      <use xlink:href="#CMSS17-32" transform="scale(0.996264)"/>
      <use xlink:href="#CMSS17-2e" transform="translate(46.843624 0) scale(0.996264)"/>
      <use xlink:href="#CMSS17-31" transform="translate(72.867828 0) scale(0.996264)"/>
     </g>
    </g>
   </g>
  </g>
 </g>
</svg>
