<?xml version="1.0" encoding="utf-8" standalone="no"?>
<!DOCTYPE svg PUBLIC "-//W3C//DTD SVG 1.1//EN"
  "http://www.w3.org/Graphics/SVG/1.1/DTD/svg11.dtd">
<svg xmlns:xlink="http://www.w3.org/1999/xlink" width="374.06051pt" height="280.512pt" viewBox="0 0 374.06051 280.512" xmlns="http://www.w3.org/2000/svg" version="1.1">
 <metadata>
  <rdf:RDF xmlns:dc="http://purl.org/dc/elements/1.1/" xmlns:cc="http://creativecommons.org/ns#" xmlns:rdf="http://www.w3.org/1999/02/22-rdf-syntax-ns#">
   <cc:Work>
    <dc:type rdf:resource="http://purl.org/dc/dcmitype/StillImage"/>
    <dc:date>2023-04-05T12:10:11.927907</dc:date>
    <dc:format>image/svg+xml</dc:format>
    <dc:creator>
     <cc:Agent>
      <dc:title>Matplotlib v3.7.1, https://matplotlib.org/</dc:title>
     </cc:Agent>
    </dc:creator>
   </cc:Work>
  </rdf:RDF>
 </metadata>
 <defs>
  <style type="text/css">*{stroke-linejoin: round; stroke-linecap: butt}</style>
 </defs>
 <g id="figure_1">
  <g id="patch_1">
   <path d="M 0 280.512 
L 374.06051 280.512 
L 374.06051 0 
L 0 0 
z
" style="fill: #ffffff"/>
  </g>
  <g id="axes_1">
   <g id="table_1">
    <g id="patch_2">
     <path d="M 9.74051 140.256 
L 60.757653 140.256 
L 60.757653 128.256 
L 9.74051 128.256 
z
" style="fill: #ffffff; stroke: #1a1a1a; stroke-linejoin: miter"/>
    </g>
    <g id="text_1">
     <!-- TP -->
     <g style="fill: #262626" transform="translate(32.450509 135.252264) scale(0.04 -0.04)">
      <defs>
       <path id="CMSS17-54" d="M 2317 3968 
L 2848 3968 
C 2925 3968 3002 3968 3078 3968 
L 3878 3968 
L 3878 4376 
L 218 4376 
L 218 3968 
L 1018 3968 
C 1094 3968 1171 3968 1248 3968 
L 1779 3968 
L 1779 -32 
L 2317 -32 
L 2317 3968 
z
" transform="scale(0.015625)"/>
       <path id="CMSS17-50" d="M 2106 1856 
C 2874 1856 3501 2453 3501 3158 
C 3501 3850 2899 4453 2067 4453 
L 570 4453 
L 570 0 
L 1107 0 
L 1107 1856 
L 2106 1856 
z
M 1926 4096 
C 2669 4096 2995 3627 2995 3157 
C 2995 2720 2694 2226 1926 2226 
L 1094 2226 
L 1094 4096 
L 1926 4096 
z
" transform="scale(0.015625)"/>
      </defs>
      <use xlink:href="#CMSS17-54" transform="scale(0.996264)"/>
      <use xlink:href="#CMSS17-50" transform="translate(63.819454 0) scale(0.996264)"/>
     </g>
    </g>
    <g id="patch_3">
     <path d="M 60.757653 140.256 
L 111.774795 140.256 
L 111.774795 128.256 
L 60.757653 128.256 
z
" style="fill: #ffffff; stroke: #1a1a1a; stroke-linejoin: miter"/>
    </g>
    <g id="text_2">
     <!-- FP -->
     <g style="fill: #262626" transform="translate(83.702884 135.252264) scale(0.04 -0.04)">
      <defs>
       <path id="CMSS17-46" d="M 2918 1984 
L 2918 2373 
L 1101 2373 
L 1101 3968 
L 1882 3968 
C 1958 3968 2035 3968 2112 3968 
L 3168 3968 
L 3168 4375 
L 563 4375 
L 563 -32 
L 1101 -32 
L 1101 1984 
L 2918 1984 
z
" transform="scale(0.015625)"/>
      </defs>
      <use xlink:href="#CMSS17-46" transform="scale(0.996264)"/>
      <use xlink:href="#CMSS17-50" transform="translate(53.289559 0) scale(0.996264)"/>
     </g>
    </g>
    <g id="patch_4">
     <path d="M 111.774795 140.256 
L 162.791938 140.256 
L 162.791938 128.256 
L 111.774795 128.256 
z
" style="fill: #ffffff; stroke: #1a1a1a; stroke-linejoin: miter"/>
    </g>
    <g id="text_3">
     <!-- TN -->
     <g style="fill: #262626" transform="translate(134.34297 135.252264) scale(0.04 -0.04)">
      <defs>
       <path id="CMSS17-4e" d="M 1466 4180 
L 1350 4416 
L 563 4416 
L 563 0 
L 1062 0 
L 1062 3926 
L 1069 3932 
C 1114 3817 1139 3760 1402 3194 
L 2771 236 
L 2886 0 
L 3674 0 
L 3674 4416 
L 3174 4416 
L 3174 490 
L 3168 483 
C 3123 598 3098 655 2835 1221 
L 1466 4180 
z
" transform="scale(0.015625)"/>
      </defs>
      <use xlink:href="#CMSS17-54" transform="scale(0.996264)"/>
      <use xlink:href="#CMSS17-4e" transform="translate(63.819454 0) scale(0.996264)"/>
     </g>
    </g>
    <g id="patch_5">
     <path d="M 162.791938 140.256 
L 213.809081 140.256 
L 213.809081 128.256 
L 162.791938 128.256 
z
" style="fill: #ffffff; stroke: #1a1a1a; stroke-linejoin: miter"/>
    </g>
    <g id="text_4">
     <!-- FN -->
     <g style="fill: #262626" transform="translate(185.595345 135.252264) scale(0.04 -0.04)">
      <use xlink:href="#CMSS17-46" transform="scale(0.996264)"/>
      <use xlink:href="#CMSS17-4e" transform="translate(53.289559 0) scale(0.996264)"/>
     </g>
    </g>
    <g id="patch_6">
     <path d="M 213.809081 140.256 
L 264.826224 140.256 
L 264.826224 128.256 
L 213.809081 128.256 
z
" style="fill: #ffffff; stroke: #1a1a1a; stroke-linejoin: miter"/>
    </g>
    <g id="text_5">
     <!-- accuracy -->
     <g style="fill: #262626" transform="translate(231.669157 135.252264) scale(0.04 -0.04)">
      <defs>
       <path id="CMSS17-61" d="M 2406 1791 
C 2406 2392 1978 2808 1402 2808 
C 1120 2808 813 2757 461 2553 
L 499 2135 
C 659 2248 934 2432 1395 2432 
C 1722 2432 1920 2180 1920 1782 
L 1920 1536 
C 896 1536 256 1238 256 726 
C 256 461 416 -64 947 -64 
C 1043 -64 1562 -64 1933 217 
L 1933 -19 
L 2406 -19 
L 2406 1791 
z
M 1920 816 
C 1920 701 1920 548 1728 434 
C 1562 325 1350 325 1261 325 
C 941 325 723 511 723 744 
C 723 1211 1722 1211 1920 1211 
L 1920 816 
z
" transform="scale(0.015625)"/>
       <path id="CMSS17-63" d="M 2464 2541 
C 2464 2585 2170 2714 2093 2739 
C 1882 2816 1613 2816 1542 2816 
C 710 2816 211 2093 211 1363 
C 211 595 768 -64 1517 -64 
C 1946 -64 2253 76 2502 242 
L 2464 664 
C 2189 453 1869 337 1523 337 
C 1024 337 698 774 698 1369 
C 698 1831 909 2414 1549 2414 
C 1901 2414 2099 2343 2394 2145 
L 2464 2541 
z
" transform="scale(0.015625)"/>
       <path id="CMSS17-75" d="M 2618 2739 
L 2131 2739 
L 2131 972 
C 2131 498 1786 306 1421 306 
C 998 306 960 447 960 709 
L 960 2739 
L 474 2739 
L 474 678 
C 474 179 646 -64 1088 -64 
C 1306 -64 1798 -13 2144 306 
L 2144 0 
L 2618 0 
L 2618 2739 
z
" transform="scale(0.015625)"/>
       <path id="CMSS17-72" d="M 954 1363 
C 954 1965 1395 2368 1958 2368 
L 1958 2789 
C 1549 2789 1165 2585 934 2253 
L 934 2758 
L 480 2758 
L 480 0 
L 954 0 
L 954 1363 
z
" transform="scale(0.015625)"/>
       <path id="CMSS17-79" d="M 2675 2752 
L 2176 2752 
C 1632 1294 1446 702 1434 383 
L 1427 383 
C 1408 696 1126 1460 902 2007 
L 602 2752 
L 83 2752 
L 1216 13 
C 1146 -178 1043 -465 1011 -529 
C 870 -885 774 -885 672 -885 
C 646 -885 442 -885 211 -809 
L 250 -1229 
C 410 -1261 570 -1280 685 -1280 
C 845 -1280 1165 -1280 1459 -497 
L 2675 2752 
z
" transform="scale(0.015625)"/>
      </defs>
      <use xlink:href="#CMSS17-61" transform="scale(0.996264)"/>
      <use xlink:href="#CMSS17-63" transform="translate(44.921921 0) scale(0.996264)"/>
      <use xlink:href="#CMSS17-63" transform="translate(86.560743 0) scale(0.996264)"/>
      <use xlink:href="#CMSS17-75" transform="translate(128.199565 0) scale(0.996264)"/>
      <use xlink:href="#CMSS17-72" transform="translate(176.404508 0) scale(0.996264)"/>
      <use xlink:href="#CMSS17-61" transform="translate(208.31428 0) scale(0.996264)"/>
      <use xlink:href="#CMSS17-63" transform="translate(253.236201 0) scale(0.996264)"/>
      <use xlink:href="#CMSS17-79" transform="translate(294.875023 0) scale(0.996264)"/>
     </g>
    </g>
    <g id="patch_7">
     <path d="M 264.826224 140.256 
L 315.843367 140.256 
L 315.843367 128.256 
L 264.826224 128.256 
z
" style="fill: #ffffff; stroke: #1a1a1a; stroke-linejoin: miter"/>
    </g>
    <g id="text_6">
     <!-- TPR -->
     <g style="fill: #262626" transform="translate(286.166345 135.252264) scale(0.04 -0.04)">
      <defs>
       <path id="CMSS17-52" d="M 2522 2109 
L 2534 2115 
C 3533 2459 3539 3147 3539 3268 
C 3539 3873 2925 4453 2003 4453 
L 570 4453 
L 570 32 
L 1094 32 
L 1094 2048 
L 2035 2048 
L 3168 32 
L 3706 32 
L 2522 2109 
z
M 1094 2437 
L 1094 4096 
L 1933 4096 
C 2746 4096 3034 3637 3034 3267 
C 3034 2922 2778 2437 1933 2437 
L 1094 2437 
z
" transform="scale(0.015625)"/>
      </defs>
      <use xlink:href="#CMSS17-54" transform="scale(0.996264)"/>
      <use xlink:href="#CMSS17-50" transform="translate(63.819454 0) scale(0.996264)"/>
      <use xlink:href="#CMSS17-52" transform="translate(123.55504 0) scale(0.996264)"/>
     </g>
    </g>
    <g id="patch_8">
     <path d="M 315.843367 140.256 
L 366.86051 140.256 
L 366.86051 128.256 
L 315.843367 128.256 
z
" style="fill: #ffffff; stroke: #1a1a1a; stroke-linejoin: miter"/>
    </g>
    <g id="text_7">
     <!-- TNR -->
     <g style="fill: #262626" transform="translate(337.041663 135.252264) scale(0.04 -0.04)">
      <use xlink:href="#CMSS17-54" transform="scale(0.996264)"/>
      <use xlink:href="#CMSS17-4e" transform="translate(63.819454 0) scale(0.996264)"/>
      <use xlink:href="#CMSS17-52" transform="translate(129.880973 0) scale(0.996264)"/>
     </g>
    </g>
    <g id="patch_9">
     <path d="M 7.2 152.256 
L 9.74051 152.256 
L 9.74051 140.256 
L 7.2 140.256 
z
" style="fill: #ffffff; stroke: #1a1a1a; stroke-linejoin: miter"/>
    </g>
    <g id="text_8">
     <!-- 0 -->
     <g style="fill: #262626" transform="translate(7.454051 147.252264) scale(0.04 -0.04)">
      <defs>
       <path id="CMSS17-30" d="M 2758 2044 
C 2758 2405 2752 3077 2490 3596 
C 2227 4096 1805 4229 1504 4229 
C 1069 4229 698 3975 506 3570 
C 301 3146 243 2709 243 2044 
C 243 1589 262 1031 493 543 
C 755 5 1197 -128 1498 -128 
C 1894 -128 2278 81 2496 518 
C 2720 974 2758 1474 2758 2044 
z
M 1498 261 
C 1011 261 864 811 819 995 
C 742 1310 730 1614 730 2114 
C 730 2506 730 2948 851 3297 
C 998 3701 1254 3840 1498 3840 
C 1971 3840 2125 3372 2176 3208 
C 2272 2873 2272 2481 2272 2114 
C 2272 1526 2272 261 1498 261 
z
" transform="scale(0.015625)"/>
      </defs>
      <use xlink:href="#CMSS17-30" transform="scale(0.996264)"/>
     </g>
    </g>
    <g id="patch_10">
     <path d="M 9.74051 152.256 
L 60.757653 152.256 
L 60.757653 140.256 
L 9.74051 140.256 
z
" style="fill: #ffffff; stroke: #1a1a1a; stroke-linejoin: miter"/>
    </g>
    <g id="text_9">
     <!-- 381.0 -->
     <g style="fill: #262626" transform="translate(46.011411 147.252264) scale(0.04 -0.04)">
      <defs>
       <path id="CMSS17-33" d="M 1005 2025 
L 1440 2025 
C 2042 2025 2214 1507 2214 1146 
C 2214 653 1933 267 1472 267 
C 1114 267 608 444 320 912 
C 275 691 275 678 250 526 
C 550 88 1037 -128 1485 -128 
C 2214 -128 2752 473 2752 1138 
C 2752 1638 2400 2057 1920 2215 
C 2304 2424 2586 2816 2586 3273 
C 2586 3805 2093 4229 1491 4229 
C 941 4229 512 3892 333 3530 
C 378 3468 493 3284 550 3189 
C 691 3562 1056 3840 1485 3840 
C 1843 3840 2080 3607 2080 3271 
C 2080 2923 1856 2543 1478 2455 
C 1453 2455 1056 2417 1005 2411 
L 1005 2025 
z
" transform="scale(0.015625)"/>
       <path id="CMSS17-38" d="M 1933 2222 
C 2419 2380 2669 2760 2669 3134 
C 2669 3722 2157 4229 1504 4229 
C 826 4229 333 3708 333 3144 
C 333 2780 576 2403 1069 2241 
C 442 1997 250 1512 250 1149 
C 250 446 819 -128 1498 -128 
C 2202 -128 2752 455 2752 1138 
C 2752 1557 2502 2000 1933 2222 
z
M 1504 2432 
C 1075 2432 787 2712 787 3136 
C 787 3566 1075 3840 1504 3840 
C 1901 3840 2214 3591 2214 3136 
C 2214 2687 1907 2432 1504 2432 
z
M 1504 267 
C 1139 267 749 517 749 1156 
C 749 1813 1184 2043 1498 2043 
C 1843 2043 2253 1800 2253 1156 
C 2253 491 1830 267 1504 267 
z
" transform="scale(0.015625)"/>
       <path id="CMSS17-31" d="M 1818 4288 
L 1696 4288 
C 1350 3940 947 3890 538 3890 
L 538 3520 
C 723 3520 1024 3520 1325 3667 
L 1325 369 
L 570 369 
L 570 0 
L 2573 0 
L 2573 369 
L 1818 369 
L 1818 4288 
z
" transform="scale(0.015625)"/>
       <path id="CMSS17-2e" d="M 1088 510 
L 576 510 
L 576 0 
L 1088 0 
L 1088 510 
z
" transform="scale(0.015625)"/>
      </defs>
      <use xlink:href="#CMSS17-33" transform="scale(0.996264)"/>
      <use xlink:href="#CMSS17-38" transform="translate(46.843624 0) scale(0.996264)"/>
      <use xlink:href="#CMSS17-31" transform="translate(93.687247 0) scale(0.996264)"/>
      <use xlink:href="#CMSS17-2e" transform="translate(140.530871 0) scale(0.996264)"/>
      <use xlink:href="#CMSS17-30" transform="translate(166.555075 0) scale(0.996264)"/>
     </g>
    </g>
    <g id="patch_11">
     <path d="M 60.757653 152.256 
L 111.774795 152.256 
L 111.774795 140.256 
L 60.757653 140.256 
z
" style="fill: #ffffff; stroke: #1a1a1a; stroke-linejoin: miter"/>
    </g>
    <g id="text_10">
     <!-- 278.0 -->
     <g style="fill: #262626" transform="translate(97.028554 147.252264) scale(0.04 -0.04)">
      <defs>
       <path id="CMSS17-32" d="M 1651 1357 
C 1830 1541 2099 1764 2285 1987 
C 2464 2204 2701 2511 2701 2957 
C 2701 3657 2227 4288 1421 4288 
C 787 4288 422 3893 250 3274 
L 499 2929 
C 640 3510 838 3880 1338 3880 
C 1888 3880 2195 3433 2195 2942 
C 2195 2355 1747 1901 1408 1563 
C 1030 1187 659 804 301 408 
L 301 0 
L 2701 0 
L 2701 433 
L 1613 433 
C 1536 433 1459 433 1382 433 
L 742 433 
L 742 439 
L 1651 1357 
z
" transform="scale(0.015625)"/>
       <path id="CMSS17-37" d="M 1389 3776 
C 1466 3776 1542 3776 1619 3776 
L 2355 3776 
C 1440 2711 915 1365 915 -32 
L 1427 -32 
C 1427 1323 1875 2696 2752 3795 
L 2752 4209 
L 250 4209 
L 250 3776 
L 1389 3776 
z
" transform="scale(0.015625)"/>
      </defs>
      <use xlink:href="#CMSS17-32" transform="scale(0.996264)"/>
      <use xlink:href="#CMSS17-37" transform="translate(46.843624 0) scale(0.996264)"/>
      <use xlink:href="#CMSS17-38" transform="translate(93.687247 0) scale(0.996264)"/>
      <use xlink:href="#CMSS17-2e" transform="translate(140.530871 0) scale(0.996264)"/>
      <use xlink:href="#CMSS17-30" transform="translate(166.555075 0) scale(0.996264)"/>
     </g>
    </g>
    <g id="patch_12">
     <path d="M 111.774795 152.256 
L 162.791938 152.256 
L 162.791938 140.256 
L 111.774795 140.256 
z
" style="fill: #ffffff; stroke: #1a1a1a; stroke-linejoin: miter"/>
    </g>
    <g id="text_11">
     <!-- 27.0 -->
     <g style="fill: #262626" transform="translate(150.162788 147.252264) scale(0.04 -0.04)">
      <use xlink:href="#CMSS17-32" transform="scale(0.996264)"/>
      <use xlink:href="#CMSS17-37" transform="translate(46.843624 0) scale(0.996264)"/>
      <use xlink:href="#CMSS17-2e" transform="translate(93.687247 0) scale(0.996264)"/>
      <use xlink:href="#CMSS17-30" transform="translate(119.711452 0) scale(0.996264)"/>
     </g>
    </g>
    <g id="patch_13">
     <path d="M 162.791938 152.256 
L 213.809081 152.256 
L 213.809081 140.256 
L 162.791938 140.256 
z
" style="fill: #ffffff; stroke: #1a1a1a; stroke-linejoin: miter"/>
    </g>
    <g id="text_12">
     <!-- 0.0 -->
     <g style="fill: #262626" transform="translate(203.297022 147.252264) scale(0.04 -0.04)">
      <use xlink:href="#CMSS17-30" transform="scale(0.996264)"/>
      <use xlink:href="#CMSS17-2e" transform="translate(46.843624 0) scale(0.996264)"/>
      <use xlink:href="#CMSS17-30" transform="translate(72.867828 0) scale(0.996264)"/>
     </g>
    </g>
    <g id="patch_14">
     <path d="M 213.809081 152.256 
L 264.826224 152.256 
L 264.826224 140.256 
L 213.809081 140.256 
z
" style="fill: #ffffff; stroke: #1a1a1a; stroke-linejoin: miter"/>
    </g>
    <g id="text_13">
     <!-- 0.59 -->
     <g style="fill: #262626" transform="translate(252.197074 147.252264) scale(0.04 -0.04)">
      <defs>
       <path id="CMSS17-35" d="M 934 3752 
L 2502 3752 
L 2502 4160 
L 467 4160 
L 467 1781 
L 896 1781 
C 1011 2046 1248 2240 1555 2240 
C 1843 2240 2163 1989 2163 1266 
C 2163 493 1709 267 1376 267 
C 966 267 589 512 422 851 
L 218 499 
C 512 49 992 -128 1376 -128 
C 2118 -128 2701 497 2701 1253 
C 2701 2030 2182 2629 1562 2629 
C 1338 2629 1120 2553 934 2399 
L 934 3752 
z
" transform="scale(0.015625)"/>
       <path id="CMSS17-39" d="M 435 174 
C 614 21 845 -128 1235 -128 
C 2010 -128 2752 721 2752 2095 
C 2752 3932 1952 4229 1523 4229 
C 1094 4229 819 4041 582 3741 
C 301 3397 250 3090 250 2733 
C 250 2307 326 2045 506 1745 
C 749 1357 973 1275 1222 1275 
C 1600 1275 1978 1459 2234 1776 
C 2189 902 1798 267 1235 267 
C 1005 267 819 339 634 516 
L 435 174 
z
M 2214 2746 
C 2221 2703 2221 2622 2221 2596 
C 2221 2074 1914 1664 1466 1664 
C 1171 1664 1018 1813 902 2006 
C 762 2249 755 2485 755 2733 
C 755 2976 755 3244 934 3511 
C 1069 3703 1235 3840 1523 3840 
C 2112 3840 2208 3000 2214 2746 
z
" transform="scale(0.015625)"/>
      </defs>
      <use xlink:href="#CMSS17-30" transform="scale(0.996264)"/>
      <use xlink:href="#CMSS17-2e" transform="translate(46.843624 0) scale(0.996264)"/>
      <use xlink:href="#CMSS17-35" transform="translate(72.867828 0) scale(0.996264)"/>
      <use xlink:href="#CMSS17-39" transform="translate(119.711452 0) scale(0.996264)"/>
     </g>
    </g>
    <g id="patch_15">
     <path d="M 264.826224 152.256 
L 315.843367 152.256 
L 315.843367 140.256 
L 264.826224 140.256 
z
" style="fill: #ffffff; stroke: #1a1a1a; stroke-linejoin: miter"/>
    </g>
    <g id="text_14">
     <!-- 1.0 -->
     <g style="fill: #262626" transform="translate(305.331308 147.252264) scale(0.04 -0.04)">
      <use xlink:href="#CMSS17-31" transform="scale(0.996264)"/>
      <use xlink:href="#CMSS17-2e" transform="translate(46.843624 0) scale(0.996264)"/>
      <use xlink:href="#CMSS17-30" transform="translate(72.867828 0) scale(0.996264)"/>
     </g>
    </g>
    <g id="patch_16">
     <path d="M 315.843367 152.256 
L 366.86051 152.256 
L 366.86051 140.256 
L 315.843367 140.256 
z
" style="fill: #ffffff; stroke: #1a1a1a; stroke-linejoin: miter"/>
    </g>
    <g id="text_15">
     <!-- 0.08852459016393442 -->
     <g style="fill: #262626" transform="translate(322.474988 147.252264) scale(0.04 -0.04)">
      <defs>
       <path id="CMSS17-34" d="M 2253 1088 
L 2835 1088 
L 2835 1477 
L 2253 1477 
L 2253 4192 
L 1690 4192 
L 166 1477 
L 166 1088 
L 1747 1088 
L 1747 0 
L 2253 0 
L 2253 1088 
z
M 659 1477 
C 1030 2127 1766 3439 1766 3885 
L 1766 1477 
L 659 1477 
z
" transform="scale(0.015625)"/>
       <path id="CMSS17-36" d="M 2496 4101 
C 2227 4210 2035 4229 1856 4229 
C 1024 4229 250 3368 250 2006 
C 250 265 986 -128 1510 -128 
C 1798 -128 2086 -39 2362 280 
C 2643 617 2752 898 2752 1389 
C 2752 2179 2362 2880 1779 2880 
C 1357 2880 992 2657 768 2376 
C 832 3258 1254 3840 1862 3840 
C 2029 3840 2246 3816 2496 3710 
L 2496 4101 
z
M 774 1369 
C 774 1420 774 1452 781 1548 
C 781 2045 1069 2491 1536 2491 
C 1837 2491 1990 2332 2106 2135 
C 2240 1886 2246 1650 2246 1388 
C 2246 1140 2246 891 2099 637 
C 1978 439 1818 267 1510 267 
C 902 267 800 1114 774 1369 
z
" transform="scale(0.015625)"/>
      </defs>
      <use xlink:href="#CMSS17-30" transform="scale(0.996264)"/>
      <use xlink:href="#CMSS17-2e" transform="translate(46.843624 0) scale(0.996264)"/>
      <use xlink:href="#CMSS17-30" transform="translate(72.867828 0) scale(0.996264)"/>
      <use xlink:href="#CMSS17-38" transform="translate(119.711452 0) scale(0.996264)"/>
      <use xlink:href="#CMSS17-38" transform="translate(166.555075 0) scale(0.996264)"/>
      <use xlink:href="#CMSS17-35" transform="translate(213.398699 0) scale(0.996264)"/>
      <use xlink:href="#CMSS17-32" transform="translate(260.242322 0) scale(0.996264)"/>
      <use xlink:href="#CMSS17-34" transform="translate(307.085946 0) scale(0.996264)"/>
      <use xlink:href="#CMSS17-35" transform="translate(353.92957 0) scale(0.996264)"/>
      <use xlink:href="#CMSS17-39" transform="translate(400.773193 0) scale(0.996264)"/>
      <use xlink:href="#CMSS17-30" transform="translate(447.616817 0) scale(0.996264)"/>
      <use xlink:href="#CMSS17-31" transform="translate(494.46044 0) scale(0.996264)"/>
      <use xlink:href="#CMSS17-36" transform="translate(541.304064 0) scale(0.996264)"/>
      <use xlink:href="#CMSS17-33" transform="translate(588.147687 0) scale(0.996264)"/>
      <use xlink:href="#CMSS17-39" transform="translate(634.991311 0) scale(0.996264)"/>
      <use xlink:href="#CMSS17-33" transform="translate(681.834934 0) scale(0.996264)"/>
      <use xlink:href="#CMSS17-34" transform="translate(728.678558 0) scale(0.996264)"/>
      <use xlink:href="#CMSS17-34" transform="translate(775.522181 0) scale(0.996264)"/>
      <use xlink:href="#CMSS17-32" transform="translate(822.365805 0) scale(0.996264)"/>
     </g>
    </g>
   </g>
  </g>
 </g>
</svg>
