<?xml version="1.0" encoding="utf-8" standalone="no"?>
<!DOCTYPE svg PUBLIC "-//W3C//DTD SVG 1.1//EN"
  "http://www.w3.org/Graphics/SVG/1.1/DTD/svg11.dtd">
<svg xmlns:xlink="http://www.w3.org/1999/xlink" width="460.8pt" height="345.6pt" viewBox="0 0 460.8 345.6" xmlns="http://www.w3.org/2000/svg" version="1.1">
 <metadata>
  <rdf:RDF xmlns:dc="http://purl.org/dc/elements/1.1/" xmlns:cc="http://creativecommons.org/ns#" xmlns:rdf="http://www.w3.org/1999/02/22-rdf-syntax-ns#">
   <cc:Work>
    <dc:type rdf:resource="http://purl.org/dc/dcmitype/StillImage"/>
    <dc:date>2023-04-12T17:47:31.916869</dc:date>
    <dc:format>image/svg+xml</dc:format>
    <dc:creator>
     <cc:Agent>
      <dc:title>Matplotlib v3.7.1, https://matplotlib.org/</dc:title>
     </cc:Agent>
    </dc:creator>
   </cc:Work>
  </rdf:RDF>
 </metadata>
 <defs>
  <style type="text/css">*{stroke-linejoin: round; stroke-linecap: butt}</style>
 </defs>
 <g id="figure_1">
  <g id="patch_1">
   <path d="M 0 345.6 
L 460.8 345.6 
L 460.8 0 
L 0 0 
z
" style="fill: #ffffff"/>
  </g>
  <g id="axes_1">
   <g id="patch_2">
    <path d="M 101.376 279.936 
L 414.72 279.936 
L 414.72 41.472 
L 101.376 41.472 
z
" style="fill: #eaeaf2"/>
   </g>
   <g id="matplotlib.axis_1">
    <g id="xtick_1">
     <g id="line2d_1">
      <path d="M 137.475036 279.936 
L 137.475036 41.472 
" clip-path="url(#p0d07a39b41)" style="fill: none; stroke: #ffffff; stroke-linecap: round"/>
     </g>
     <g id="text_1">
      <!-- $\mathdefault{100000}$ -->
      <g style="fill: #262626" transform="translate(113.331474 300.851505) scale(0.165 -0.165)">
       <defs>
        <path id="CMR17-31" d="M 1702 4058 
C 1702 4192 1696 4192 1606 4192 
C 1357 3916 979 3827 621 3827 
C 602 3827 570 3827 563 3808 
C 557 3795 557 3782 557 3648 
C 755 3648 1088 3686 1344 3839 
L 1344 461 
C 1344 236 1331 160 781 160 
L 589 160 
L 589 0 
C 896 0 1216 0 1523 0 
C 1830 0 2150 0 2458 0 
L 2458 160 
L 2266 160 
C 1715 160 1702 230 1702 458 
L 1702 4058 
z
" transform="scale(0.015625)"/>
        <path id="CMR17-30" d="M 2688 2025 
C 2688 2416 2682 3080 2413 3591 
C 2176 4039 1798 4198 1466 4198 
C 1158 4198 768 4058 525 3597 
C 269 3118 243 2524 243 2025 
C 243 1661 250 1106 448 619 
C 723 -39 1216 -128 1466 -128 
C 1760 -128 2208 -7 2470 600 
C 2662 1042 2688 1559 2688 2025 
z
M 1466 -26 
C 1056 -26 813 325 723 812 
C 653 1188 653 1738 653 2096 
C 653 2588 653 2997 736 3387 
C 858 3929 1216 4096 1466 4096 
C 1728 4096 2067 3923 2189 3400 
C 2272 3036 2278 2607 2278 2096 
C 2278 1680 2278 1169 2202 792 
C 2067 95 1690 -26 1466 -26 
z
" transform="scale(0.015625)"/>
       </defs>
       <use xlink:href="#CMR17-31" transform="scale(0.996264)"/>
       <use xlink:href="#CMR17-30" transform="translate(45.690477 0) scale(0.996264)"/>
       <use xlink:href="#CMR17-30" transform="translate(91.380954 0) scale(0.996264)"/>
       <use xlink:href="#CMR17-30" transform="translate(137.071431 0) scale(0.996264)"/>
       <use xlink:href="#CMR17-30" transform="translate(182.761908 0) scale(0.996264)"/>
       <use xlink:href="#CMR17-30" transform="translate(228.452386 0) scale(0.996264)"/>
      </g>
     </g>
    </g>
    <g id="xtick_2">
     <g id="line2d_2">
      <path d="M 210.328791 279.936 
L 210.328791 41.472 
" clip-path="url(#p0d07a39b41)" style="fill: none; stroke: #ffffff; stroke-linecap: round"/>
     </g>
     <g id="text_2">
      <!-- $\mathdefault{200000}$ -->
      <g style="fill: #262626" transform="translate(186.185229 300.851505) scale(0.165 -0.165)">
       <defs>
        <path id="CMR17-32" d="M 2669 989 
L 2554 989 
C 2490 536 2438 459 2413 420 
C 2381 369 1920 369 1830 369 
L 602 369 
C 832 619 1280 1072 1824 1597 
C 2214 1967 2669 2402 2669 3035 
C 2669 3790 2067 4224 1395 4224 
C 691 4224 262 3604 262 3030 
C 262 2780 448 2748 525 2748 
C 589 2748 781 2787 781 3010 
C 781 3207 614 3264 525 3264 
C 486 3264 448 3258 422 3245 
C 544 3790 915 4058 1306 4058 
C 1862 4058 2227 3617 2227 3035 
C 2227 2479 1901 2000 1536 1584 
L 262 146 
L 262 0 
L 2515 0 
L 2669 989 
z
" transform="scale(0.015625)"/>
       </defs>
       <use xlink:href="#CMR17-32" transform="scale(0.996264)"/>
       <use xlink:href="#CMR17-30" transform="translate(45.690477 0) scale(0.996264)"/>
       <use xlink:href="#CMR17-30" transform="translate(91.380954 0) scale(0.996264)"/>
       <use xlink:href="#CMR17-30" transform="translate(137.071431 0) scale(0.996264)"/>
       <use xlink:href="#CMR17-30" transform="translate(182.761908 0) scale(0.996264)"/>
       <use xlink:href="#CMR17-30" transform="translate(228.452386 0) scale(0.996264)"/>
      </g>
     </g>
    </g>
    <g id="xtick_3">
     <g id="line2d_3">
      <path d="M 283.182545 279.936 
L 283.182545 41.472 
" clip-path="url(#p0d07a39b41)" style="fill: none; stroke: #ffffff; stroke-linecap: round"/>
     </g>
     <g id="text_3">
      <!-- $\mathdefault{300000}$ -->
      <g style="fill: #262626" transform="translate(259.038983 300.851505) scale(0.165 -0.165)">
       <defs>
        <path id="CMR17-33" d="M 1414 2157 
C 1984 2157 2234 1662 2234 1090 
C 2234 320 1824 25 1453 25 
C 1114 25 563 194 390 693 
C 422 680 454 680 486 680 
C 640 680 755 782 755 948 
C 755 1133 614 1216 486 1216 
C 378 1216 211 1165 211 926 
C 211 335 787 -128 1466 -128 
C 2176 -128 2720 430 2720 1085 
C 2720 1707 2208 2157 1600 2227 
C 2086 2328 2554 2756 2554 3329 
C 2554 3820 2048 4179 1472 4179 
C 890 4179 378 3829 378 3329 
C 378 3110 544 3072 627 3072 
C 762 3072 877 3155 877 3321 
C 877 3486 762 3569 627 3569 
C 602 3569 570 3569 544 3557 
C 730 3959 1235 4032 1459 4032 
C 1683 4032 2106 3925 2106 3320 
C 2106 3143 2080 2828 1862 2550 
C 1670 2304 1453 2304 1242 2284 
C 1210 2284 1062 2269 1037 2269 
C 992 2263 966 2257 966 2208 
C 966 2163 973 2157 1101 2157 
L 1414 2157 
z
" transform="scale(0.015625)"/>
       </defs>
       <use xlink:href="#CMR17-33" transform="scale(0.996264)"/>
       <use xlink:href="#CMR17-30" transform="translate(45.690477 0) scale(0.996264)"/>
       <use xlink:href="#CMR17-30" transform="translate(91.380954 0) scale(0.996264)"/>
       <use xlink:href="#CMR17-30" transform="translate(137.071431 0) scale(0.996264)"/>
       <use xlink:href="#CMR17-30" transform="translate(182.761908 0) scale(0.996264)"/>
       <use xlink:href="#CMR17-30" transform="translate(228.452386 0) scale(0.996264)"/>
      </g>
     </g>
    </g>
    <g id="xtick_4">
     <g id="line2d_4">
      <path d="M 356.0363 279.936 
L 356.0363 41.472 
" clip-path="url(#p0d07a39b41)" style="fill: none; stroke: #ffffff; stroke-linecap: round"/>
     </g>
     <g id="text_4">
      <!-- $\mathdefault{400000}$ -->
      <g style="fill: #262626" transform="translate(331.892738 300.851505) scale(0.165 -0.165)">
       <defs>
        <path id="CMR17-34" d="M 2150 4122 
C 2150 4256 2144 4256 2029 4256 
L 128 1254 
L 128 1088 
L 1779 1088 
L 1779 457 
C 1779 224 1766 160 1318 160 
L 1197 160 
L 1197 0 
C 1402 0 1747 0 1965 0 
C 2182 0 2528 0 2733 0 
L 2733 160 
L 2611 160 
C 2163 160 2150 224 2150 457 
L 2150 1088 
L 2803 1088 
L 2803 1254 
L 2150 1254 
L 2150 4122 
z
M 1798 3703 
L 1798 1254 
L 256 1254 
L 1798 3703 
z
" transform="scale(0.015625)"/>
       </defs>
       <use xlink:href="#CMR17-34" transform="scale(0.996264)"/>
       <use xlink:href="#CMR17-30" transform="translate(45.690477 0) scale(0.996264)"/>
       <use xlink:href="#CMR17-30" transform="translate(91.380954 0) scale(0.996264)"/>
       <use xlink:href="#CMR17-30" transform="translate(137.071431 0) scale(0.996264)"/>
       <use xlink:href="#CMR17-30" transform="translate(182.761908 0) scale(0.996264)"/>
       <use xlink:href="#CMR17-30" transform="translate(228.452386 0) scale(0.996264)"/>
      </g>
     </g>
    </g>
    <g id="text_5">
     <!-- platelets -->
     <g style="fill: #262626" transform="translate(228.857188 320.501132) scale(0.18 -0.18)">
      <defs>
       <path id="CMSS17-70" d="M 966 333 
C 1178 129 1466 -5 1773 -5 
C 2368 -5 2880 603 2880 1412 
C 2880 2159 2496 2816 1946 2816 
C 1626 2816 1242 2702 954 2472 
L 954 2765 
L 480 2765 
L 480 -1216 
L 966 -1216 
L 966 333 
z
M 966 2100 
C 1018 2176 1235 2415 1587 2415 
C 2035 2415 2394 1960 2394 1412 
C 2394 787 1958 384 1530 384 
C 1402 384 1267 415 1139 523 
C 966 674 966 768 966 857 
L 966 2100 
z
" transform="scale(0.015625)"/>
       <path id="CMSS17-6c" d="M 947 4416 
L 474 4416 
L 474 0 
L 947 0 
L 947 4416 
z
" transform="scale(0.015625)"/>
       <path id="CMSS17-61" d="M 2406 1791 
C 2406 2392 1978 2808 1402 2808 
C 1120 2808 813 2757 461 2553 
L 499 2135 
C 659 2248 934 2432 1395 2432 
C 1722 2432 1920 2180 1920 1782 
L 1920 1536 
C 896 1536 256 1238 256 726 
C 256 461 416 -64 947 -64 
C 1043 -64 1562 -64 1933 217 
L 1933 -19 
L 2406 -19 
L 2406 1791 
z
M 1920 816 
C 1920 701 1920 548 1728 434 
C 1562 325 1350 325 1261 325 
C 941 325 723 511 723 744 
C 723 1211 1722 1211 1920 1211 
L 1920 816 
z
" transform="scale(0.015625)"/>
       <path id="CMSS17-74" d="M 1069 2368 
L 1901 2368 
L 1901 2737 
L 1069 2737 
L 1069 3520 
L 614 3520 
L 614 2737 
L 109 2737 
L 109 2368 
L 602 2368 
L 602 749 
C 602 384 685 -64 1107 -64 
C 1427 -64 1722 25 2003 172 
L 1901 548 
C 1747 414 1562 337 1363 337 
C 1082 337 1069 696 1069 856 
L 1069 2368 
z
" transform="scale(0.015625)"/>
       <path id="CMSS17-65" d="M 2502 1377 
C 2502 1590 2490 2003 2285 2345 
C 2061 2713 1696 2816 1421 2816 
C 755 2816 192 2188 192 1375 
C 192 582 774 -64 1510 -64 
C 1798 -64 2150 19 2470 248 
C 2470 274 2458 414 2451 420 
C 2451 433 2432 630 2432 656 
C 2125 407 1773 325 1517 325 
C 1107 325 666 667 646 1377 
L 2502 1377 
z
M 698 1728 
C 781 2084 1062 2421 1421 2421 
C 1517 2421 1965 2421 2080 1728 
L 698 1728 
z
" transform="scale(0.015625)"/>
       <path id="CMSS17-73" d="M 2061 2627 
C 1683 2807 1389 2807 1197 2807 
C 742 2807 198 2648 198 2003 
C 198 1359 902 1218 1094 1179 
C 1389 1122 1715 1058 1715 740 
C 1715 337 1254 337 1171 337 
C 915 337 563 407 243 638 
L 166 210 
C 531 0 883 -64 1178 -64 
C 1965 -64 2163 416 2163 781 
C 2163 1094 1984 1305 1862 1401 
C 1651 1568 1574 1587 1050 1696 
C 960 1709 646 1779 646 2066 
C 646 2432 1050 2432 1139 2432 
C 1555 2432 1811 2303 1984 2208 
L 2061 2627 
z
" transform="scale(0.015625)"/>
      </defs>
      <use xlink:href="#CMSS17-70" transform="scale(0.996264)"/>
      <use xlink:href="#CMSS17-6c" transform="translate(48.204943 0) scale(0.996264)"/>
      <use xlink:href="#CMSS17-61" transform="translate(70.385666 0) scale(0.996264)"/>
      <use xlink:href="#CMSS17-74" transform="translate(115.307587 0) scale(0.996264)"/>
      <use xlink:href="#CMSS17-65" transform="translate(149.139153 0) scale(0.996264)"/>
      <use xlink:href="#CMSS17-6c" transform="translate(190.777976 0) scale(0.996264)"/>
      <use xlink:href="#CMSS17-65" transform="translate(212.958699 0) scale(0.996264)"/>
      <use xlink:href="#CMSS17-74" transform="translate(254.597521 0) scale(0.996264)"/>
      <use xlink:href="#CMSS17-73" transform="translate(288.429087 0) scale(0.996264)"/>
     </g>
    </g>
   </g>
   <g id="matplotlib.axis_2">
    <g id="ytick_1">
     <g id="line2d_5">
      <path d="M 101.376 234.608132 
L 414.72 234.608132 
" clip-path="url(#p0d07a39b41)" style="fill: none; stroke: #ffffff; stroke-linecap: round"/>
     </g>
     <g id="text_6">
      <!-- $\mathdefault{2}$ -->
      <g style="fill: #262626" transform="translate(83.828146 240.315885) scale(0.165 -0.165)">
       <use xlink:href="#CMR17-32" transform="scale(0.996264)"/>
      </g>
     </g>
    </g>
    <g id="ytick_2">
     <g id="line2d_6">
      <path d="M 101.376 185.338711 
L 414.72 185.338711 
" clip-path="url(#p0d07a39b41)" style="fill: none; stroke: #ffffff; stroke-linecap: round"/>
     </g>
     <g id="text_7">
      <!-- $\mathdefault{4}$ -->
      <g style="fill: #262626" transform="translate(83.828146 191.046463) scale(0.165 -0.165)">
       <use xlink:href="#CMR17-34" transform="scale(0.996264)"/>
      </g>
     </g>
    </g>
    <g id="ytick_3">
     <g id="line2d_7">
      <path d="M 101.376 136.069289 
L 414.72 136.069289 
" clip-path="url(#p0d07a39b41)" style="fill: none; stroke: #ffffff; stroke-linecap: round"/>
     </g>
     <g id="text_8">
      <!-- $\mathdefault{6}$ -->
      <g style="fill: #262626" transform="translate(83.828146 141.777042) scale(0.165 -0.165)">
       <defs>
        <path id="CMR17-36" d="M 678 2176 
C 678 3690 1395 4032 1811 4032 
C 1946 4032 2272 4009 2400 3776 
C 2298 3776 2106 3776 2106 3553 
C 2106 3381 2246 3323 2336 3323 
C 2394 3323 2566 3348 2566 3560 
C 2566 3954 2246 4179 1805 4179 
C 1043 4179 243 3390 243 1984 
C 243 253 966 -128 1478 -128 
C 2099 -128 2688 427 2688 1283 
C 2688 2081 2170 2662 1517 2662 
C 1126 2662 838 2407 678 1960 
L 678 2176 
z
M 1478 25 
C 691 25 691 1200 691 1436 
C 691 1896 909 2560 1504 2560 
C 1613 2560 1926 2560 2138 2120 
C 2253 1870 2253 1609 2253 1289 
C 2253 944 2253 690 2118 434 
C 1978 171 1773 25 1478 25 
z
" transform="scale(0.015625)"/>
       </defs>
       <use xlink:href="#CMR17-36" transform="scale(0.996264)"/>
      </g>
     </g>
    </g>
    <g id="ytick_4">
     <g id="line2d_8">
      <path d="M 101.376 86.799868 
L 414.72 86.799868 
" clip-path="url(#p0d07a39b41)" style="fill: none; stroke: #ffffff; stroke-linecap: round"/>
     </g>
     <g id="text_9">
      <!-- $\mathdefault{8}$ -->
      <g style="fill: #262626" transform="translate(83.828146 92.50762) scale(0.165 -0.165)">
       <defs>
        <path id="CMR17-38" d="M 1741 2264 
C 2144 2467 2554 2773 2554 3263 
C 2554 3841 1990 4179 1472 4179 
C 890 4179 378 3759 378 3180 
C 378 3021 416 2747 666 2505 
C 730 2442 998 2251 1171 2130 
C 883 1983 211 1634 211 934 
C 211 279 838 -128 1459 -128 
C 2144 -128 2720 362 2720 1010 
C 2720 1590 2330 1857 2074 2029 
L 1741 2264 
z
M 902 2822 
C 851 2854 595 3051 595 3351 
C 595 3739 998 4032 1459 4032 
C 1965 4032 2336 3676 2336 3262 
C 2336 2669 1670 2331 1638 2331 
C 1632 2331 1626 2331 1574 2370 
L 902 2822 
z
M 2080 1519 
C 2176 1449 2483 1240 2483 851 
C 2483 381 2010 25 1472 25 
C 890 25 448 438 448 940 
C 448 1443 838 1862 1280 2060 
L 2080 1519 
z
" transform="scale(0.015625)"/>
       </defs>
       <use xlink:href="#CMR17-38" transform="scale(0.996264)"/>
      </g>
     </g>
    </g>
    <g id="text_10">
     <!-- serum_creatinine -->
     <g style="fill: #262626" transform="translate(76.340082 218.48168) rotate(-90) scale(0.18 -0.18)">
      <defs>
       <path id="CMSS17-72" d="M 954 1363 
C 954 1965 1395 2368 1958 2368 
L 1958 2789 
C 1549 2789 1165 2585 934 2253 
L 934 2758 
L 480 2758 
L 480 0 
L 954 0 
L 954 1363 
z
" transform="scale(0.015625)"/>
       <path id="CMSS17-75" d="M 2618 2739 
L 2131 2739 
L 2131 972 
C 2131 498 1786 306 1421 306 
C 998 306 960 447 960 709 
L 960 2739 
L 474 2739 
L 474 678 
C 474 179 646 -64 1088 -64 
C 1306 -64 1798 -13 2144 306 
L 2144 0 
L 2618 0 
L 2618 2739 
z
" transform="scale(0.015625)"/>
       <path id="CMSS17-6d" d="M 4288 1877 
C 4288 2308 4179 2816 3462 2816 
C 2982 2816 2694 2516 2566 2331 
C 2451 2670 2182 2816 1798 2816 
C 1363 2816 1088 2568 941 2389 
L 941 2758 
L 474 2758 
L 474 0 
L 960 0 
L 960 1559 
C 960 1939 1101 2428 1555 2428 
C 2138 2428 2138 2016 2138 1829 
L 2138 0 
L 2624 0 
L 2624 1559 
C 2624 1939 2765 2428 3219 2428 
C 3802 2428 3802 2016 3802 1829 
L 3802 0 
L 4288 0 
L 4288 1877 
z
" transform="scale(0.015625)"/>
       <path id="CMSS17-63" d="M 2464 2541 
C 2464 2585 2170 2714 2093 2739 
C 1882 2816 1613 2816 1542 2816 
C 710 2816 211 2093 211 1363 
C 211 595 768 -64 1517 -64 
C 1946 -64 2253 76 2502 242 
L 2464 664 
C 2189 453 1869 337 1523 337 
C 1024 337 698 774 698 1369 
C 698 1831 909 2414 1549 2414 
C 1901 2414 2099 2343 2394 2145 
L 2464 2541 
z
" transform="scale(0.015625)"/>
       <path id="CMSS17-69" d="M 979 4183 
L 442 4183 
L 442 3648 
L 979 3648 
L 979 4183 
z
M 947 2739 
L 474 2739 
L 474 0 
L 947 0 
L 947 2739 
z
" transform="scale(0.015625)"/>
       <path id="CMSS17-6e" d="M 2618 1877 
C 2618 2283 2522 2816 1798 2816 
C 1389 2816 1120 2606 941 2389 
L 941 2758 
L 474 2758 
L 474 0 
L 960 0 
L 960 1559 
C 960 1964 1114 2428 1549 2428 
C 2112 2428 2131 2048 2131 1829 
L 2131 0 
L 2618 0 
L 2618 1877 
z
" transform="scale(0.015625)"/>
      </defs>
      <use xlink:href="#CMSS17-73" transform="scale(0.996264)"/>
      <use xlink:href="#CMSS17-65" transform="translate(35.913542 0) scale(0.996264)"/>
      <use xlink:href="#CMSS17-72" transform="translate(77.552364 0) scale(0.996264)"/>
      <use xlink:href="#CMSS17-75" transform="translate(109.462137 0) scale(0.996264)"/>
      <use xlink:href="#CMSS17-6d" transform="translate(157.66708 0) scale(0.996264)"/>
      <use xlink:href="#CMSS17-63" transform="translate(265.623829 0) scale(0.996264)"/>
      <use xlink:href="#CMSS17-72" transform="translate(307.262652 0) scale(0.996264)"/>
      <use xlink:href="#CMSS17-65" transform="translate(339.172424 0) scale(0.996264)"/>
      <use xlink:href="#CMSS17-61" transform="translate(380.811246 0) scale(0.996264)"/>
      <use xlink:href="#CMSS17-74" transform="translate(425.733167 0) scale(0.996264)"/>
      <use xlink:href="#CMSS17-69" transform="translate(459.564733 0) scale(0.996264)"/>
      <use xlink:href="#CMSS17-6e" transform="translate(481.745456 0) scale(0.996264)"/>
      <use xlink:href="#CMSS17-69" transform="translate(529.9504 0) scale(0.996264)"/>
      <use xlink:href="#CMSS17-6e" transform="translate(552.131123 0) scale(0.996264)"/>
      <use xlink:href="#CMSS17-65" transform="translate(600.336066 0) scale(0.996264)"/>
      <path d="M 237.517345 0 
L 265.623829 0 
L 265.623829 0.3985 
L 237.517345 0.3985 
L 237.517345 0 
z
"/>
     </g>
    </g>
   </g>
   <g id="PathCollection_1">
    <defs>
     <path id="m46352a971f" d="M 0 3 
C 0.795609 3 1.55874 2.683901 2.12132 2.12132 
C 2.683901 1.55874 3 0.795609 3 0 
C 3 -0.795609 2.683901 -1.55874 2.12132 -2.12132 
C 1.55874 -2.683901 0.795609 -3 0 -3 
C -0.795609 -3 -1.55874 -2.683901 -2.12132 -2.12132 
C -2.683901 -1.55874 -3 -0.795609 -3 0 
C -3 0.795609 -2.683901 1.55874 -2.12132 2.12132 
C -1.55874 2.683901 -0.795609 3 0 3 
z
" style="stroke: #1e90ff"/>
    </defs>
    <g clip-path="url(#p0d07a39b41)">
     <use xlink:href="#m46352a971f" x="225.628079" y="259.242843" style="fill: #1e90ff; stroke: #1e90ff"/>
     <use xlink:href="#m46352a971f" x="307.952822" y="256.779372" style="fill: #1e90ff; stroke: #1e90ff"/>
     <use xlink:href="#m46352a971f" x="310.866972" y="241.998545" style="fill: #1e90ff; stroke: #1e90ff"/>
     <use xlink:href="#m46352a971f" x="208.871715" y="249.388959" style="fill: #1e90ff; stroke: #1e90ff"/>
     <use xlink:href="#m46352a971f" x="298.481834" y="259.242843" style="fill: #1e90ff; stroke: #1e90ff"/>
     <use xlink:href="#m46352a971f" x="115.618909" y="224.754248" style="fill: #1e90ff; stroke: #1e90ff"/>
     <use xlink:href="#m46352a971f" x="256.487494" y="238.796033" style="fill: #1e90ff; stroke: #1e90ff"/>
     <use xlink:href="#m46352a971f" x="166.616538" y="175.484826" style="fill: #1e90ff; stroke: #1e90ff"/>
     <use xlink:href="#m46352a971f" x="257.683731" y="237.071603" style="fill: #1e90ff; stroke: #1e90ff"/>
     <use xlink:href="#m46352a971f" x="332.723099" y="185.338711" style="fill: #1e90ff; stroke: #1e90ff"/>
     <use xlink:href="#m46352a971f" x="284.639621" y="259.242843" style="fill: #1e90ff; stroke: #1e90ff"/>
     <use xlink:href="#m46352a971f" x="201.58634" y="259.242843" style="fill: #1e90ff; stroke: #1e90ff"/>
     <use xlink:href="#m46352a971f" x="128.004047" y="237.071603" style="fill: #1e90ff; stroke: #1e90ff"/>
     <use xlink:href="#m46352a971f" x="302.853059" y="217.363835" style="fill: #1e90ff; stroke: #1e90ff"/>
     <use xlink:href="#m46352a971f" x="230.727842" y="197.656066" style="fill: #1e90ff; stroke: #1e90ff"/>
     <use xlink:href="#m46352a971f" x="210.328791" y="254.315901" style="fill: #1e90ff; stroke: #1e90ff"/>
     <use xlink:href="#m46352a971f" x="163.702387" y="256.779372" style="fill: #1e90ff; stroke: #1e90ff"/>
     <use xlink:href="#m46352a971f" x="173.173375" y="237.071603" style="fill: #1e90ff; stroke: #1e90ff"/>
     <use xlink:href="#m46352a971f" x="221.985391" y="227.217719" style="fill: #1e90ff; stroke: #1e90ff"/>
     <use xlink:href="#m46352a971f" x="176.087526" y="269.096727" style="fill: #1e90ff; stroke: #1e90ff"/>
     <use xlink:href="#m46352a971f" x="262.054957" y="261.706314" style="fill: #1e90ff; stroke: #1e90ff"/>
     <use xlink:href="#m46352a971f" x="287.553771" y="254.315901" style="fill: #1e90ff; stroke: #1e90ff"/>
     <use xlink:href="#m46352a971f" x="255.498119" y="261.706314" style="fill: #1e90ff; stroke: #1e90ff"/>
     <use xlink:href="#m46352a971f" x="320.33796" y="251.85243" style="fill: #1e90ff; stroke: #1e90ff"/>
     <use xlink:href="#m46352a971f" x="227.085154" y="239.535074" style="fill: #1e90ff; stroke: #1e90ff"/>
     <use xlink:href="#m46352a971f" x="347.29385" y="52.311273" style="fill: #1e90ff; stroke: #1e90ff"/>
     <use xlink:href="#m46352a971f" x="290.467921" y="237.071603" style="fill: #1e90ff; stroke: #1e90ff"/>
     <use xlink:href="#m46352a971f" x="248.941281" y="261.706314" style="fill: #1e90ff; stroke: #1e90ff"/>
     <use xlink:href="#m46352a971f" x="369.149976" y="249.388959" style="fill: #1e90ff; stroke: #1e90ff"/>
     <use xlink:href="#m46352a971f" x="151.317249" y="212.436893" style="fill: #1e90ff; stroke: #1e90ff"/>
     <use xlink:href="#m46352a971f" x="326.894798" y="209.973421" style="fill: #1e90ff; stroke: #1e90ff"/>
     <use xlink:href="#m46352a971f" x="256.487494" y="256.779372" style="fill: #1e90ff; stroke: #1e90ff"/>
     <use xlink:href="#m46352a971f" x="222.713929" y="192.729124" style="fill: #1e90ff; stroke: #1e90ff"/>
     <use xlink:href="#m46352a971f" x="213.242941" y="232.144661" style="fill: #1e90ff; stroke: #1e90ff"/>
     <use xlink:href="#m46352a971f" x="185.558514" y="259.242843" style="fill: #1e90ff; stroke: #1e90ff"/>
     <use xlink:href="#m46352a971f" x="400.477091" y="234.608132" style="fill: #1e90ff; stroke: #1e90ff"/>
     <use xlink:href="#m46352a971f" x="256.487494" y="238.796033" style="fill: #1e90ff; stroke: #1e90ff"/>
     <use xlink:href="#m46352a971f" x="185.558514" y="264.169785" style="fill: #1e90ff; stroke: #1e90ff"/>
     <use xlink:href="#m46352a971f" x="320.33796" y="259.242843" style="fill: #1e90ff; stroke: #1e90ff"/>
     <use xlink:href="#m46352a971f" x="304.310134" y="209.973421" style="fill: #1e90ff; stroke: #1e90ff"/>
     <use xlink:href="#m46352a971f" x="395.377328" y="256.779372" style="fill: #1e90ff; stroke: #1e90ff"/>
     <use xlink:href="#m46352a971f" x="256.487494" y="238.796033" style="fill: #1e90ff; stroke: #1e90ff"/>
     <use xlink:href="#m46352a971f" x="256.487494" y="238.796033" style="fill: #1e90ff; stroke: #1e90ff"/>
     <use xlink:href="#m46352a971f" x="280.996933" y="244.462017" style="fill: #1e90ff; stroke: #1e90ff"/>
     <use xlink:href="#m46352a971f" x="204.50049" y="251.85243" style="fill: #1e90ff; stroke: #1e90ff"/>
     <use xlink:href="#m46352a971f" x="176.087526" y="140.996231" style="fill: #1e90ff; stroke: #1e90ff"/>
     <use xlink:href="#m46352a971f" x="242.384443" y="244.462017" style="fill: #1e90ff; stroke: #1e90ff"/>
     <use xlink:href="#m46352a971f" x="265.697644" y="256.779372" style="fill: #1e90ff; stroke: #1e90ff"/>
    </g>
   </g>
   <g id="line2d_9">
    <path d="M 115.618909 242.020377 
L 128.004047 239.693041 
L 151.317249 236.892222 
L 163.702387 236.159243 
L 166.616538 236.056069 
L 173.173375 235.915051 
L 176.087526 235.891516 
L 176.087526 235.891516 
L 185.558514 235.972554 
L 185.558514 235.972554 
L 201.58634 236.612405 
L 204.50049 236.790411 
L 208.871715 237.090048 
L 210.328791 237.198333 
L 213.242941 237.42707 
L 221.985391 238.205308 
L 222.713929 238.276053 
L 225.628079 238.567573 
L 227.085154 238.718329 
L 230.727842 239.1092 
L 242.384443 240.482325 
L 248.941281 241.326263 
L 255.498119 242.213262 
L 256.487494 242.350424 
L 256.487494 242.350424 
L 256.487494 242.350424 
L 256.487494 242.350424 
L 256.487494 242.350424 
L 257.683731 242.517336 
L 262.054957 243.136603 
L 265.697644 243.6628 
L 280.996933 245.946671 
L 284.639621 246.501841 
L 287.553771 246.947473 
L 290.467921 247.393796 
L 298.481834 248.619929 
L 302.853059 249.284663 
L 304.310134 249.505136 
L 307.952822 250.053204 
L 310.866972 250.487846 
L 320.33796 251.869559 
L 320.33796 251.869559 
L 326.894798 252.790562 
L 332.723099 253.578534 
L 347.29385 255.390238 
L 369.149976 257.550347 
L 395.377328 258.945622 
L 400.477091 259.031553 
" clip-path="url(#p0d07a39b41)" style="fill: none; stroke: #ff0000; stroke-width: 1.5; stroke-linecap: round"/>
   </g>
   <g id="patch_3">
    <path d="M 101.376 279.936 
L 101.376 41.472 
" style="fill: none; stroke: #ffffff; stroke-width: 1.25; stroke-linejoin: miter; stroke-linecap: square"/>
   </g>
   <g id="patch_4">
    <path d="M 414.72 279.936 
L 414.72 41.472 
" style="fill: none; stroke: #ffffff; stroke-width: 1.25; stroke-linejoin: miter; stroke-linecap: square"/>
   </g>
   <g id="patch_5">
    <path d="M 101.376 279.936 
L 414.72 279.936 
" style="fill: none; stroke: #ffffff; stroke-width: 1.25; stroke-linejoin: miter; stroke-linecap: square"/>
   </g>
   <g id="patch_6">
    <path d="M 101.376 41.472 
L 414.72 41.472 
" style="fill: none; stroke: #ffffff; stroke-width: 1.25; stroke-linejoin: miter; stroke-linecap: square"/>
   </g>
   <g id="text_11">
    <!-- Cubic Linear Model -->
    <g style="fill: #262626" transform="translate(189.411284 35.472) scale(0.18 -0.18)">
     <defs>
      <path id="CMSS17-43" d="M 3501 714 
C 3072 427 2874 344 2355 344 
C 1459 344 934 1303 934 2179 
C 934 3112 1472 4032 2381 4032 
C 2790 4032 3059 3918 3386 3715 
L 3475 4217 
C 3168 4370 2778 4440 2387 4440 
C 1158 4440 397 3316 397 2179 
C 397 927 1299 -64 2323 -64 
C 2874 -64 3066 -19 3539 280 
L 3501 714 
z
" transform="scale(0.015625)"/>
      <path id="CMSS17-62" d="M 954 4416 
L 480 4416 
L 480 -13 
L 966 -13 
L 966 274 
C 1210 38 1504 -64 1766 -64 
C 2381 -64 2880 549 2880 1352 
C 2880 2086 2496 2756 1926 2756 
C 1523 2756 1165 2591 954 2419 
L 954 4416 
z
M 966 2046 
C 1107 2222 1306 2368 1587 2368 
C 1965 2368 2394 2097 2394 1352 
C 2394 558 1882 325 1530 325 
C 1402 325 1267 356 1139 464 
C 966 615 966 709 966 797 
L 966 2046 
z
" transform="scale(0.015625)"/>
      <path id="CMSS17-4c" d="M 1670 414 
C 1594 414 1517 414 1440 414 
L 1101 414 
L 1101 4416 
L 563 4416 
L 563 0 
L 3002 0 
L 3002 414 
L 1670 414 
z
" transform="scale(0.015625)"/>
      <path id="CMSS17-4d" d="M 3194 2371 
L 2886 1473 
C 2835 1307 2662 791 2624 587 
L 2618 587 
C 2598 715 2560 849 2458 1174 
C 2400 1365 2336 1562 2272 1741 
L 1325 4416 
L 576 4416 
L 576 0 
L 1075 0 
L 1075 3900 
L 1082 3900 
C 1082 3894 1139 3613 1530 2499 
L 2374 96 
L 2848 96 
L 3610 2231 
C 3661 2378 3821 2843 3891 3066 
C 3955 3257 4115 3728 4154 3913 
L 4160 3913 
L 4160 0 
L 4666 0 
L 4666 4416 
L 3923 4416 
L 3194 2371 
z
" transform="scale(0.015625)"/>
      <path id="CMSS17-6f" d="M 2829 1356 
C 2829 2176 2221 2816 1504 2816 
C 768 2816 173 2157 173 1356 
C 173 544 787 -64 1498 -64 
C 2227 -64 2829 563 2829 1356 
z
M 1504 337 
C 1050 337 659 709 659 1408 
C 659 2151 1114 2427 1498 2427 
C 1914 2427 2342 2126 2342 1408 
C 2342 683 1926 337 1504 337 
z
" transform="scale(0.015625)"/>
      <path id="CMSS17-64" d="M 2611 4416 
L 2138 4416 
L 2138 2438 
C 1939 2603 1613 2756 1254 2756 
C 672 2756 211 2131 211 1347 
C 211 562 666 -64 1235 -64 
C 1677 -64 1971 172 2125 306 
L 2125 -13 
L 2611 -13 
L 2611 4416 
z
M 2125 836 
C 2125 747 2125 653 1926 482 
C 1798 375 1645 325 1498 325 
C 1152 325 698 576 698 1340 
C 698 2134 1210 2368 1562 2368 
C 1798 2368 1990 2254 2125 2065 
L 2125 836 
z
" transform="scale(0.015625)"/>
     </defs>
     <use xlink:href="#CMSS17-43" transform="scale(0.996264)"/>
     <use xlink:href="#CMSS17-75" transform="translate(59.855772 0) scale(0.996264)"/>
     <use xlink:href="#CMSS17-62" transform="translate(108.060715 0) scale(0.996264)"/>
     <use xlink:href="#CMSS17-69" transform="translate(156.265658 0) scale(0.996264)"/>
     <use xlink:href="#CMSS17-63" transform="translate(178.446381 0) scale(0.996264)"/>
     <use xlink:href="#CMSS17-4c" transform="translate(251.314316 0) scale(0.996264)"/>
     <use xlink:href="#CMSS17-69" transform="translate(302.001421 0) scale(0.996264)"/>
     <use xlink:href="#CMSS17-6e" transform="translate(324.182144 0) scale(0.996264)"/>
     <use xlink:href="#CMSS17-65" transform="translate(372.387087 0) scale(0.996264)"/>
     <use xlink:href="#CMSS17-61" transform="translate(414.025909 0) scale(0.996264)"/>
     <use xlink:href="#CMSS17-72" transform="translate(456.345376 0) scale(0.996264)"/>
     <use xlink:href="#CMSS17-4d" transform="translate(519.484261 0) scale(0.996264)"/>
     <use xlink:href="#CMSS17-6f" transform="translate(601.160291 0) scale(0.996264)"/>
     <use xlink:href="#CMSS17-64" transform="translate(650.606353 0) scale(0.996264)"/>
     <use xlink:href="#CMSS17-65" transform="translate(698.811297 0) scale(0.996264)"/>
     <use xlink:href="#CMSS17-6c" transform="translate(740.450119 0) scale(0.996264)"/>
    </g>
   </g>
  </g>
 </g>
 <defs>
  <clipPath id="p0d07a39b41">
   <rect x="101.376" y="41.472" width="313.344" height="238.464"/>
  </clipPath>
 </defs>
</svg>
