<?xml version="1.0" encoding="utf-8" standalone="no"?>
<!DOCTYPE svg PUBLIC "-//W3C//DTD SVG 1.1//EN"
  "http://www.w3.org/Graphics/SVG/1.1/DTD/svg11.dtd">
<svg xmlns:xlink="http://www.w3.org/1999/xlink" width="460.8pt" height="345.6pt" viewBox="0 0 460.8 345.6" xmlns="http://www.w3.org/2000/svg" version="1.1">
 <metadata>
  <rdf:RDF xmlns:dc="http://purl.org/dc/elements/1.1/" xmlns:cc="http://creativecommons.org/ns#" xmlns:rdf="http://www.w3.org/1999/02/22-rdf-syntax-ns#">
   <cc:Work>
    <dc:type rdf:resource="http://purl.org/dc/dcmitype/StillImage"/>
    <dc:date>2023-04-12T17:47:32.995061</dc:date>
    <dc:format>image/svg+xml</dc:format>
    <dc:creator>
     <cc:Agent>
      <dc:title>Matplotlib v3.7.1, https://matplotlib.org/</dc:title>
     </cc:Agent>
    </dc:creator>
   </cc:Work>
  </rdf:RDF>
 </metadata>
 <defs>
  <style type="text/css">*{stroke-linejoin: round; stroke-linecap: butt}</style>
 </defs>
 <g id="figure_1">
  <g id="patch_1">
   <path d="M 0 345.6 
L 460.8 345.6 
L 460.8 0 
L 0 0 
z
" style="fill: #ffffff"/>
  </g>
  <g id="axes_1">
   <g id="patch_2">
    <path d="M 101.376 279.936 
L 414.72 279.936 
L 414.72 41.472 
L 101.376 41.472 
z
" style="fill: #eaeaf2"/>
   </g>
   <g id="matplotlib.axis_1">
    <g id="xtick_1">
     <g id="line2d_1">
      <path d="M 167.568459 279.936 
L 167.568459 41.472 
" clip-path="url(#p693cb3c455)" style="fill: none; stroke: #ffffff; stroke-linecap: round"/>
     </g>
     <g id="text_1">
      <!-- $\mathdefault{11.5}$ -->
      <g style="fill: #262626" transform="translate(153.261164 300.851505) scale(0.165 -0.165)">
       <defs>
        <path id="CMR17-31" d="M 1702 4058 
C 1702 4192 1696 4192 1606 4192 
C 1357 3916 979 3827 621 3827 
C 602 3827 570 3827 563 3808 
C 557 3795 557 3782 557 3648 
C 755 3648 1088 3686 1344 3839 
L 1344 461 
C 1344 236 1331 160 781 160 
L 589 160 
L 589 0 
C 896 0 1216 0 1523 0 
C 1830 0 2150 0 2458 0 
L 2458 160 
L 2266 160 
C 1715 160 1702 230 1702 458 
L 1702 4058 
z
" transform="scale(0.015625)"/>
        <path id="CMMI12-3a" d="M 1178 307 
C 1178 492 1024 619 870 619 
C 685 619 557 466 557 313 
C 557 128 710 0 864 0 
C 1050 0 1178 153 1178 307 
z
" transform="scale(0.015625)"/>
        <path id="CMR17-35" d="M 730 3692 
C 794 3666 1056 3584 1325 3584 
C 1920 3584 2246 3911 2432 4100 
C 2432 4157 2432 4192 2394 4192 
C 2387 4192 2374 4192 2323 4163 
C 2099 4058 1837 3973 1517 3973 
C 1325 3973 1037 3999 723 4139 
C 653 4171 640 4171 634 4171 
C 602 4171 595 4164 595 4037 
L 595 2203 
C 595 2089 595 2057 659 2057 
C 691 2057 704 2070 736 2114 
C 941 2401 1222 2522 1542 2522 
C 1766 2522 2246 2382 2246 1289 
C 2246 1085 2246 715 2054 421 
C 1894 159 1645 25 1370 25 
C 947 25 518 320 403 814 
C 429 807 480 795 506 795 
C 589 795 749 840 749 1038 
C 749 1210 627 1280 506 1280 
C 358 1280 262 1190 262 1011 
C 262 454 704 -128 1382 -128 
C 2042 -128 2669 440 2669 1264 
C 2669 2030 2170 2624 1549 2624 
C 1222 2624 947 2503 730 2274 
L 730 3692 
z
" transform="scale(0.015625)"/>
       </defs>
       <use xlink:href="#CMR17-31" transform="scale(0.996264)"/>
       <use xlink:href="#CMR17-31" transform="translate(45.690477 0) scale(0.996264)"/>
       <use xlink:href="#CMMI12-3a" transform="translate(91.380954 0) scale(0.996264)"/>
       <use xlink:href="#CMR17-35" transform="translate(118.478131 0) scale(0.996264)"/>
      </g>
     </g>
    </g>
    <g id="xtick_2">
     <g id="line2d_2">
      <path d="M 243.131555 279.936 
L 243.131555 41.472 
" clip-path="url(#p693cb3c455)" style="fill: none; stroke: #ffffff; stroke-linecap: round"/>
     </g>
     <g id="text_2">
      <!-- $\mathdefault{12.0}$ -->
      <g style="fill: #262626" transform="translate(228.82426 300.851505) scale(0.165 -0.165)">
       <defs>
        <path id="CMR17-32" d="M 2669 989 
L 2554 989 
C 2490 536 2438 459 2413 420 
C 2381 369 1920 369 1830 369 
L 602 369 
C 832 619 1280 1072 1824 1597 
C 2214 1967 2669 2402 2669 3035 
C 2669 3790 2067 4224 1395 4224 
C 691 4224 262 3604 262 3030 
C 262 2780 448 2748 525 2748 
C 589 2748 781 2787 781 3010 
C 781 3207 614 3264 525 3264 
C 486 3264 448 3258 422 3245 
C 544 3790 915 4058 1306 4058 
C 1862 4058 2227 3617 2227 3035 
C 2227 2479 1901 2000 1536 1584 
L 262 146 
L 262 0 
L 2515 0 
L 2669 989 
z
" transform="scale(0.015625)"/>
        <path id="CMR17-30" d="M 2688 2025 
C 2688 2416 2682 3080 2413 3591 
C 2176 4039 1798 4198 1466 4198 
C 1158 4198 768 4058 525 3597 
C 269 3118 243 2524 243 2025 
C 243 1661 250 1106 448 619 
C 723 -39 1216 -128 1466 -128 
C 1760 -128 2208 -7 2470 600 
C 2662 1042 2688 1559 2688 2025 
z
M 1466 -26 
C 1056 -26 813 325 723 812 
C 653 1188 653 1738 653 2096 
C 653 2588 653 2997 736 3387 
C 858 3929 1216 4096 1466 4096 
C 1728 4096 2067 3923 2189 3400 
C 2272 3036 2278 2607 2278 2096 
C 2278 1680 2278 1169 2202 792 
C 2067 95 1690 -26 1466 -26 
z
" transform="scale(0.015625)"/>
       </defs>
       <use xlink:href="#CMR17-31" transform="scale(0.996264)"/>
       <use xlink:href="#CMR17-32" transform="translate(45.690477 0) scale(0.996264)"/>
       <use xlink:href="#CMMI12-3a" transform="translate(91.380954 0) scale(0.996264)"/>
       <use xlink:href="#CMR17-30" transform="translate(118.478131 0) scale(0.996264)"/>
      </g>
     </g>
    </g>
    <g id="xtick_3">
     <g id="line2d_3">
      <path d="M 318.69465 279.936 
L 318.69465 41.472 
" clip-path="url(#p693cb3c455)" style="fill: none; stroke: #ffffff; stroke-linecap: round"/>
     </g>
     <g id="text_3">
      <!-- $\mathdefault{12.5}$ -->
      <g style="fill: #262626" transform="translate(304.387356 300.851505) scale(0.165 -0.165)">
       <use xlink:href="#CMR17-31" transform="scale(0.996264)"/>
       <use xlink:href="#CMR17-32" transform="translate(45.690477 0) scale(0.996264)"/>
       <use xlink:href="#CMMI12-3a" transform="translate(91.380954 0) scale(0.996264)"/>
       <use xlink:href="#CMR17-35" transform="translate(118.478131 0) scale(0.996264)"/>
      </g>
     </g>
    </g>
    <g id="xtick_4">
     <g id="line2d_4">
      <path d="M 394.257746 279.936 
L 394.257746 41.472 
" clip-path="url(#p693cb3c455)" style="fill: none; stroke: #ffffff; stroke-linecap: round"/>
     </g>
     <g id="text_4">
      <!-- $\mathdefault{13.0}$ -->
      <g style="fill: #262626" transform="translate(379.950452 300.851505) scale(0.165 -0.165)">
       <defs>
        <path id="CMR17-33" d="M 1414 2157 
C 1984 2157 2234 1662 2234 1090 
C 2234 320 1824 25 1453 25 
C 1114 25 563 194 390 693 
C 422 680 454 680 486 680 
C 640 680 755 782 755 948 
C 755 1133 614 1216 486 1216 
C 378 1216 211 1165 211 926 
C 211 335 787 -128 1466 -128 
C 2176 -128 2720 430 2720 1085 
C 2720 1707 2208 2157 1600 2227 
C 2086 2328 2554 2756 2554 3329 
C 2554 3820 2048 4179 1472 4179 
C 890 4179 378 3829 378 3329 
C 378 3110 544 3072 627 3072 
C 762 3072 877 3155 877 3321 
C 877 3486 762 3569 627 3569 
C 602 3569 570 3569 544 3557 
C 730 3959 1235 4032 1459 4032 
C 1683 4032 2106 3925 2106 3320 
C 2106 3143 2080 2828 1862 2550 
C 1670 2304 1453 2304 1242 2284 
C 1210 2284 1062 2269 1037 2269 
C 992 2263 966 2257 966 2208 
C 966 2163 973 2157 1101 2157 
L 1414 2157 
z
" transform="scale(0.015625)"/>
       </defs>
       <use xlink:href="#CMR17-31" transform="scale(0.996264)"/>
       <use xlink:href="#CMR17-33" transform="translate(45.690477 0) scale(0.996264)"/>
       <use xlink:href="#CMMI12-3a" transform="translate(91.380954 0) scale(0.996264)"/>
       <use xlink:href="#CMR17-30" transform="translate(118.478131 0) scale(0.996264)"/>
      </g>
     </g>
    </g>
    <g id="text_5">
     <!-- platelets -->
     <g style="fill: #262626" transform="translate(228.857188 320.501132) scale(0.18 -0.18)">
      <defs>
       <path id="CMSS17-70" d="M 966 333 
C 1178 129 1466 -5 1773 -5 
C 2368 -5 2880 603 2880 1412 
C 2880 2159 2496 2816 1946 2816 
C 1626 2816 1242 2702 954 2472 
L 954 2765 
L 480 2765 
L 480 -1216 
L 966 -1216 
L 966 333 
z
M 966 2100 
C 1018 2176 1235 2415 1587 2415 
C 2035 2415 2394 1960 2394 1412 
C 2394 787 1958 384 1530 384 
C 1402 384 1267 415 1139 523 
C 966 674 966 768 966 857 
L 966 2100 
z
" transform="scale(0.015625)"/>
       <path id="CMSS17-6c" d="M 947 4416 
L 474 4416 
L 474 0 
L 947 0 
L 947 4416 
z
" transform="scale(0.015625)"/>
       <path id="CMSS17-61" d="M 2406 1791 
C 2406 2392 1978 2808 1402 2808 
C 1120 2808 813 2757 461 2553 
L 499 2135 
C 659 2248 934 2432 1395 2432 
C 1722 2432 1920 2180 1920 1782 
L 1920 1536 
C 896 1536 256 1238 256 726 
C 256 461 416 -64 947 -64 
C 1043 -64 1562 -64 1933 217 
L 1933 -19 
L 2406 -19 
L 2406 1791 
z
M 1920 816 
C 1920 701 1920 548 1728 434 
C 1562 325 1350 325 1261 325 
C 941 325 723 511 723 744 
C 723 1211 1722 1211 1920 1211 
L 1920 816 
z
" transform="scale(0.015625)"/>
       <path id="CMSS17-74" d="M 1069 2368 
L 1901 2368 
L 1901 2737 
L 1069 2737 
L 1069 3520 
L 614 3520 
L 614 2737 
L 109 2737 
L 109 2368 
L 602 2368 
L 602 749 
C 602 384 685 -64 1107 -64 
C 1427 -64 1722 25 2003 172 
L 1901 548 
C 1747 414 1562 337 1363 337 
C 1082 337 1069 696 1069 856 
L 1069 2368 
z
" transform="scale(0.015625)"/>
       <path id="CMSS17-65" d="M 2502 1377 
C 2502 1590 2490 2003 2285 2345 
C 2061 2713 1696 2816 1421 2816 
C 755 2816 192 2188 192 1375 
C 192 582 774 -64 1510 -64 
C 1798 -64 2150 19 2470 248 
C 2470 274 2458 414 2451 420 
C 2451 433 2432 630 2432 656 
C 2125 407 1773 325 1517 325 
C 1107 325 666 667 646 1377 
L 2502 1377 
z
M 698 1728 
C 781 2084 1062 2421 1421 2421 
C 1517 2421 1965 2421 2080 1728 
L 698 1728 
z
" transform="scale(0.015625)"/>
       <path id="CMSS17-73" d="M 2061 2627 
C 1683 2807 1389 2807 1197 2807 
C 742 2807 198 2648 198 2003 
C 198 1359 902 1218 1094 1179 
C 1389 1122 1715 1058 1715 740 
C 1715 337 1254 337 1171 337 
C 915 337 563 407 243 638 
L 166 210 
C 531 0 883 -64 1178 -64 
C 1965 -64 2163 416 2163 781 
C 2163 1094 1984 1305 1862 1401 
C 1651 1568 1574 1587 1050 1696 
C 960 1709 646 1779 646 2066 
C 646 2432 1050 2432 1139 2432 
C 1555 2432 1811 2303 1984 2208 
L 2061 2627 
z
" transform="scale(0.015625)"/>
      </defs>
      <use xlink:href="#CMSS17-70" transform="scale(0.996264)"/>
      <use xlink:href="#CMSS17-6c" transform="translate(48.204943 0) scale(0.996264)"/>
      <use xlink:href="#CMSS17-61" transform="translate(70.385666 0) scale(0.996264)"/>
      <use xlink:href="#CMSS17-74" transform="translate(115.307587 0) scale(0.996264)"/>
      <use xlink:href="#CMSS17-65" transform="translate(149.139153 0) scale(0.996264)"/>
      <use xlink:href="#CMSS17-6c" transform="translate(190.777976 0) scale(0.996264)"/>
      <use xlink:href="#CMSS17-65" transform="translate(212.958699 0) scale(0.996264)"/>
      <use xlink:href="#CMSS17-74" transform="translate(254.597521 0) scale(0.996264)"/>
      <use xlink:href="#CMSS17-73" transform="translate(288.429087 0) scale(0.996264)"/>
     </g>
    </g>
   </g>
   <g id="matplotlib.axis_2">
    <g id="ytick_1">
     <g id="line2d_5">
      <path d="M 101.376 268.243808 
L 414.72 268.243808 
" clip-path="url(#p693cb3c455)" style="fill: none; stroke: #ffffff; stroke-linecap: round"/>
     </g>
     <g id="text_6">
      <!-- $\mathdefault{−0.5}$ -->
      <g style="fill: #262626" transform="translate(58.523837 273.95156) scale(0.165 -0.165)">
       <defs>
        <path id="CMSY10-0" d="M 4218 1472 
C 4326 1472 4442 1472 4442 1600 
C 4442 1728 4326 1728 4218 1728 
L 755 1728 
C 646 1728 531 1728 531 1600 
C 531 1472 646 1472 755 1472 
L 4218 1472 
z
" transform="scale(0.015625)"/>
       </defs>
       <use xlink:href="#CMSY10-0" transform="scale(0.996264)"/>
       <use xlink:href="#CMR17-30" transform="translate(77.487468 0) scale(0.996264)"/>
       <use xlink:href="#CMMI12-3a" transform="translate(123.177945 0) scale(0.996264)"/>
       <use xlink:href="#CMR17-35" transform="translate(150.275122 0) scale(0.996264)"/>
      </g>
     </g>
    </g>
    <g id="ytick_2">
     <g id="line2d_6">
      <path d="M 101.376 228.850264 
L 414.72 228.850264 
" clip-path="url(#p693cb3c455)" style="fill: none; stroke: #ffffff; stroke-linecap: round"/>
     </g>
     <g id="text_7">
      <!-- $\mathdefault{0.0}$ -->
      <g style="fill: #262626" transform="translate(71.309265 234.558016) scale(0.165 -0.165)">
       <use xlink:href="#CMR17-30" transform="scale(0.996264)"/>
       <use xlink:href="#CMMI12-3a" transform="translate(45.690477 0) scale(0.996264)"/>
       <use xlink:href="#CMR17-30" transform="translate(72.787654 0) scale(0.996264)"/>
      </g>
     </g>
    </g>
    <g id="ytick_3">
     <g id="line2d_7">
      <path d="M 101.376 189.45672 
L 414.72 189.45672 
" clip-path="url(#p693cb3c455)" style="fill: none; stroke: #ffffff; stroke-linecap: round"/>
     </g>
     <g id="text_8">
      <!-- $\mathdefault{0.5}$ -->
      <g style="fill: #262626" transform="translate(71.309265 195.164472) scale(0.165 -0.165)">
       <use xlink:href="#CMR17-30" transform="scale(0.996264)"/>
       <use xlink:href="#CMMI12-3a" transform="translate(45.690477 0) scale(0.996264)"/>
       <use xlink:href="#CMR17-35" transform="translate(72.787654 0) scale(0.996264)"/>
      </g>
     </g>
    </g>
    <g id="ytick_4">
     <g id="line2d_8">
      <path d="M 101.376 150.063176 
L 414.72 150.063176 
" clip-path="url(#p693cb3c455)" style="fill: none; stroke: #ffffff; stroke-linecap: round"/>
     </g>
     <g id="text_9">
      <!-- $\mathdefault{1.0}$ -->
      <g style="fill: #262626" transform="translate(71.309265 155.770928) scale(0.165 -0.165)">
       <use xlink:href="#CMR17-31" transform="scale(0.996264)"/>
       <use xlink:href="#CMMI12-3a" transform="translate(45.690477 0) scale(0.996264)"/>
       <use xlink:href="#CMR17-30" transform="translate(72.787654 0) scale(0.996264)"/>
      </g>
     </g>
    </g>
    <g id="ytick_5">
     <g id="line2d_9">
      <path d="M 101.376 110.669632 
L 414.72 110.669632 
" clip-path="url(#p693cb3c455)" style="fill: none; stroke: #ffffff; stroke-linecap: round"/>
     </g>
     <g id="text_10">
      <!-- $\mathdefault{1.5}$ -->
      <g style="fill: #262626" transform="translate(71.309265 116.377385) scale(0.165 -0.165)">
       <use xlink:href="#CMR17-31" transform="scale(0.996264)"/>
       <use xlink:href="#CMMI12-3a" transform="translate(45.690477 0) scale(0.996264)"/>
       <use xlink:href="#CMR17-35" transform="translate(72.787654 0) scale(0.996264)"/>
      </g>
     </g>
    </g>
    <g id="ytick_6">
     <g id="line2d_10">
      <path d="M 101.376 71.276088 
L 414.72 71.276088 
" clip-path="url(#p693cb3c455)" style="fill: none; stroke: #ffffff; stroke-linecap: round"/>
     </g>
     <g id="text_11">
      <!-- $\mathdefault{2.0}$ -->
      <g style="fill: #262626" transform="translate(71.309265 76.983841) scale(0.165 -0.165)">
       <use xlink:href="#CMR17-32" transform="scale(0.996264)"/>
       <use xlink:href="#CMMI12-3a" transform="translate(45.690477 0) scale(0.996264)"/>
       <use xlink:href="#CMR17-30" transform="translate(72.787654 0) scale(0.996264)"/>
      </g>
     </g>
    </g>
    <g id="text_12">
     <!-- serum_creatinine -->
     <g style="fill: #262626" transform="translate(51.035773 218.48168) rotate(-90) scale(0.18 -0.18)">
      <defs>
       <path id="CMSS17-72" d="M 954 1363 
C 954 1965 1395 2368 1958 2368 
L 1958 2789 
C 1549 2789 1165 2585 934 2253 
L 934 2758 
L 480 2758 
L 480 0 
L 954 0 
L 954 1363 
z
" transform="scale(0.015625)"/>
       <path id="CMSS17-75" d="M 2618 2739 
L 2131 2739 
L 2131 972 
C 2131 498 1786 306 1421 306 
C 998 306 960 447 960 709 
L 960 2739 
L 474 2739 
L 474 678 
C 474 179 646 -64 1088 -64 
C 1306 -64 1798 -13 2144 306 
L 2144 0 
L 2618 0 
L 2618 2739 
z
" transform="scale(0.015625)"/>
       <path id="CMSS17-6d" d="M 4288 1877 
C 4288 2308 4179 2816 3462 2816 
C 2982 2816 2694 2516 2566 2331 
C 2451 2670 2182 2816 1798 2816 
C 1363 2816 1088 2568 941 2389 
L 941 2758 
L 474 2758 
L 474 0 
L 960 0 
L 960 1559 
C 960 1939 1101 2428 1555 2428 
C 2138 2428 2138 2016 2138 1829 
L 2138 0 
L 2624 0 
L 2624 1559 
C 2624 1939 2765 2428 3219 2428 
C 3802 2428 3802 2016 3802 1829 
L 3802 0 
L 4288 0 
L 4288 1877 
z
" transform="scale(0.015625)"/>
       <path id="CMSS17-63" d="M 2464 2541 
C 2464 2585 2170 2714 2093 2739 
C 1882 2816 1613 2816 1542 2816 
C 710 2816 211 2093 211 1363 
C 211 595 768 -64 1517 -64 
C 1946 -64 2253 76 2502 242 
L 2464 664 
C 2189 453 1869 337 1523 337 
C 1024 337 698 774 698 1369 
C 698 1831 909 2414 1549 2414 
C 1901 2414 2099 2343 2394 2145 
L 2464 2541 
z
" transform="scale(0.015625)"/>
       <path id="CMSS17-69" d="M 979 4183 
L 442 4183 
L 442 3648 
L 979 3648 
L 979 4183 
z
M 947 2739 
L 474 2739 
L 474 0 
L 947 0 
L 947 2739 
z
" transform="scale(0.015625)"/>
       <path id="CMSS17-6e" d="M 2618 1877 
C 2618 2283 2522 2816 1798 2816 
C 1389 2816 1120 2606 941 2389 
L 941 2758 
L 474 2758 
L 474 0 
L 960 0 
L 960 1559 
C 960 1964 1114 2428 1549 2428 
C 2112 2428 2131 2048 2131 1829 
L 2131 0 
L 2618 0 
L 2618 1877 
z
" transform="scale(0.015625)"/>
      </defs>
      <use xlink:href="#CMSS17-73" transform="scale(0.996264)"/>
      <use xlink:href="#CMSS17-65" transform="translate(35.913542 0) scale(0.996264)"/>
      <use xlink:href="#CMSS17-72" transform="translate(77.552364 0) scale(0.996264)"/>
      <use xlink:href="#CMSS17-75" transform="translate(109.462137 0) scale(0.996264)"/>
      <use xlink:href="#CMSS17-6d" transform="translate(157.66708 0) scale(0.996264)"/>
      <use xlink:href="#CMSS17-63" transform="translate(265.623829 0) scale(0.996264)"/>
      <use xlink:href="#CMSS17-72" transform="translate(307.262652 0) scale(0.996264)"/>
      <use xlink:href="#CMSS17-65" transform="translate(339.172424 0) scale(0.996264)"/>
      <use xlink:href="#CMSS17-61" transform="translate(380.811246 0) scale(0.996264)"/>
      <use xlink:href="#CMSS17-74" transform="translate(425.733167 0) scale(0.996264)"/>
      <use xlink:href="#CMSS17-69" transform="translate(459.564733 0) scale(0.996264)"/>
      <use xlink:href="#CMSS17-6e" transform="translate(481.745456 0) scale(0.996264)"/>
      <use xlink:href="#CMSS17-69" transform="translate(529.9504 0) scale(0.996264)"/>
      <use xlink:href="#CMSS17-6e" transform="translate(552.131123 0) scale(0.996264)"/>
      <use xlink:href="#CMSS17-65" transform="translate(600.336066 0) scale(0.996264)"/>
      <path d="M 237.517345 0 
L 265.623829 0 
L 265.623829 0.3985 
L 237.517345 0.3985 
L 237.517345 0 
z
"/>
     </g>
    </g>
   </g>
   <g id="PathCollection_1">
    <defs>
     <path id="mf0e4b73c55" d="M 0 3 
C 0.795609 3 1.55874 2.683901 2.12132 2.12132 
C 2.683901 1.55874 3 0.795609 3 0 
C 3 -0.795609 2.683901 -1.55874 2.12132 -2.12132 
C 1.55874 -2.683901 0.795609 -3 0 -3 
C -0.795609 -3 -1.55874 -2.683901 -2.12132 -2.12132 
C -2.683901 -1.55874 -3 -0.795609 -3 0 
C -3 0.795609 -2.683901 1.55874 -2.12132 2.12132 
C -1.55874 2.683901 -0.795609 3 0 3 
z
" style="stroke: #1e90ff"/>
    </defs>
    <g clip-path="url(#p693cb3c455)">
     <use xlink:href="#mf0e4b73c55" x="289.363774" y="228.850264" style="fill: #1e90ff; stroke: #1e90ff"/>
     <use xlink:href="#mf0e4b73c55" x="351.77561" y="221.341052" style="fill: #1e90ff; stroke: #1e90ff"/>
     <use xlink:href="#mf0e4b73c55" x="353.574753" y="187.043609" style="fill: #1e90ff; stroke: #1e90ff"/>
     <use xlink:href="#mf0e4b73c55" x="272.75566" y="202.340596" style="fill: #1e90ff; stroke: #1e90ff"/>
     <use xlink:href="#mf0e4b73c55" x="345.77592" y="228.850264" style="fill: #1e90ff; stroke: #1e90ff"/>
     <use xlink:href="#mf0e4b73c55" x="115.618909" y="159.874632" style="fill: #1e90ff; stroke: #1e90ff"/>
     <use xlink:href="#mf0e4b73c55" x="315.864014" y="181.237969" style="fill: #1e90ff; stroke: #1e90ff"/>
     <use xlink:href="#mf0e4b73c55" x="220.371603" y="112.118957" style="fill: #1e90ff; stroke: #1e90ff"/>
     <use xlink:href="#mf0e4b73c55" x="316.803322" y="178.280465" style="fill: #1e90ff; stroke: #1e90ff"/>
     <use xlink:href="#mf0e4b73c55" x="366.426077" y="119.628168" style="fill: #1e90ff; stroke: #1e90ff"/>
     <use xlink:href="#mf0e4b73c55" x="336.555091" y="228.850264" style="fill: #1e90ff; stroke: #1e90ff"/>
     <use xlink:href="#mf0e4b73c55" x="264.923534" y="228.850264" style="fill: #1e90ff; stroke: #1e90ff"/>
     <use xlink:href="#mf0e4b73c55" x="148.475689" y="178.280465" style="fill: #1e90ff; stroke: #1e90ff"/>
     <use xlink:href="#mf0e4b73c55" x="348.574633" y="150.594849" style="fill: #1e90ff; stroke: #1e90ff"/>
     <use xlink:href="#mf0e4b73c55" x="294.076331" y="130.148718" style="fill: #1e90ff; stroke: #1e90ff"/>
     <use xlink:href="#mf0e4b73c55" x="274.274529" y="214.485679" style="fill: #1e90ff; stroke: #1e90ff"/>
     <use xlink:href="#mf0e4b73c55" x="215.990827" y="221.341052" style="fill: #1e90ff; stroke: #1e90ff"/>
     <use xlink:href="#mf0e4b73c55" x="229.787351" y="178.280465" style="fill: #1e90ff; stroke: #1e90ff"/>
     <use xlink:href="#mf0e4b73c55" x="285.905358" y="163.22778" style="fill: #1e90ff; stroke: #1e90ff"/>
     <use xlink:href="#mf0e4b73c55" x="233.790928" y="269.096727" style="fill: #1e90ff; stroke: #1e90ff"/>
     <use xlink:href="#mf0e4b73c55" x="320.186885" y="237.151312" style="fill: #1e90ff; stroke: #1e90ff"/>
     <use xlink:href="#mf0e4b73c55" x="338.543622" y="214.485679" style="fill: #1e90ff; stroke: #1e90ff"/>
     <use xlink:href="#mf0e4b73c55" x="315.082701" y="237.151312" style="fill: #1e90ff; stroke: #1e90ff"/>
     <use xlink:href="#mf0e4b73c55" x="359.278305" y="208.179348" style="fill: #1e90ff; stroke: #1e90ff"/>
     <use xlink:href="#mf0e4b73c55" x="290.72528" y="182.540264" style="fill: #1e90ff; stroke: #1e90ff"/>
     <use xlink:href="#mf0e4b73c55" x="374.424038" y="52.311273" style="fill: #1e90ff; stroke: #1e90ff"/>
     <use xlink:href="#mf0e4b73c55" x="340.506327" y="178.280465" style="fill: #1e90ff; stroke: #1e90ff"/>
     <use xlink:href="#mf0e4b73c55" x="309.800083" y="237.151312" style="fill: #1e90ff; stroke: #1e90ff"/>
     <use xlink:href="#mf0e4b73c55" x="385.679326" y="202.340596" style="fill: #1e90ff; stroke: #1e90ff"/>
     <use xlink:href="#mf0e4b73c55" x="195.810736" y="144.964806" style="fill: #1e90ff; stroke: #1e90ff"/>
     <use xlink:href="#mf0e4b73c55" x="363.104489" y="142.293801" style="fill: #1e90ff; stroke: #1e90ff"/>
     <use xlink:href="#mf0e4b73c55" x="315.864014" y="221.341052" style="fill: #1e90ff; stroke: #1e90ff"/>
     <use xlink:href="#mf0e4b73c55" x="286.603401" y="125.770531" style="fill: #1e90ff; stroke: #1e90ff"/>
     <use xlink:href="#mf0e4b73c55" x="277.267224" y="170.395181" style="fill: #1e90ff; stroke: #1e90ff"/>
     <use xlink:href="#mf0e4b73c55" x="246.115249" y="228.850264" style="fill: #1e90ff; stroke: #1e90ff"/>
     <use xlink:href="#mf0e4b73c55" x="400.477091" y="174.239216" style="fill: #1e90ff; stroke: #1e90ff"/>
     <use xlink:href="#mf0e4b73c55" x="315.864014" y="181.237969" style="fill: #1e90ff; stroke: #1e90ff"/>
     <use xlink:href="#mf0e4b73c55" x="246.115249" y="246.431095" style="fill: #1e90ff; stroke: #1e90ff"/>
     <use xlink:href="#mf0e4b73c55" x="359.278305" y="228.850264" style="fill: #1e90ff; stroke: #1e90ff"/>
     <use xlink:href="#mf0e4b73c55" x="349.496137" y="142.293801" style="fill: #1e90ff; stroke: #1e90ff"/>
     <use xlink:href="#mf0e4b73c55" x="398.164732" y="221.341052" style="fill: #1e90ff; stroke: #1e90ff"/>
     <use xlink:href="#mf0e4b73c55" x="315.864014" y="181.237969" style="fill: #1e90ff; stroke: #1e90ff"/>
     <use xlink:href="#mf0e4b73c55" x="315.864014" y="181.237969" style="fill: #1e90ff; stroke: #1e90ff"/>
     <use xlink:href="#mf0e4b73c55" x="334.032057" y="191.820047" style="fill: #1e90ff; stroke: #1e90ff"/>
     <use xlink:href="#mf0e4b73c55" x="268.105256" y="208.179348" style="fill: #1e90ff; stroke: #1e90ff"/>
     <use xlink:href="#mf0e4b73c55" x="233.790928" y="90.353758" style="fill: #1e90ff; stroke: #1e90ff"/>
     <use xlink:href="#mf0e4b73c55" x="304.326102" y="191.820047" style="fill: #1e90ff; stroke: #1e90ff"/>
     <use xlink:href="#mf0e4b73c55" x="322.949781" y="221.341052" style="fill: #1e90ff; stroke: #1e90ff"/>
    </g>
   </g>
   <g id="line2d_11">
    <path d="M 115.618909 193.311252 
L 148.475689 194.70723 
L 195.810736 196.718343 
L 215.990827 197.575729 
L 220.371603 197.761854 
L 229.787351 198.161899 
L 233.790928 198.331998 
L 233.790928 198.331998 
L 246.115249 198.855618 
L 246.115249 198.855618 
L 264.923534 199.654721 
L 268.105256 199.789902 
L 272.75566 199.987483 
L 274.274529 200.052015 
L 277.267224 200.179165 
L 285.905358 200.546171 
L 286.603401 200.575829 
L 289.363774 200.693108 
L 290.72528 200.750954 
L 294.076331 200.893329 
L 304.326102 201.328809 
L 309.800083 201.56138 
L 315.082701 201.785822 
L 315.864014 201.819017 
L 315.864014 201.819017 
L 315.864014 201.819017 
L 315.864014 201.819017 
L 315.864014 201.819017 
L 316.803322 201.858925 
L 320.186885 202.002682 
L 322.949781 202.120068 
L 334.032057 202.590918 
L 336.555091 202.698114 
L 338.543622 202.7826 
L 340.506327 202.865989 
L 345.77592 203.089877 
L 348.574633 203.208785 
L 349.496137 203.247937 
L 351.77561 203.344784 
L 353.574753 203.421224 
L 359.278305 203.663549 
L 359.278305 203.663549 
L 363.104489 203.826112 
L 366.426077 203.967235 
L 374.424038 204.307043 
L 385.679326 204.785243 
L 398.164732 205.315708 
L 400.477091 205.413952 
" clip-path="url(#p693cb3c455)" style="fill: none; stroke: #ff0000; stroke-width: 1.5; stroke-linecap: round"/>
   </g>
   <g id="patch_3">
    <path d="M 101.376 279.936 
L 101.376 41.472 
" style="fill: none; stroke: #ffffff; stroke-width: 1.25; stroke-linejoin: miter; stroke-linecap: square"/>
   </g>
   <g id="patch_4">
    <path d="M 414.72 279.936 
L 414.72 41.472 
" style="fill: none; stroke: #ffffff; stroke-width: 1.25; stroke-linejoin: miter; stroke-linecap: square"/>
   </g>
   <g id="patch_5">
    <path d="M 101.376 279.936 
L 414.72 279.936 
" style="fill: none; stroke: #ffffff; stroke-width: 1.25; stroke-linejoin: miter; stroke-linecap: square"/>
   </g>
   <g id="patch_6">
    <path d="M 101.376 41.472 
L 414.72 41.472 
" style="fill: none; stroke: #ffffff; stroke-width: 1.25; stroke-linejoin: miter; stroke-linecap: square"/>
   </g>
   <g id="text_13">
    <!-- GLM Linear Model -->
    <g style="fill: #262626" transform="translate(191.685029 35.472) scale(0.18 -0.18)">
     <defs>
      <path id="CMSS17-47" d="M 3610 1856 
L 2336 1856 
L 2336 1461 
L 3123 1461 
L 3123 471 
C 2874 401 2618 350 2362 350 
C 1466 350 934 1301 934 2200 
C 934 3095 1491 4032 2362 4032 
C 2854 4032 3130 3881 3469 3627 
L 3552 4134 
C 3130 4351 2867 4440 2387 4440 
C 1146 4440 397 3324 397 2182 
C 397 1090 1152 -64 2349 -64 
C 2797 -64 3213 51 3610 248 
L 3610 1856 
z
" transform="scale(0.015625)"/>
      <path id="CMSS17-4c" d="M 1670 414 
C 1594 414 1517 414 1440 414 
L 1101 414 
L 1101 4416 
L 563 4416 
L 563 0 
L 3002 0 
L 3002 414 
L 1670 414 
z
" transform="scale(0.015625)"/>
      <path id="CMSS17-4d" d="M 3194 2371 
L 2886 1473 
C 2835 1307 2662 791 2624 587 
L 2618 587 
C 2598 715 2560 849 2458 1174 
C 2400 1365 2336 1562 2272 1741 
L 1325 4416 
L 576 4416 
L 576 0 
L 1075 0 
L 1075 3900 
L 1082 3900 
C 1082 3894 1139 3613 1530 2499 
L 2374 96 
L 2848 96 
L 3610 2231 
C 3661 2378 3821 2843 3891 3066 
C 3955 3257 4115 3728 4154 3913 
L 4160 3913 
L 4160 0 
L 4666 0 
L 4666 4416 
L 3923 4416 
L 3194 2371 
z
" transform="scale(0.015625)"/>
      <path id="CMSS17-6f" d="M 2829 1356 
C 2829 2176 2221 2816 1504 2816 
C 768 2816 173 2157 173 1356 
C 173 544 787 -64 1498 -64 
C 2227 -64 2829 563 2829 1356 
z
M 1504 337 
C 1050 337 659 709 659 1408 
C 659 2151 1114 2427 1498 2427 
C 1914 2427 2342 2126 2342 1408 
C 2342 683 1926 337 1504 337 
z
" transform="scale(0.015625)"/>
      <path id="CMSS17-64" d="M 2611 4416 
L 2138 4416 
L 2138 2438 
C 1939 2603 1613 2756 1254 2756 
C 672 2756 211 2131 211 1347 
C 211 562 666 -64 1235 -64 
C 1677 -64 1971 172 2125 306 
L 2125 -13 
L 2611 -13 
L 2611 4416 
z
M 2125 836 
C 2125 747 2125 653 1926 482 
C 1798 375 1645 325 1498 325 
C 1152 325 698 576 698 1340 
C 698 2134 1210 2368 1562 2368 
C 1798 2368 1990 2254 2125 2065 
L 2125 836 
z
" transform="scale(0.015625)"/>
     </defs>
     <use xlink:href="#CMSS17-47" transform="scale(0.996264)"/>
     <use xlink:href="#CMSS17-4c" transform="translate(62.458226 0) scale(0.996264)"/>
     <use xlink:href="#CMSS17-4d" transform="translate(113.145331 0) scale(0.996264)"/>
     <use xlink:href="#CMSS17-4c" transform="translate(226.050474 0) scale(0.996264)"/>
     <use xlink:href="#CMSS17-69" transform="translate(276.737579 0) scale(0.996264)"/>
     <use xlink:href="#CMSS17-6e" transform="translate(298.918302 0) scale(0.996264)"/>
     <use xlink:href="#CMSS17-65" transform="translate(347.123245 0) scale(0.996264)"/>
     <use xlink:href="#CMSS17-61" transform="translate(388.762067 0) scale(0.996264)"/>
     <use xlink:href="#CMSS17-72" transform="translate(431.081534 0) scale(0.996264)"/>
     <use xlink:href="#CMSS17-4d" transform="translate(494.220419 0) scale(0.996264)"/>
     <use xlink:href="#CMSS17-6f" transform="translate(575.896449 0) scale(0.996264)"/>
     <use xlink:href="#CMSS17-64" transform="translate(625.342511 0) scale(0.996264)"/>
     <use xlink:href="#CMSS17-65" transform="translate(673.547454 0) scale(0.996264)"/>
     <use xlink:href="#CMSS17-6c" transform="translate(715.186277 0) scale(0.996264)"/>
    </g>
   </g>
  </g>
 </g>
 <defs>
  <clipPath id="p693cb3c455">
   <rect x="101.376" y="41.472" width="313.344" height="238.464"/>
  </clipPath>
 </defs>
</svg>
